solid CATIA STL
  facet normal -1.000000e+000  0.000000e+000  0.000000e+000
    outer loop
      vertex  9.100000e+001  2.730213e+000 -9.217666e+001
      vertex  9.100000e+001  1.339518e+000 -9.133096e+001
      vertex  9.100000e+001  1.840260e+000 -9.154846e+001
    endloop
  endfacet
  facet normal -1.000000e+000  0.000000e+000  0.000000e+000
    outer loop
      vertex  9.100000e+001  2.730213e+000 -9.217666e+001
      vertex  9.100000e+001  1.840260e+000 -9.154846e+001
      vertex  9.100000e+001  2.306721e+000 -9.183212e+001
    endloop
  endfacet
  facet normal -1.000000e+000  -0.000000e+000  0.000000e+000
    outer loop
      vertex  9.100000e+001  1.300000e+000 -9.790000e+001
      vertex  9.100000e+001  8.138241e-001 -9.901633e+001
      vertex  9.100000e+001  2.729697e-001 -9.909068e+001
    endloop
  endfacet
  facet normal -9.999999e-001  0.000000e+000  0.000000e+000
    outer loop
      vertex  9.100000e+001  1.300000e+000 -9.790000e+001
      vertex  9.100000e+001  2.729697e-001 -9.909068e+001
      vertex  9.100000e+001 -2.729697e-001 -9.909068e+001
    endloop
  endfacet
  facet normal -1.000000e+000  0.000000e+000  0.000000e+000
    outer loop
      vertex  9.100000e+001  1.300000e+000 -9.790000e+001
      vertex  9.100000e+001 -2.729697e-001 -9.909068e+001
      vertex  9.100000e+001 -8.138241e-001 -9.901633e+001
    endloop
  endfacet
  facet normal -1.000000e+000  0.000000e+000  0.000000e+000
    outer loop
      vertex  9.100000e+001  1.300000e+000 -9.790000e+001
      vertex  9.100000e+001 -8.138241e-001 -9.901633e+001
      vertex  9.100000e+001 -1.339518e+000 -9.886904e+001
    endloop
  endfacet
  facet normal -1.000000e+000  0.000000e+000  0.000000e+000
    outer loop
      vertex  9.100000e+001  1.300000e+000 -9.790000e+001
      vertex  9.100000e+001 -1.339518e+000 -9.886904e+001
      vertex  9.100000e+001 -1.300000e+000 -9.790000e+001
    endloop
  endfacet
  facet normal -1.000000e+000  0.000000e+000  0.000000e+000
    outer loop
      vertex  9.100000e+001 -1.300000e+000 -9.790000e+001
      vertex  9.100000e+001 -1.339518e+000 -9.886904e+001
      vertex  9.100000e+001 -1.840260e+000 -9.865154e+001
    endloop
  endfacet
  facet normal -1.000000e+000  0.000000e+000  0.000000e+000
    outer loop
      vertex  9.100000e+001 -1.300000e+000 -9.790000e+001
      vertex  9.100000e+001 -1.840260e+000 -9.865154e+001
      vertex  9.100000e+001 -2.306721e+000 -9.836788e+001
    endloop
  endfacet
  facet normal -1.000000e+000  0.000000e+000  0.000000e+000
    outer loop
      vertex  9.100000e+001 -1.300000e+000 -9.790000e+001
      vertex  9.100000e+001 -2.306721e+000 -9.836788e+001
      vertex  9.100000e+001 -2.730213e+000 -9.802335e+001
    endloop
  endfacet
  facet normal -1.000000e+000  0.000000e+000  0.000000e+000
    outer loop
      vertex  9.100000e+001 -1.300000e+000 -9.790000e+001
      vertex  9.100000e+001 -2.730213e+000 -9.802335e+001
      vertex  9.100000e+001 -3.102845e+000 -9.762435e+001
    endloop
  endfacet
  facet normal -1.000000e+000  0.000000e+000  0.000000e+000
    outer loop
      vertex  9.100000e+001 -1.300000e+000 -9.790000e+001
      vertex  9.100000e+001 -3.102845e+000 -9.762435e+001
      vertex  9.100000e+001 -3.417678e+000 -9.717834e+001
    endloop
  endfacet
  facet normal -9.999999e-001  0.000000e+000  0.000000e+000
    outer loop
      vertex  9.100000e+001 -1.300000e+000 -9.790000e+001
      vertex  9.100000e+001 -3.417678e+000 -9.717834e+001
      vertex  9.100000e+001 -3.668845e+000 -9.669360e+001
    endloop
  endfacet
  facet normal -9.999999e-001  0.000000e+000  0.000000e+000
    outer loop
      vertex  9.100000e+001 -1.300000e+000 -9.790000e+001
      vertex  9.100000e+001 -3.668845e+000 -9.669360e+001
      vertex  9.100000e+001 -3.851669e+000 -9.617918e+001
    endloop
  endfacet
  facet normal -1.000000e+000  0.000000e+000  0.000000e+000
    outer loop
      vertex  9.100000e+001 -1.300000e+000 -9.790000e+001
      vertex  9.100000e+001 -3.851669e+000 -9.617918e+001
      vertex  9.100000e+001 -3.962744e+000 -9.564467e+001
    endloop
  endfacet
  facet normal -1.000000e+000  0.000000e+000  0.000000e+000
    outer loop
      vertex  9.100000e+001 -1.300000e+000 -9.790000e+001
      vertex  9.100000e+001 -3.962744e+000 -9.564467e+001
      vertex  9.100000e+001 -4.000000e+000 -9.510000e+001
    endloop
  endfacet
  facet normal -1.000000e+000  0.000000e+000  0.000000e+000
    outer loop
      vertex  9.100000e+001 -1.300000e+000 -9.790000e+001
      vertex  9.100000e+001 -4.000000e+000 -9.510000e+001
      vertex  9.100000e+001 -3.962744e+000 -9.455534e+001
    endloop
  endfacet
  facet normal -1.000000e+000  0.000000e+000  0.000000e+000
    outer loop
      vertex  9.100000e+001 -1.300000e+000 -9.790000e+001
      vertex  9.100000e+001 -3.962744e+000 -9.455534e+001
      vertex  9.100000e+001 -3.851669e+000 -9.402081e+001
    endloop
  endfacet
  facet normal -1.000000e+000  0.000000e+000  0.000000e+000
    outer loop
      vertex  9.100000e+001 -1.300000e+000 -9.790000e+001
      vertex  9.100000e+001 -3.851669e+000 -9.402081e+001
      vertex  9.100000e+001 -3.668845e+000 -9.350639e+001
    endloop
  endfacet
  facet normal -1.000000e+000  0.000000e+000  0.000000e+000
    outer loop
      vertex  9.100000e+001 -1.300000e+000 -9.790000e+001
      vertex  9.100000e+001 -3.668845e+000 -9.350639e+001
      vertex  9.100000e+001 -3.417678e+000 -9.302167e+001
    endloop
  endfacet
  facet normal -1.000000e+000  0.000000e+000  0.000000e+000
    outer loop
      vertex  9.100000e+001 -1.300000e+000 -9.790000e+001
      vertex  9.100000e+001 -3.417678e+000 -9.302167e+001
      vertex  9.100000e+001 -3.102845e+000 -9.257565e+001
    endloop
  endfacet
  facet normal -1.000000e+000  0.000000e+000  0.000000e+000
    outer loop
      vertex  9.100000e+001 -1.300000e+000 -9.790000e+001
      vertex  9.100000e+001 -3.102845e+000 -9.257565e+001
      vertex  9.100000e+001 -2.730213e+000 -9.217666e+001
    endloop
  endfacet
  facet normal -1.000000e+000  0.000000e+000  0.000000e+000
    outer loop
      vertex  9.100000e+001 -1.300000e+000 -9.790000e+001
      vertex  9.100000e+001 -2.730213e+000 -9.217666e+001
      vertex  9.100000e+001 -1.300000e+000 -9.230000e+001
    endloop
  endfacet
  facet normal -1.000000e+000  0.000000e+000  0.000000e+000
    outer loop
      vertex  9.100000e+001  1.300000e+000 -9.230000e+001
      vertex  9.100000e+001 -1.300000e+000 -9.230000e+001
      vertex  9.100000e+001 -1.339518e+000 -9.133096e+001
    endloop
  endfacet
  facet normal -1.000000e+000  0.000000e+000  0.000000e+000
    outer loop
      vertex  9.100000e+001  1.300000e+000 -9.230000e+001
      vertex  9.100000e+001 -1.339518e+000 -9.133096e+001
      vertex  9.100000e+001 -8.138241e-001 -9.118366e+001
    endloop
  endfacet
  facet normal -1.000000e+000  0.000000e+000  0.000000e+000
    outer loop
      vertex  9.100000e+001  1.300000e+000 -9.230000e+001
      vertex  9.100000e+001 -8.138241e-001 -9.118366e+001
      vertex  9.100000e+001 -2.729697e-001 -9.110932e+001
    endloop
  endfacet
  facet normal -1.000000e+000  0.000000e+000  0.000000e+000
    outer loop
      vertex  9.100000e+001  1.300000e+000 -9.230000e+001
      vertex  9.100000e+001 -2.729697e-001 -9.110932e+001
      vertex  9.100000e+001  2.729697e-001 -9.110932e+001
    endloop
  endfacet
  facet normal -1.000000e+000  0.000000e+000  0.000000e+000
    outer loop
      vertex  9.100000e+001  1.300000e+000 -9.230000e+001
      vertex  9.100000e+001  2.729697e-001 -9.110932e+001
      vertex  9.100000e+001  8.138241e-001 -9.118366e+001
    endloop
  endfacet
  facet normal -1.000000e+000  0.000000e+000  0.000000e+000
    outer loop
      vertex  9.100000e+001  1.300000e+000 -9.230000e+001
      vertex  9.100000e+001  8.138241e-001 -9.118366e+001
      vertex  9.100000e+001  1.339518e+000 -9.133096e+001
    endloop
  endfacet
  facet normal -1.000000e+000  0.000000e+000  -0.000000e+000
    outer loop
      vertex  9.100000e+001  1.300000e+000 -9.230000e+001
      vertex  9.100000e+001  1.339518e+000 -9.133096e+001
      vertex  9.100000e+001  2.730213e+000 -9.217666e+001
    endloop
  endfacet
  facet normal -1.000000e+000  0.000000e+000  -0.000000e+000
    outer loop
      vertex  9.100000e+001  1.300000e+000 -9.230000e+001
      vertex  9.100000e+001  2.730213e+000 -9.217666e+001
      vertex  9.100000e+001  3.102845e+000 -9.257565e+001
    endloop
  endfacet
  facet normal -1.000000e+000  -0.000000e+000  0.000000e+000
    outer loop
      vertex  9.100000e+001  1.300000e+000 -9.230000e+001
      vertex  9.100000e+001  3.102845e+000 -9.257565e+001
      vertex  9.100000e+001  1.300000e+000 -9.790000e+001
    endloop
  endfacet
  facet normal -1.000000e+000  0.000000e+000  -0.000000e+000
    outer loop
      vertex  9.100000e+001  1.300000e+000 -9.790000e+001
      vertex  9.100000e+001  3.102845e+000 -9.257565e+001
      vertex  9.100000e+001  3.417678e+000 -9.302167e+001
    endloop
  endfacet
  facet normal -1.000000e+000  0.000000e+000  -0.000000e+000
    outer loop
      vertex  9.100000e+001  1.300000e+000 -9.790000e+001
      vertex  9.100000e+001  3.417678e+000 -9.302167e+001
      vertex  9.100000e+001  3.668845e+000 -9.350639e+001
    endloop
  endfacet
  facet normal -1.000000e+000  0.000000e+000  -0.000000e+000
    outer loop
      vertex  9.100000e+001  1.300000e+000 -9.790000e+001
      vertex  9.100000e+001  3.668845e+000 -9.350639e+001
      vertex  9.100000e+001  3.851669e+000 -9.402081e+001
    endloop
  endfacet
  facet normal -1.000000e+000  0.000000e+000  -0.000000e+000
    outer loop
      vertex  9.100000e+001  1.300000e+000 -9.790000e+001
      vertex  9.100000e+001  3.851669e+000 -9.402081e+001
      vertex  9.100000e+001  3.962744e+000 -9.455534e+001
    endloop
  endfacet
  facet normal -1.000000e+000  0.000000e+000  -0.000000e+000
    outer loop
      vertex  9.100000e+001  1.300000e+000 -9.790000e+001
      vertex  9.100000e+001  3.962744e+000 -9.455534e+001
      vertex  9.100000e+001  4.000000e+000 -9.510000e+001
    endloop
  endfacet
  facet normal -1.000000e+000  0.000000e+000  0.000000e+000
    outer loop
      vertex  9.100000e+001  1.300000e+000 -9.790000e+001
      vertex  9.100000e+001  4.000000e+000 -9.510000e+001
      vertex  9.100000e+001  3.962744e+000 -9.564467e+001
    endloop
  endfacet
  facet normal -1.000000e+000  0.000000e+000  0.000000e+000
    outer loop
      vertex  9.100000e+001  1.300000e+000 -9.790000e+001
      vertex  9.100000e+001  3.962744e+000 -9.564467e+001
      vertex  9.100000e+001  3.851669e+000 -9.617918e+001
    endloop
  endfacet
  facet normal -9.999999e-001  0.000000e+000  0.000000e+000
    outer loop
      vertex  9.100000e+001  1.300000e+000 -9.790000e+001
      vertex  9.100000e+001  3.851669e+000 -9.617918e+001
      vertex  9.100000e+001  3.668845e+000 -9.669360e+001
    endloop
  endfacet
  facet normal -9.999999e-001  0.000000e+000  0.000000e+000
    outer loop
      vertex  9.100000e+001  1.300000e+000 -9.790000e+001
      vertex  9.100000e+001  3.668845e+000 -9.669360e+001
      vertex  9.100000e+001  3.417678e+000 -9.717834e+001
    endloop
  endfacet
  facet normal -1.000000e+000  0.000000e+000  0.000000e+000
    outer loop
      vertex  9.100000e+001  1.300000e+000 -9.790000e+001
      vertex  9.100000e+001  3.417678e+000 -9.717834e+001
      vertex  9.100000e+001  3.102845e+000 -9.762435e+001
    endloop
  endfacet
  facet normal -1.000000e+000  0.000000e+000  0.000000e+000
    outer loop
      vertex  9.100000e+001  1.300000e+000 -9.790000e+001
      vertex  9.100000e+001  3.102845e+000 -9.762435e+001
      vertex  9.100000e+001  2.730213e+000 -9.802335e+001
    endloop
  endfacet
  facet normal -1.000000e+000  0.000000e+000  -0.000000e+000
    outer loop
      vertex  9.100000e+001  8.138241e-001 -9.901633e+001
      vertex  9.100000e+001  1.300000e+000 -9.790000e+001
      vertex  9.100000e+001  1.339518e+000 -9.886904e+001
    endloop
  endfacet
  facet normal -1.000000e+000  0.000000e+000  0.000000e+000
    outer loop
      vertex  9.100000e+001  1.339518e+000 -9.886904e+001
      vertex  9.100000e+001  1.300000e+000 -9.790000e+001
      vertex  9.100000e+001  2.730213e+000 -9.802335e+001
    endloop
  endfacet
  facet normal -1.000000e+000  0.000000e+000  0.000000e+000
    outer loop
      vertex  9.100000e+001  1.339518e+000 -9.886904e+001
      vertex  9.100000e+001  2.730213e+000 -9.802335e+001
      vertex  9.100000e+001  1.840260e+000 -9.865154e+001
    endloop
  endfacet
  facet normal -1.000000e+000  0.000000e+000  0.000000e+000
    outer loop
      vertex  9.100000e+001  1.840260e+000 -9.865154e+001
      vertex  9.100000e+001  2.730213e+000 -9.802335e+001
      vertex  9.100000e+001  2.306721e+000 -9.836788e+001
    endloop
  endfacet
  facet normal -1.000000e+000  0.000000e+000  -0.000000e+000
    outer loop
      vertex  9.100000e+001 -2.730213e+000 -9.217666e+001
      vertex  9.100000e+001 -2.306721e+000 -9.183212e+001
      vertex  9.100000e+001 -1.300000e+000 -9.230000e+001
    endloop
  endfacet
  facet normal -1.000000e+000  0.000000e+000  0.000000e+000
    outer loop
      vertex  9.100000e+001 -1.300000e+000 -9.230000e+001
      vertex  9.100000e+001 -2.306721e+000 -9.183212e+001
      vertex  9.100000e+001 -1.840260e+000 -9.154846e+001
    endloop
  endfacet
  facet normal -1.000000e+000  0.000000e+000  0.000000e+000
    outer loop
      vertex  9.100000e+001 -1.300000e+000 -9.230000e+001
      vertex  9.100000e+001 -1.840260e+000 -9.154846e+001
      vertex  9.100000e+001 -1.339518e+000 -9.133096e+001
    endloop
  endfacet
  facet normal  -0.000000e+000  9.976687e-001  6.824297e-002
    outer loop
      vertex  1.040000e+002  4.000000e+000 -9.510000e+001
      vertex  9.100000e+001  4.000000e+000 -9.510000e+001
      vertex  1.040000e+002  3.962744e+000 -9.455534e+001
    endloop
  endfacet
  facet normal  0.000000e+000  9.976687e-001  6.824297e-002
    outer loop
      vertex  1.040000e+002  3.962744e+000 -9.455534e+001
      vertex  9.100000e+001  4.000000e+000 -9.510000e+001
      vertex  9.100000e+001  3.962744e+000 -9.455534e+001
    endloop
  endfacet
  facet normal  -0.000000e+000  9.790843e-001  2.034552e-001
    outer loop
      vertex  1.040000e+002  3.962744e+000 -9.455534e+001
      vertex  9.100000e+001  3.962744e+000 -9.455534e+001
      vertex  1.040000e+002  3.851669e+000 -9.402081e+001
    endloop
  endfacet
  facet normal  0.000000e+000  9.790843e-001  2.034552e-001
    outer loop
      vertex  1.040000e+002  3.851669e+000 -9.402081e+001
      vertex  9.100000e+001  3.962744e+000 -9.455534e+001
      vertex  9.100000e+001  3.851669e+000 -9.402081e+001
    endloop
  endfacet
  facet normal  -0.000000e+000  9.422614e-001  3.348782e-001
    outer loop
      vertex  1.040000e+002  3.851669e+000 -9.402081e+001
      vertex  9.100000e+001  3.851669e+000 -9.402081e+001
      vertex  1.040000e+002  3.668845e+000 -9.350639e+001
    endloop
  endfacet
  facet normal  0.000000e+000  9.422614e-001  3.348782e-001
    outer loop
      vertex  1.040000e+002  3.668845e+000 -9.350639e+001
      vertex  9.100000e+001  3.851669e+000 -9.402081e+001
      vertex  9.100000e+001  3.668845e+000 -9.350639e+001
    endloop
  endfacet
  facet normal  -0.000000e+000  8.878831e-001  4.600691e-001
    outer loop
      vertex  1.040000e+002  3.668845e+000 -9.350639e+001
      vertex  9.100000e+001  3.668845e+000 -9.350639e+001
      vertex  1.040000e+002  3.417678e+000 -9.302167e+001
    endloop
  endfacet
  facet normal  0.000000e+000  8.878831e-001  4.600691e-001
    outer loop
      vertex  1.040000e+002  3.417678e+000 -9.302167e+001
      vertex  9.100000e+001  3.668845e+000 -9.350639e+001
      vertex  9.100000e+001  3.417678e+000 -9.302167e+001
    endloop
  endfacet
  facet normal  -0.000000e+000  8.169736e-001  5.766751e-001
    outer loop
      vertex  1.040000e+002  3.417678e+000 -9.302167e+001
      vertex  9.100000e+001  3.417678e+000 -9.302167e+001
      vertex  1.040000e+002  3.102845e+000 -9.257565e+001
    endloop
  endfacet
  facet normal  0.000000e+000  8.169736e-001  5.766751e-001
    outer loop
      vertex  1.040000e+002  3.102845e+000 -9.257565e+001
      vertex  9.100000e+001  3.417678e+000 -9.302167e+001
      vertex  9.100000e+001  3.102845e+000 -9.257565e+001
    endloop
  endfacet
  facet normal  -0.000000e+000  7.308316e-001  6.825579e-001
    outer loop
      vertex  1.040000e+002  3.102845e+000 -9.257565e+001
      vertex  9.100000e+001  3.102845e+000 -9.257565e+001
      vertex  1.040000e+002  2.730213e+000 -9.217666e+001
    endloop
  endfacet
  facet normal  0.000000e+000  7.308316e-001  6.825579e-001
    outer loop
      vertex  1.040000e+002  2.730213e+000 -9.217666e+001
      vertex  9.100000e+001  3.102845e+000 -9.257565e+001
      vertex  9.100000e+001  2.730213e+000 -9.217666e+001
    endloop
  endfacet
  facet normal  -0.000000e+000  6.310879e-001  7.757113e-001
    outer loop
      vertex  1.040000e+002  2.730213e+000 -9.217666e+001
      vertex  9.100000e+001  2.730213e+000 -9.217666e+001
      vertex  1.040000e+002  2.306721e+000 -9.183212e+001
    endloop
  endfacet
  facet normal  0.000000e+000  6.310879e-001  7.757113e-001
    outer loop
      vertex  1.040000e+002  2.306721e+000 -9.183212e+001
      vertex  9.100000e+001  2.730213e+000 -9.217666e+001
      vertex  9.100000e+001  2.306721e+000 -9.183212e+001
    endloop
  endfacet
  facet normal  -0.000000e+000  5.195835e-001  8.544197e-001
    outer loop
      vertex  1.040000e+002  2.306721e+000 -9.183212e+001
      vertex  9.100000e+001  2.306721e+000 -9.183212e+001
      vertex  1.040000e+002  1.840260e+000 -9.154846e+001
    endloop
  endfacet
  facet normal  0.000000e+000  5.195835e-001  8.544197e-001
    outer loop
      vertex  1.040000e+002  1.840260e+000 -9.154846e+001
      vertex  9.100000e+001  2.306721e+000 -9.183212e+001
      vertex  9.100000e+001  1.840260e+000 -9.154846e+001
    endloop
  endfacet
  facet normal  -0.000000e+000  3.984066e-001  9.172089e-001
    outer loop
      vertex  1.040000e+002  1.840260e+000 -9.154846e+001
      vertex  9.100000e+001  1.840260e+000 -9.154846e+001
      vertex  1.040000e+002  1.339518e+000 -9.133096e+001
    endloop
  endfacet
  facet normal  0.000000e+000  3.984066e-001  9.172089e-001
    outer loop
      vertex  1.040000e+002  1.339518e+000 -9.133096e+001
      vertex  9.100000e+001  1.840260e+000 -9.154846e+001
      vertex  9.100000e+001  1.339518e+000 -9.133096e+001
    endloop
  endfacet
  facet normal  -0.000000e+000  2.697975e-001  9.629170e-001
    outer loop
      vertex  1.040000e+002  1.339518e+000 -9.133096e+001
      vertex  9.100000e+001  1.339518e+000 -9.133096e+001
      vertex  1.040000e+002  8.138241e-001 -9.118366e+001
    endloop
  endfacet
  facet normal  0.000000e+000  2.697975e-001  9.629170e-001
    outer loop
      vertex  1.040000e+002  8.138241e-001 -9.118366e+001
      vertex  9.100000e+001  1.339518e+000 -9.133096e+001
      vertex  9.100000e+001  8.138241e-001 -9.118366e+001
    endloop
  endfacet
  facet normal  -0.000000e+000  1.361704e-001  9.906855e-001
    outer loop
      vertex  1.040000e+002  8.138241e-001 -9.118366e+001
      vertex  9.100000e+001  8.138241e-001 -9.118366e+001
      vertex  1.040000e+002  2.729697e-001 -9.110932e+001
    endloop
  endfacet
  facet normal  0.000000e+000  1.361704e-001  9.906855e-001
    outer loop
      vertex  1.040000e+002  2.729697e-001 -9.110932e+001
      vertex  9.100000e+001  8.138241e-001 -9.118366e+001
      vertex  9.100000e+001  2.729697e-001 -9.110932e+001
    endloop
  endfacet
  facet normal  -0.000000e+000  0.000000e+000  1.000000e+000
    outer loop
      vertex  1.040000e+002  2.729697e-001 -9.110932e+001
      vertex  9.100000e+001  2.729697e-001 -9.110932e+001
      vertex  1.040000e+002 -2.729697e-001 -9.110932e+001
    endloop
  endfacet
  facet normal  0.000000e+000  0.000000e+000  1.000000e+000
    outer loop
      vertex  1.040000e+002 -2.729697e-001 -9.110932e+001
      vertex  9.100000e+001  2.729697e-001 -9.110932e+001
      vertex  9.100000e+001 -2.729697e-001 -9.110932e+001
    endloop
  endfacet
  facet normal  0.000000e+000 -1.361704e-001  9.906855e-001
    outer loop
      vertex  1.040000e+002 -2.729697e-001 -9.110932e+001
      vertex  9.100000e+001 -2.729697e-001 -9.110932e+001
      vertex  1.040000e+002 -8.138241e-001 -9.118366e+001
    endloop
  endfacet
  facet normal  0.000000e+000 -1.361704e-001  9.906855e-001
    outer loop
      vertex  1.040000e+002 -8.138241e-001 -9.118366e+001
      vertex  9.100000e+001 -2.729697e-001 -9.110932e+001
      vertex  9.100000e+001 -8.138241e-001 -9.118366e+001
    endloop
  endfacet
  facet normal  0.000000e+000 -2.697975e-001  9.629170e-001
    outer loop
      vertex  1.040000e+002 -8.138241e-001 -9.118366e+001
      vertex  9.100000e+001 -8.138241e-001 -9.118366e+001
      vertex  1.040000e+002 -1.339518e+000 -9.133096e+001
    endloop
  endfacet
  facet normal  0.000000e+000 -2.697975e-001  9.629170e-001
    outer loop
      vertex  1.040000e+002 -1.339518e+000 -9.133096e+001
      vertex  9.100000e+001 -8.138241e-001 -9.118366e+001
      vertex  9.100000e+001 -1.339518e+000 -9.133096e+001
    endloop
  endfacet
  facet normal  0.000000e+000 -3.984066e-001  9.172089e-001
    outer loop
      vertex  1.040000e+002 -1.339518e+000 -9.133096e+001
      vertex  9.100000e+001 -1.339518e+000 -9.133096e+001
      vertex  1.040000e+002 -1.840260e+000 -9.154846e+001
    endloop
  endfacet
  facet normal  0.000000e+000 -3.984066e-001  9.172089e-001
    outer loop
      vertex  1.040000e+002 -1.840260e+000 -9.154846e+001
      vertex  9.100000e+001 -1.339518e+000 -9.133096e+001
      vertex  9.100000e+001 -1.840260e+000 -9.154846e+001
    endloop
  endfacet
  facet normal  0.000000e+000 -5.195835e-001  8.544197e-001
    outer loop
      vertex  1.040000e+002 -1.840260e+000 -9.154846e+001
      vertex  9.100000e+001 -1.840260e+000 -9.154846e+001
      vertex  1.040000e+002 -2.306721e+000 -9.183212e+001
    endloop
  endfacet
  facet normal  0.000000e+000 -5.195835e-001  8.544197e-001
    outer loop
      vertex  1.040000e+002 -2.306721e+000 -9.183212e+001
      vertex  9.100000e+001 -1.840260e+000 -9.154846e+001
      vertex  9.100000e+001 -2.306721e+000 -9.183212e+001
    endloop
  endfacet
  facet normal  0.000000e+000 -6.310879e-001  7.757113e-001
    outer loop
      vertex  1.040000e+002 -2.306721e+000 -9.183212e+001
      vertex  9.100000e+001 -2.306721e+000 -9.183212e+001
      vertex  1.040000e+002 -2.730213e+000 -9.217666e+001
    endloop
  endfacet
  facet normal  0.000000e+000 -6.310879e-001  7.757113e-001
    outer loop
      vertex  1.040000e+002 -2.730213e+000 -9.217666e+001
      vertex  9.100000e+001 -2.306721e+000 -9.183212e+001
      vertex  9.100000e+001 -2.730213e+000 -9.217666e+001
    endloop
  endfacet
  facet normal  0.000000e+000 -7.308316e-001  6.825579e-001
    outer loop
      vertex  1.040000e+002 -2.730213e+000 -9.217666e+001
      vertex  9.100000e+001 -2.730213e+000 -9.217666e+001
      vertex  1.040000e+002 -3.102845e+000 -9.257565e+001
    endloop
  endfacet
  facet normal  0.000000e+000 -7.308316e-001  6.825579e-001
    outer loop
      vertex  1.040000e+002 -3.102845e+000 -9.257565e+001
      vertex  9.100000e+001 -2.730213e+000 -9.217666e+001
      vertex  9.100000e+001 -3.102845e+000 -9.257565e+001
    endloop
  endfacet
  facet normal  0.000000e+000 -8.169736e-001  5.766751e-001
    outer loop
      vertex  1.040000e+002 -3.102845e+000 -9.257565e+001
      vertex  9.100000e+001 -3.102845e+000 -9.257565e+001
      vertex  1.040000e+002 -3.417678e+000 -9.302167e+001
    endloop
  endfacet
  facet normal  0.000000e+000 -8.169736e-001  5.766751e-001
    outer loop
      vertex  1.040000e+002 -3.417678e+000 -9.302167e+001
      vertex  9.100000e+001 -3.102845e+000 -9.257565e+001
      vertex  9.100000e+001 -3.417678e+000 -9.302167e+001
    endloop
  endfacet
  facet normal  0.000000e+000 -8.878831e-001  4.600691e-001
    outer loop
      vertex  1.040000e+002 -3.417678e+000 -9.302167e+001
      vertex  9.100000e+001 -3.417678e+000 -9.302167e+001
      vertex  1.040000e+002 -3.668845e+000 -9.350639e+001
    endloop
  endfacet
  facet normal  0.000000e+000 -8.878831e-001  4.600691e-001
    outer loop
      vertex  1.040000e+002 -3.668845e+000 -9.350639e+001
      vertex  9.100000e+001 -3.417678e+000 -9.302167e+001
      vertex  9.100000e+001 -3.668845e+000 -9.350639e+001
    endloop
  endfacet
  facet normal  0.000000e+000 -9.422614e-001  3.348782e-001
    outer loop
      vertex  1.040000e+002 -3.668845e+000 -9.350639e+001
      vertex  9.100000e+001 -3.668845e+000 -9.350639e+001
      vertex  1.040000e+002 -3.851669e+000 -9.402081e+001
    endloop
  endfacet
  facet normal  0.000000e+000 -9.422614e-001  3.348782e-001
    outer loop
      vertex  1.040000e+002 -3.851669e+000 -9.402081e+001
      vertex  9.100000e+001 -3.668845e+000 -9.350639e+001
      vertex  9.100000e+001 -3.851669e+000 -9.402081e+001
    endloop
  endfacet
  facet normal  0.000000e+000 -9.790843e-001  2.034552e-001
    outer loop
      vertex  1.040000e+002 -3.851669e+000 -9.402081e+001
      vertex  9.100000e+001 -3.851669e+000 -9.402081e+001
      vertex  1.040000e+002 -3.962744e+000 -9.455534e+001
    endloop
  endfacet
  facet normal  0.000000e+000 -9.790843e-001  2.034552e-001
    outer loop
      vertex  1.040000e+002 -3.962744e+000 -9.455534e+001
      vertex  9.100000e+001 -3.851669e+000 -9.402081e+001
      vertex  9.100000e+001 -3.962744e+000 -9.455534e+001
    endloop
  endfacet
  facet normal  0.000000e+000 -9.976687e-001  6.824297e-002
    outer loop
      vertex  1.040000e+002 -3.962744e+000 -9.455534e+001
      vertex  9.100000e+001 -3.962744e+000 -9.455534e+001
      vertex  1.040000e+002 -4.000000e+000 -9.510000e+001
    endloop
  endfacet
  facet normal  0.000000e+000 -9.976687e-001  6.824297e-002
    outer loop
      vertex  1.040000e+002 -4.000000e+000 -9.510000e+001
      vertex  9.100000e+001 -3.962744e+000 -9.455534e+001
      vertex  9.100000e+001 -4.000000e+000 -9.510000e+001
    endloop
  endfacet
  facet normal  0.000000e+000 -9.976687e-001 -6.824202e-002
    outer loop
      vertex  1.040000e+002 -4.000000e+000 -9.510000e+001
      vertex  9.100000e+001 -4.000000e+000 -9.510000e+001
      vertex  1.040000e+002 -3.962744e+000 -9.564467e+001
    endloop
  endfacet
  facet normal  -0.000000e+000 -9.976687e-001 -6.824202e-002
    outer loop
      vertex  1.040000e+002 -3.962744e+000 -9.564467e+001
      vertex  9.100000e+001 -4.000000e+000 -9.510000e+001
      vertex  9.100000e+001 -3.962744e+000 -9.564467e+001
    endloop
  endfacet
  facet normal  0.000000e+000 -9.790837e-001 -2.034580e-001
    outer loop
      vertex  1.040000e+002 -3.962744e+000 -9.564467e+001
      vertex  9.100000e+001 -3.962744e+000 -9.564467e+001
      vertex  1.040000e+002 -3.851669e+000 -9.617918e+001
    endloop
  endfacet
  facet normal  -0.000000e+000 -9.790837e-001 -2.034580e-001
    outer loop
      vertex  1.040000e+002 -3.851669e+000 -9.617918e+001
      vertex  9.100000e+001 -3.962744e+000 -9.564467e+001
      vertex  9.100000e+001 -3.851669e+000 -9.617918e+001
    endloop
  endfacet
  facet normal  0.000000e+000 -9.422614e-001 -3.348782e-001
    outer loop
      vertex  1.040000e+002 -3.851669e+000 -9.617918e+001
      vertex  9.100000e+001 -3.851669e+000 -9.617918e+001
      vertex  1.040000e+002 -3.668845e+000 -9.669360e+001
    endloop
  endfacet
  facet normal  -0.000000e+000 -9.422614e-001 -3.348782e-001
    outer loop
      vertex  1.040000e+002 -3.668845e+000 -9.669360e+001
      vertex  9.100000e+001 -3.851669e+000 -9.617918e+001
      vertex  9.100000e+001 -3.668845e+000 -9.669360e+001
    endloop
  endfacet
  facet normal  0.000000e+000 -8.878861e-001 -4.600634e-001
    outer loop
      vertex  1.040000e+002 -3.668845e+000 -9.669360e+001
      vertex  9.100000e+001 -3.668845e+000 -9.669360e+001
      vertex  1.040000e+002 -3.417678e+000 -9.717834e+001
    endloop
  endfacet
  facet normal  -0.000000e+000 -8.878861e-001 -4.600634e-001
    outer loop
      vertex  1.040000e+002 -3.417678e+000 -9.717834e+001
      vertex  9.100000e+001 -3.668845e+000 -9.669360e+001
      vertex  9.100000e+001 -3.417678e+000 -9.717834e+001
    endloop
  endfacet
  facet normal  0.000000e+000 -8.169689e-001 -5.766817e-001
    outer loop
      vertex  1.040000e+002 -3.417678e+000 -9.717834e+001
      vertex  9.100000e+001 -3.417678e+000 -9.717834e+001
      vertex  1.040000e+002 -3.102845e+000 -9.762435e+001
    endloop
  endfacet
  facet normal  -0.000000e+000 -8.169689e-001 -5.766817e-001
    outer loop
      vertex  1.040000e+002 -3.102845e+000 -9.762435e+001
      vertex  9.100000e+001 -3.417678e+000 -9.717834e+001
      vertex  9.100000e+001 -3.102845e+000 -9.762435e+001
    endloop
  endfacet
  facet normal  0.000000e+000 -7.308381e-001 -6.825509e-001
    outer loop
      vertex  1.040000e+002 -3.102845e+000 -9.762435e+001
      vertex  9.100000e+001 -3.102845e+000 -9.762435e+001
      vertex  1.040000e+002 -2.730213e+000 -9.802335e+001
    endloop
  endfacet
  facet normal  -0.000000e+000 -7.308381e-001 -6.825509e-001
    outer loop
      vertex  1.040000e+002 -2.730213e+000 -9.802335e+001
      vertex  9.100000e+001 -3.102845e+000 -9.762435e+001
      vertex  9.100000e+001 -2.730213e+000 -9.802335e+001
    endloop
  endfacet
  facet normal  0.000000e+000 -6.310879e-001 -7.757113e-001
    outer loop
      vertex  1.040000e+002 -2.730213e+000 -9.802335e+001
      vertex  9.100000e+001 -2.730213e+000 -9.802335e+001
      vertex  1.040000e+002 -2.306721e+000 -9.836788e+001
    endloop
  endfacet
  facet normal  -0.000000e+000 -6.310879e-001 -7.757113e-001
    outer loop
      vertex  1.040000e+002 -2.306721e+000 -9.836788e+001
      vertex  9.100000e+001 -2.730213e+000 -9.802335e+001
      vertex  9.100000e+001 -2.306721e+000 -9.836788e+001
    endloop
  endfacet
  facet normal  0.000000e+000 -5.195835e-001 -8.544197e-001
    outer loop
      vertex  1.040000e+002 -2.306721e+000 -9.836788e+001
      vertex  9.100000e+001 -2.306721e+000 -9.836788e+001
      vertex  1.040000e+002 -1.840260e+000 -9.865154e+001
    endloop
  endfacet
  facet normal  -0.000000e+000 -5.195835e-001 -8.544197e-001
    outer loop
      vertex  1.040000e+002 -1.840260e+000 -9.865154e+001
      vertex  9.100000e+001 -2.306721e+000 -9.836788e+001
      vertex  9.100000e+001 -1.840260e+000 -9.865154e+001
    endloop
  endfacet
  facet normal  0.000000e+000 -3.983948e-001 -9.172140e-001
    outer loop
      vertex  1.040000e+002 -1.840260e+000 -9.865154e+001
      vertex  9.100000e+001 -1.840260e+000 -9.865154e+001
      vertex  1.040000e+002 -1.339518e+000 -9.886904e+001
    endloop
  endfacet
  facet normal  -0.000000e+000 -3.983948e-001 -9.172140e-001
    outer loop
      vertex  1.040000e+002 -1.339518e+000 -9.886904e+001
      vertex  9.100000e+001 -1.840260e+000 -9.865154e+001
      vertex  9.100000e+001 -1.339518e+000 -9.886904e+001
    endloop
  endfacet
  facet normal  0.000000e+000 -2.697975e-001 -9.629170e-001
    outer loop
      vertex  1.040000e+002 -1.339518e+000 -9.886904e+001
      vertex  9.100000e+001 -1.339518e+000 -9.886904e+001
      vertex  1.040000e+002 -8.138241e-001 -9.901633e+001
    endloop
  endfacet
  facet normal  -0.000000e+000 -2.697975e-001 -9.629170e-001
    outer loop
      vertex  1.040000e+002 -8.138241e-001 -9.901633e+001
      vertex  9.100000e+001 -1.339518e+000 -9.886904e+001
      vertex  9.100000e+001 -8.138241e-001 -9.901633e+001
    endloop
  endfacet
  facet normal  0.000000e+000 -1.361704e-001 -9.906855e-001
    outer loop
      vertex  1.040000e+002 -8.138241e-001 -9.901633e+001
      vertex  9.100000e+001 -8.138241e-001 -9.901633e+001
      vertex  1.040000e+002 -2.729697e-001 -9.909068e+001
    endloop
  endfacet
  facet normal  -0.000000e+000 -1.361704e-001 -9.906855e-001
    outer loop
      vertex  1.040000e+002 -2.729697e-001 -9.909068e+001
      vertex  9.100000e+001 -8.138241e-001 -9.901633e+001
      vertex  9.100000e+001 -2.729697e-001 -9.909068e+001
    endloop
  endfacet
  facet normal  0.000000e+000  0.000000e+000 -1.000000e+000
    outer loop
      vertex  1.040000e+002 -2.729697e-001 -9.909068e+001
      vertex  9.100000e+001 -2.729697e-001 -9.909068e+001
      vertex  1.040000e+002  2.729697e-001 -9.909068e+001
    endloop
  endfacet
  facet normal  -0.000000e+000  0.000000e+000 -1.000000e+000
    outer loop
      vertex  1.040000e+002  2.729697e-001 -9.909068e+001
      vertex  9.100000e+001 -2.729697e-001 -9.909068e+001
      vertex  9.100000e+001  2.729697e-001 -9.909068e+001
    endloop
  endfacet
  facet normal  0.000000e+000  1.361704e-001 -9.906855e-001
    outer loop
      vertex  1.040000e+002  2.729697e-001 -9.909068e+001
      vertex  9.100000e+001  2.729697e-001 -9.909068e+001
      vertex  1.040000e+002  8.138241e-001 -9.901633e+001
    endloop
  endfacet
  facet normal  0.000000e+000  1.361704e-001 -9.906855e-001
    outer loop
      vertex  1.040000e+002  8.138241e-001 -9.901633e+001
      vertex  9.100000e+001  2.729697e-001 -9.909068e+001
      vertex  9.100000e+001  8.138241e-001 -9.901633e+001
    endloop
  endfacet
  facet normal  0.000000e+000  2.697975e-001 -9.629170e-001
    outer loop
      vertex  1.040000e+002  8.138241e-001 -9.901633e+001
      vertex  9.100000e+001  8.138241e-001 -9.901633e+001
      vertex  1.040000e+002  1.339518e+000 -9.886904e+001
    endloop
  endfacet
  facet normal  0.000000e+000  2.697975e-001 -9.629170e-001
    outer loop
      vertex  1.040000e+002  1.339518e+000 -9.886904e+001
      vertex  9.100000e+001  8.138241e-001 -9.901633e+001
      vertex  9.100000e+001  1.339518e+000 -9.886904e+001
    endloop
  endfacet
  facet normal  0.000000e+000  3.983948e-001 -9.172140e-001
    outer loop
      vertex  1.040000e+002  1.339518e+000 -9.886904e+001
      vertex  9.100000e+001  1.339518e+000 -9.886904e+001
      vertex  1.040000e+002  1.840260e+000 -9.865154e+001
    endloop
  endfacet
  facet normal  0.000000e+000  3.983948e-001 -9.172140e-001
    outer loop
      vertex  1.040000e+002  1.840260e+000 -9.865154e+001
      vertex  9.100000e+001  1.339518e+000 -9.886904e+001
      vertex  9.100000e+001  1.840260e+000 -9.865154e+001
    endloop
  endfacet
  facet normal  0.000000e+000  5.195835e-001 -8.544197e-001
    outer loop
      vertex  1.040000e+002  1.840260e+000 -9.865154e+001
      vertex  9.100000e+001  1.840260e+000 -9.865154e+001
      vertex  1.040000e+002  2.306721e+000 -9.836788e+001
    endloop
  endfacet
  facet normal  0.000000e+000  5.195835e-001 -8.544197e-001
    outer loop
      vertex  1.040000e+002  2.306721e+000 -9.836788e+001
      vertex  9.100000e+001  1.840260e+000 -9.865154e+001
      vertex  9.100000e+001  2.306721e+000 -9.836788e+001
    endloop
  endfacet
  facet normal  0.000000e+000  6.310879e-001 -7.757113e-001
    outer loop
      vertex  1.040000e+002  2.306721e+000 -9.836788e+001
      vertex  9.100000e+001  2.306721e+000 -9.836788e+001
      vertex  1.040000e+002  2.730213e+000 -9.802335e+001
    endloop
  endfacet
  facet normal  0.000000e+000  6.310879e-001 -7.757113e-001
    outer loop
      vertex  1.040000e+002  2.730213e+000 -9.802335e+001
      vertex  9.100000e+001  2.306721e+000 -9.836788e+001
      vertex  9.100000e+001  2.730213e+000 -9.802335e+001
    endloop
  endfacet
  facet normal  0.000000e+000  7.308381e-001 -6.825509e-001
    outer loop
      vertex  1.040000e+002  2.730213e+000 -9.802335e+001
      vertex  9.100000e+001  2.730213e+000 -9.802335e+001
      vertex  1.040000e+002  3.102845e+000 -9.762435e+001
    endloop
  endfacet
  facet normal  0.000000e+000  7.308381e-001 -6.825509e-001
    outer loop
      vertex  1.040000e+002  3.102845e+000 -9.762435e+001
      vertex  9.100000e+001  2.730213e+000 -9.802335e+001
      vertex  9.100000e+001  3.102845e+000 -9.762435e+001
    endloop
  endfacet
  facet normal  0.000000e+000  8.169689e-001 -5.766817e-001
    outer loop
      vertex  1.040000e+002  3.102845e+000 -9.762435e+001
      vertex  9.100000e+001  3.102845e+000 -9.762435e+001
      vertex  1.040000e+002  3.417678e+000 -9.717834e+001
    endloop
  endfacet
  facet normal  0.000000e+000  8.169689e-001 -5.766817e-001
    outer loop
      vertex  1.040000e+002  3.417678e+000 -9.717834e+001
      vertex  9.100000e+001  3.102845e+000 -9.762435e+001
      vertex  9.100000e+001  3.417678e+000 -9.717834e+001
    endloop
  endfacet
  facet normal  0.000000e+000  8.878861e-001 -4.600634e-001
    outer loop
      vertex  1.040000e+002  3.417678e+000 -9.717834e+001
      vertex  9.100000e+001  3.417678e+000 -9.717834e+001
      vertex  1.040000e+002  3.668845e+000 -9.669360e+001
    endloop
  endfacet
  facet normal  0.000000e+000  8.878861e-001 -4.600634e-001
    outer loop
      vertex  1.040000e+002  3.668845e+000 -9.669360e+001
      vertex  9.100000e+001  3.417678e+000 -9.717834e+001
      vertex  9.100000e+001  3.668845e+000 -9.669360e+001
    endloop
  endfacet
  facet normal  0.000000e+000  9.422614e-001 -3.348782e-001
    outer loop
      vertex  1.040000e+002  3.668845e+000 -9.669360e+001
      vertex  9.100000e+001  3.668845e+000 -9.669360e+001
      vertex  1.040000e+002  3.851669e+000 -9.617918e+001
    endloop
  endfacet
  facet normal  0.000000e+000  9.422614e-001 -3.348782e-001
    outer loop
      vertex  1.040000e+002  3.851669e+000 -9.617918e+001
      vertex  9.100000e+001  3.668845e+000 -9.669360e+001
      vertex  9.100000e+001  3.851669e+000 -9.617918e+001
    endloop
  endfacet
  facet normal  0.000000e+000  9.790837e-001 -2.034580e-001
    outer loop
      vertex  1.040000e+002  3.851669e+000 -9.617918e+001
      vertex  9.100000e+001  3.851669e+000 -9.617918e+001
      vertex  1.040000e+002  3.962744e+000 -9.564467e+001
    endloop
  endfacet
  facet normal  0.000000e+000  9.790837e-001 -2.034580e-001
    outer loop
      vertex  1.040000e+002  3.962744e+000 -9.564467e+001
      vertex  9.100000e+001  3.851669e+000 -9.617918e+001
      vertex  9.100000e+001  3.962744e+000 -9.564467e+001
    endloop
  endfacet
  facet normal  0.000000e+000  9.976687e-001 -6.824202e-002
    outer loop
      vertex  1.040000e+002  3.962744e+000 -9.564467e+001
      vertex  9.100000e+001  3.962744e+000 -9.564467e+001
      vertex  1.040000e+002  4.000000e+000 -9.510000e+001
    endloop
  endfacet
  facet normal  0.000000e+000  9.976687e-001 -6.824202e-002
    outer loop
      vertex  1.040000e+002  4.000000e+000 -9.510000e+001
      vertex  9.100000e+001  3.962744e+000 -9.564467e+001
      vertex  9.100000e+001  4.000000e+000 -9.510000e+001
    endloop
  endfacet
  facet normal  0.000000e+000  0.000000e+000 -1.000000e+000
    outer loop
      vertex  1.040000e+002  1.300000e+000 -9.230000e+001
      vertex  1.040000e+002 -1.300000e+000 -9.230000e+001
      vertex  9.100000e+001  1.300000e+000 -9.230000e+001
    endloop
  endfacet
  facet normal  0.000000e+000  0.000000e+000 -1.000000e+000
    outer loop
      vertex  9.100000e+001  1.300000e+000 -9.230000e+001
      vertex  1.040000e+002 -1.300000e+000 -9.230000e+001
      vertex  9.100000e+001 -1.300000e+000 -9.230000e+001
    endloop
  endfacet
  facet normal  0.000000e+000  1.000000e+000  -0.000000e+000
    outer loop
      vertex  1.040000e+002 -1.300000e+000 -9.230000e+001
      vertex  1.040000e+002 -1.300000e+000 -9.790000e+001
      vertex  9.100000e+001 -1.300000e+000 -9.230000e+001
    endloop
  endfacet
  facet normal  0.000000e+000  1.000000e+000  0.000000e+000
    outer loop
      vertex  9.100000e+001 -1.300000e+000 -9.230000e+001
      vertex  1.040000e+002 -1.300000e+000 -9.790000e+001
      vertex  9.100000e+001 -1.300000e+000 -9.790000e+001
    endloop
  endfacet
  facet normal  0.000000e+000  0.000000e+000  1.000000e+000
    outer loop
      vertex  1.040000e+002 -1.300000e+000 -9.790000e+001
      vertex  1.040000e+002  1.300000e+000 -9.790000e+001
      vertex  9.100000e+001 -1.300000e+000 -9.790000e+001
    endloop
  endfacet
  facet normal  0.000000e+000  0.000000e+000  1.000000e+000
    outer loop
      vertex  9.100000e+001 -1.300000e+000 -9.790000e+001
      vertex  1.040000e+002  1.300000e+000 -9.790000e+001
      vertex  9.100000e+001  1.300000e+000 -9.790000e+001
    endloop
  endfacet
  facet normal  0.000000e+000 -1.000000e+000  -0.000000e+000
    outer loop
      vertex  1.040000e+002  1.300000e+000 -9.790000e+001
      vertex  1.040000e+002  1.300000e+000 -9.230000e+001
      vertex  9.100000e+001  1.300000e+000 -9.790000e+001
    endloop
  endfacet
  facet normal  0.000000e+000 -1.000000e+000  0.000000e+000
    outer loop
      vertex  9.100000e+001  1.300000e+000 -9.790000e+001
      vertex  1.040000e+002  1.300000e+000 -9.230000e+001
      vertex  9.100000e+001  1.300000e+000 -9.230000e+001
    endloop
  endfacet
  facet normal  1.000000e+000  0.000000e+000  0.000000e+000
    outer loop
      vertex  1.040000e+002  1.840260e+000 -9.154846e+001
      vertex  1.040000e+002  1.339518e+000 -9.133096e+001
      vertex  1.040000e+002  2.730213e+000 -9.217666e+001
    endloop
  endfacet
  facet normal  1.000000e+000  0.000000e+000  0.000000e+000
    outer loop
      vertex  1.040000e+002  2.306721e+000 -9.183212e+001
      vertex  1.040000e+002  1.840260e+000 -9.154846e+001
      vertex  1.040000e+002  2.730213e+000 -9.217666e+001
    endloop
  endfacet
  facet normal  1.000000e+000  -0.000000e+000  0.000000e+000
    outer loop
      vertex  1.040000e+002  1.300000e+000 -9.790000e+001
      vertex  1.040000e+002 -1.300000e+000 -9.790000e+001
      vertex  1.040000e+002 -1.339518e+000 -9.886904e+001
    endloop
  endfacet
  facet normal  1.000000e+000  -0.000000e+000  0.000000e+000
    outer loop
      vertex  1.040000e+002  1.300000e+000 -9.790000e+001
      vertex  1.040000e+002 -1.339518e+000 -9.886904e+001
      vertex  1.040000e+002 -8.138241e-001 -9.901633e+001
    endloop
  endfacet
  facet normal  1.000000e+000  -0.000000e+000  0.000000e+000
    outer loop
      vertex  1.040000e+002  1.300000e+000 -9.790000e+001
      vertex  1.040000e+002 -8.138241e-001 -9.901633e+001
      vertex  1.040000e+002 -2.729697e-001 -9.909068e+001
    endloop
  endfacet
  facet normal  9.999999e-001  0.000000e+000  0.000000e+000
    outer loop
      vertex  1.040000e+002  1.300000e+000 -9.790000e+001
      vertex  1.040000e+002 -2.729697e-001 -9.909068e+001
      vertex  1.040000e+002  2.729697e-001 -9.909068e+001
    endloop
  endfacet
  facet normal  1.000000e+000  0.000000e+000  0.000000e+000
    outer loop
      vertex  1.040000e+002  1.300000e+000 -9.790000e+001
      vertex  1.040000e+002  2.729697e-001 -9.909068e+001
      vertex  1.040000e+002  8.138241e-001 -9.901633e+001
    endloop
  endfacet
  facet normal  1.000000e+000  0.000000e+000  0.000000e+000
    outer loop
      vertex  1.040000e+002 -1.300000e+000 -9.790000e+001
      vertex  1.040000e+002 -1.300000e+000 -9.230000e+001
      vertex  1.040000e+002 -2.730213e+000 -9.217666e+001
    endloop
  endfacet
  facet normal  1.000000e+000  0.000000e+000  0.000000e+000
    outer loop
      vertex  1.040000e+002 -1.300000e+000 -9.790000e+001
      vertex  1.040000e+002 -2.730213e+000 -9.217666e+001
      vertex  1.040000e+002 -3.102845e+000 -9.257565e+001
    endloop
  endfacet
  facet normal  1.000000e+000  0.000000e+000  0.000000e+000
    outer loop
      vertex  1.040000e+002 -1.300000e+000 -9.790000e+001
      vertex  1.040000e+002 -3.102845e+000 -9.257565e+001
      vertex  1.040000e+002 -3.417678e+000 -9.302167e+001
    endloop
  endfacet
  facet normal  1.000000e+000  0.000000e+000  0.000000e+000
    outer loop
      vertex  1.040000e+002 -1.300000e+000 -9.790000e+001
      vertex  1.040000e+002 -3.417678e+000 -9.302167e+001
      vertex  1.040000e+002 -3.668845e+000 -9.350639e+001
    endloop
  endfacet
  facet normal  1.000000e+000  0.000000e+000  0.000000e+000
    outer loop
      vertex  1.040000e+002 -1.300000e+000 -9.790000e+001
      vertex  1.040000e+002 -3.668845e+000 -9.350639e+001
      vertex  1.040000e+002 -3.851669e+000 -9.402081e+001
    endloop
  endfacet
  facet normal  1.000000e+000  0.000000e+000  0.000000e+000
    outer loop
      vertex  1.040000e+002 -1.300000e+000 -9.790000e+001
      vertex  1.040000e+002 -3.851669e+000 -9.402081e+001
      vertex  1.040000e+002 -3.962744e+000 -9.455534e+001
    endloop
  endfacet
  facet normal  1.000000e+000  0.000000e+000  0.000000e+000
    outer loop
      vertex  1.040000e+002 -1.300000e+000 -9.790000e+001
      vertex  1.040000e+002 -3.962744e+000 -9.455534e+001
      vertex  1.040000e+002 -4.000000e+000 -9.510000e+001
    endloop
  endfacet
  facet normal  1.000000e+000  0.000000e+000  0.000000e+000
    outer loop
      vertex  1.040000e+002 -1.300000e+000 -9.790000e+001
      vertex  1.040000e+002 -4.000000e+000 -9.510000e+001
      vertex  1.040000e+002 -3.962744e+000 -9.564467e+001
    endloop
  endfacet
  facet normal  1.000000e+000  0.000000e+000  0.000000e+000
    outer loop
      vertex  1.040000e+002 -1.300000e+000 -9.790000e+001
      vertex  1.040000e+002 -3.962744e+000 -9.564467e+001
      vertex  1.040000e+002 -3.851669e+000 -9.617918e+001
    endloop
  endfacet
  facet normal  9.999999e-001  0.000000e+000  0.000000e+000
    outer loop
      vertex  1.040000e+002 -1.300000e+000 -9.790000e+001
      vertex  1.040000e+002 -3.851669e+000 -9.617918e+001
      vertex  1.040000e+002 -3.668845e+000 -9.669360e+001
    endloop
  endfacet
  facet normal  9.999999e-001  0.000000e+000  0.000000e+000
    outer loop
      vertex  1.040000e+002 -1.300000e+000 -9.790000e+001
      vertex  1.040000e+002 -3.668845e+000 -9.669360e+001
      vertex  1.040000e+002 -3.417678e+000 -9.717834e+001
    endloop
  endfacet
  facet normal  1.000000e+000  0.000000e+000  0.000000e+000
    outer loop
      vertex  1.040000e+002 -1.300000e+000 -9.790000e+001
      vertex  1.040000e+002 -3.417678e+000 -9.717834e+001
      vertex  1.040000e+002 -3.102845e+000 -9.762435e+001
    endloop
  endfacet
  facet normal  1.000000e+000  0.000000e+000  0.000000e+000
    outer loop
      vertex  1.040000e+002 -1.300000e+000 -9.790000e+001
      vertex  1.040000e+002 -3.102845e+000 -9.762435e+001
      vertex  1.040000e+002 -2.730213e+000 -9.802335e+001
    endloop
  endfacet
  facet normal  1.000000e+000  -0.000000e+000  0.000000e+000
    outer loop
      vertex  1.040000e+002 -1.300000e+000 -9.790000e+001
      vertex  1.040000e+002 -2.730213e+000 -9.802335e+001
      vertex  1.040000e+002 -2.306721e+000 -9.836788e+001
    endloop
  endfacet
  facet normal  1.000000e+000  -0.000000e+000  0.000000e+000
    outer loop
      vertex  1.040000e+002 -1.300000e+000 -9.790000e+001
      vertex  1.040000e+002 -2.306721e+000 -9.836788e+001
      vertex  1.040000e+002 -1.840260e+000 -9.865154e+001
    endloop
  endfacet
  facet normal  1.000000e+000  -0.000000e+000  0.000000e+000
    outer loop
      vertex  1.040000e+002 -1.300000e+000 -9.790000e+001
      vertex  1.040000e+002 -1.840260e+000 -9.865154e+001
      vertex  1.040000e+002 -1.339518e+000 -9.886904e+001
    endloop
  endfacet
  facet normal  1.000000e+000  0.000000e+000  0.000000e+000
    outer loop
      vertex  1.040000e+002  1.300000e+000 -9.230000e+001
      vertex  1.040000e+002  1.300000e+000 -9.790000e+001
      vertex  1.040000e+002  3.102845e+000 -9.257565e+001
    endloop
  endfacet
  facet normal  1.000000e+000  0.000000e+000  0.000000e+000
    outer loop
      vertex  1.040000e+002  1.300000e+000 -9.230000e+001
      vertex  1.040000e+002  3.102845e+000 -9.257565e+001
      vertex  1.040000e+002  2.730213e+000 -9.217666e+001
    endloop
  endfacet
  facet normal  1.000000e+000  0.000000e+000  0.000000e+000
    outer loop
      vertex  1.040000e+002  1.300000e+000 -9.230000e+001
      vertex  1.040000e+002  2.730213e+000 -9.217666e+001
      vertex  1.040000e+002  1.339518e+000 -9.133096e+001
    endloop
  endfacet
  facet normal  1.000000e+000  0.000000e+000  0.000000e+000
    outer loop
      vertex  1.040000e+002  1.300000e+000 -9.230000e+001
      vertex  1.040000e+002  1.339518e+000 -9.133096e+001
      vertex  1.040000e+002  8.138241e-001 -9.118366e+001
    endloop
  endfacet
  facet normal  1.000000e+000  0.000000e+000  0.000000e+000
    outer loop
      vertex  1.040000e+002  1.300000e+000 -9.230000e+001
      vertex  1.040000e+002  8.138241e-001 -9.118366e+001
      vertex  1.040000e+002  2.729697e-001 -9.110932e+001
    endloop
  endfacet
  facet normal  1.000000e+000  0.000000e+000  0.000000e+000
    outer loop
      vertex  1.040000e+002  1.300000e+000 -9.230000e+001
      vertex  1.040000e+002  2.729697e-001 -9.110932e+001
      vertex  1.040000e+002 -2.729697e-001 -9.110932e+001
    endloop
  endfacet
  facet normal  1.000000e+000  0.000000e+000  0.000000e+000
    outer loop
      vertex  1.040000e+002  1.300000e+000 -9.230000e+001
      vertex  1.040000e+002 -2.729697e-001 -9.110932e+001
      vertex  1.040000e+002 -8.138241e-001 -9.118366e+001
    endloop
  endfacet
  facet normal  1.000000e+000  0.000000e+000  0.000000e+000
    outer loop
      vertex  1.040000e+002  1.300000e+000 -9.230000e+001
      vertex  1.040000e+002 -8.138241e-001 -9.118366e+001
      vertex  1.040000e+002 -1.339518e+000 -9.133096e+001
    endloop
  endfacet
  facet normal  1.000000e+000  0.000000e+000  0.000000e+000
    outer loop
      vertex  1.040000e+002  1.300000e+000 -9.230000e+001
      vertex  1.040000e+002 -1.339518e+000 -9.133096e+001
      vertex  1.040000e+002 -1.300000e+000 -9.230000e+001
    endloop
  endfacet
  facet normal  1.000000e+000  0.000000e+000  -0.000000e+000
    outer loop
      vertex  1.040000e+002  1.300000e+000 -9.790000e+001
      vertex  1.040000e+002  2.730213e+000 -9.802335e+001
      vertex  1.040000e+002  3.102845e+000 -9.762435e+001
    endloop
  endfacet
  facet normal  1.000000e+000  0.000000e+000  -0.000000e+000
    outer loop
      vertex  1.040000e+002  1.300000e+000 -9.790000e+001
      vertex  1.040000e+002  3.102845e+000 -9.762435e+001
      vertex  1.040000e+002  3.417678e+000 -9.717834e+001
    endloop
  endfacet
  facet normal  9.999999e-001  0.000000e+000  -0.000000e+000
    outer loop
      vertex  1.040000e+002  1.300000e+000 -9.790000e+001
      vertex  1.040000e+002  3.417678e+000 -9.717834e+001
      vertex  1.040000e+002  3.668845e+000 -9.669360e+001
    endloop
  endfacet
  facet normal  9.999999e-001  0.000000e+000  -0.000000e+000
    outer loop
      vertex  1.040000e+002  1.300000e+000 -9.790000e+001
      vertex  1.040000e+002  3.668845e+000 -9.669360e+001
      vertex  1.040000e+002  3.851669e+000 -9.617918e+001
    endloop
  endfacet
  facet normal  1.000000e+000  0.000000e+000  -0.000000e+000
    outer loop
      vertex  1.040000e+002  1.300000e+000 -9.790000e+001
      vertex  1.040000e+002  3.851669e+000 -9.617918e+001
      vertex  1.040000e+002  3.962744e+000 -9.564467e+001
    endloop
  endfacet
  facet normal  1.000000e+000  0.000000e+000  -0.000000e+000
    outer loop
      vertex  1.040000e+002  1.300000e+000 -9.790000e+001
      vertex  1.040000e+002  3.962744e+000 -9.564467e+001
      vertex  1.040000e+002  4.000000e+000 -9.510000e+001
    endloop
  endfacet
  facet normal  1.000000e+000  0.000000e+000  0.000000e+000
    outer loop
      vertex  1.040000e+002  1.300000e+000 -9.790000e+001
      vertex  1.040000e+002  4.000000e+000 -9.510000e+001
      vertex  1.040000e+002  3.962744e+000 -9.455534e+001
    endloop
  endfacet
  facet normal  1.000000e+000  0.000000e+000  0.000000e+000
    outer loop
      vertex  1.040000e+002  1.300000e+000 -9.790000e+001
      vertex  1.040000e+002  3.962744e+000 -9.455534e+001
      vertex  1.040000e+002  3.851669e+000 -9.402081e+001
    endloop
  endfacet
  facet normal  1.000000e+000  0.000000e+000  0.000000e+000
    outer loop
      vertex  1.040000e+002  1.300000e+000 -9.790000e+001
      vertex  1.040000e+002  3.851669e+000 -9.402081e+001
      vertex  1.040000e+002  3.668845e+000 -9.350639e+001
    endloop
  endfacet
  facet normal  1.000000e+000  0.000000e+000  0.000000e+000
    outer loop
      vertex  1.040000e+002  1.300000e+000 -9.790000e+001
      vertex  1.040000e+002  3.668845e+000 -9.350639e+001
      vertex  1.040000e+002  3.417678e+000 -9.302167e+001
    endloop
  endfacet
  facet normal  1.000000e+000  0.000000e+000  0.000000e+000
    outer loop
      vertex  1.040000e+002  1.300000e+000 -9.790000e+001
      vertex  1.040000e+002  3.417678e+000 -9.302167e+001
      vertex  1.040000e+002  3.102845e+000 -9.257565e+001
    endloop
  endfacet
  facet normal  1.000000e+000  0.000000e+000  0.000000e+000
    outer loop
      vertex  1.040000e+002  8.138241e-001 -9.901633e+001
      vertex  1.040000e+002  1.339518e+000 -9.886904e+001
      vertex  1.040000e+002  1.300000e+000 -9.790000e+001
    endloop
  endfacet
  facet normal  1.000000e+000  0.000000e+000  0.000000e+000
    outer loop
      vertex  1.040000e+002  1.300000e+000 -9.790000e+001
      vertex  1.040000e+002  1.339518e+000 -9.886904e+001
      vertex  1.040000e+002  2.730213e+000 -9.802335e+001
    endloop
  endfacet
  facet normal  1.000000e+000  0.000000e+000  -0.000000e+000
    outer loop
      vertex  1.040000e+002  1.339518e+000 -9.886904e+001
      vertex  1.040000e+002  1.840260e+000 -9.865154e+001
      vertex  1.040000e+002  2.730213e+000 -9.802335e+001
    endloop
  endfacet
  facet normal  1.000000e+000  0.000000e+000  0.000000e+000
    outer loop
      vertex  1.040000e+002  2.730213e+000 -9.802335e+001
      vertex  1.040000e+002  1.840260e+000 -9.865154e+001
      vertex  1.040000e+002  2.306721e+000 -9.836788e+001
    endloop
  endfacet
  facet normal  1.000000e+000  -0.000000e+000  0.000000e+000
    outer loop
      vertex  1.040000e+002 -1.339518e+000 -9.133096e+001
      vertex  1.040000e+002 -1.840260e+000 -9.154846e+001
      vertex  1.040000e+002 -1.300000e+000 -9.230000e+001
    endloop
  endfacet
  facet normal  1.000000e+000  0.000000e+000  0.000000e+000
    outer loop
      vertex  1.040000e+002 -1.300000e+000 -9.230000e+001
      vertex  1.040000e+002 -1.840260e+000 -9.154846e+001
      vertex  1.040000e+002 -2.306721e+000 -9.183212e+001
    endloop
  endfacet
  facet normal  1.000000e+000  0.000000e+000  0.000000e+000
    outer loop
      vertex  1.040000e+002 -1.300000e+000 -9.230000e+001
      vertex  1.040000e+002 -2.306721e+000 -9.183212e+001
      vertex  1.040000e+002 -2.730213e+000 -9.217666e+001
    endloop
  endfacet
endsolid CATIA STL
