solid CATIA STL
  facet normal -1.000000e+000  -0.000000e+000  0.000000e+000
    outer loop
      vertex  1.030000e+002  3.237735e+002  1.023082e+001
      vertex  1.030000e+002  3.264371e+002  1.012626e+001
      vertex  1.030000e+002  3.240388e+002  1.012093e+001
    endloop
  endfacet
  facet normal -1.000000e+000  0.000000e+000  0.000000e+000
    outer loop
      vertex  1.030000e+002  3.245888e+002  9.168304e+000
      vertex  1.030000e+002  3.245514e+002  9.453006e+000
      vertex  1.030000e+002  3.265888e+002  9.168304e+000
    endloop
  endfacet
  facet normal -1.000000e+000  0.000000e+000  0.000000e+000
    outer loop
      vertex  1.030000e+002  3.232041e+002  1.023082e+001
      vertex  1.030000e+002  3.229388e+002  1.012093e+001
      vertex  1.030000e+002  3.205406e+002  1.012626e+001
    endloop
  endfacet
  facet normal -1.000000e+000  -0.000000e+000  0.000000e+000
    outer loop
      vertex  1.030000e+002  3.234888e+002  1.026830e+001
      vertex  1.030000e+002  3.232041e+002  1.023082e+001
      vertex  1.030000e+002  3.205406e+002  1.012626e+001
    endloop
  endfacet
  facet normal -1.000000e+000  0.000000e+000  0.000000e+000
    outer loop
      vertex  1.030000e+002  3.234888e+002  1.026830e+001
      vertex  1.030000e+002  3.205406e+002  1.012626e+001
      vertex  1.030000e+002  3.207267e+002  1.057568e+001
    endloop
  endfacet
  facet normal -1.000000e+000  0.000000e+000  0.000000e+000
    outer loop
      vertex  1.030000e+002  3.234888e+002  1.026830e+001
      vertex  1.030000e+002  3.207267e+002  1.057568e+001
      vertex  1.030000e+002  3.209809e+002  1.099044e+001
    endloop
  endfacet
  facet normal -9.999999e-001  0.000000e+000  0.000000e+000
    outer loop
      vertex  1.030000e+002  3.234888e+002  1.026830e+001
      vertex  1.030000e+002  3.209809e+002  1.099044e+001
      vertex  1.030000e+002  3.212968e+002  1.136034e+001
    endloop
  endfacet
  facet normal -1.000000e+000  0.000000e+000  0.000000e+000
    outer loop
      vertex  1.030000e+002  3.234888e+002  1.026830e+001
      vertex  1.030000e+002  3.212968e+002  1.136034e+001
      vertex  1.030000e+002  3.216667e+002  1.167626e+001
    endloop
  endfacet
  facet normal -1.000000e+000  0.000000e+000  0.000000e+000
    outer loop
      vertex  1.030000e+002  3.234888e+002  1.026830e+001
      vertex  1.030000e+002  3.216667e+002  1.167626e+001
      vertex  1.030000e+002  3.220815e+002  1.193042e+001
    endloop
  endfacet
  facet normal -1.000000e+000  0.000000e+000  0.000000e+000
    outer loop
      vertex  1.030000e+002  3.234888e+002  1.026830e+001
      vertex  1.030000e+002  3.220815e+002  1.193042e+001
      vertex  1.030000e+002  3.225309e+002  1.211658e+001
    endloop
  endfacet
  facet normal -1.000000e+000  0.000000e+000  0.000000e+000
    outer loop
      vertex  1.030000e+002  3.234888e+002  1.026830e+001
      vertex  1.030000e+002  3.225309e+002  1.211658e+001
      vertex  1.030000e+002  3.230039e+002  1.223014e+001
    endloop
  endfacet
  facet normal -1.000000e+000  0.000000e+000  0.000000e+000
    outer loop
      vertex  1.030000e+002  3.234888e+002  1.026830e+001
      vertex  1.030000e+002  3.230039e+002  1.223014e+001
      vertex  1.030000e+002  3.234888e+002  1.226830e+001
    endloop
  endfacet
  facet normal -1.000000e+000  0.000000e+000  0.000000e+000
    outer loop
      vertex  1.030000e+002  3.234888e+002  1.026830e+001
      vertex  1.030000e+002  3.234888e+002  1.226830e+001
      vertex  1.030000e+002  3.239738e+002  1.223014e+001
    endloop
  endfacet
  facet normal -1.000000e+000  0.000000e+000  -0.000000e+000
    outer loop
      vertex  1.030000e+002  3.234888e+002  1.026830e+001
      vertex  1.030000e+002  3.239738e+002  1.223014e+001
      vertex  1.030000e+002  3.244468e+002  1.211658e+001
    endloop
  endfacet
  facet normal -1.000000e+000  0.000000e+000  -0.000000e+000
    outer loop
      vertex  1.030000e+002  3.234888e+002  1.026830e+001
      vertex  1.030000e+002  3.244468e+002  1.211658e+001
      vertex  1.030000e+002  3.248962e+002  1.193042e+001
    endloop
  endfacet
  facet normal -1.000000e+000  0.000000e+000  -0.000000e+000
    outer loop
      vertex  1.030000e+002  3.234888e+002  1.026830e+001
      vertex  1.030000e+002  3.248962e+002  1.193042e+001
      vertex  1.030000e+002  3.253110e+002  1.167626e+001
    endloop
  endfacet
  facet normal -1.000000e+000  0.000000e+000  -0.000000e+000
    outer loop
      vertex  1.030000e+002  3.234888e+002  1.026830e+001
      vertex  1.030000e+002  3.253110e+002  1.167626e+001
      vertex  1.030000e+002  3.256809e+002  1.136034e+001
    endloop
  endfacet
  facet normal -1.000000e+000  0.000000e+000  -0.000000e+000
    outer loop
      vertex  1.030000e+002  3.234888e+002  1.026830e+001
      vertex  1.030000e+002  3.256809e+002  1.136034e+001
      vertex  1.030000e+002  3.259968e+002  1.099044e+001
    endloop
  endfacet
  facet normal -1.000000e+000  0.000000e+000  -0.000000e+000
    outer loop
      vertex  1.030000e+002  3.234888e+002  1.026830e+001
      vertex  1.030000e+002  3.259968e+002  1.099044e+001
      vertex  1.030000e+002  3.262510e+002  1.057568e+001
    endloop
  endfacet
  facet normal -1.000000e+000  0.000000e+000  -0.000000e+000
    outer loop
      vertex  1.030000e+002  3.234888e+002  1.026830e+001
      vertex  1.030000e+002  3.262510e+002  1.057568e+001
      vertex  1.030000e+002  3.264371e+002  1.012626e+001
    endloop
  endfacet
  facet normal -1.000000e+000  0.000000e+000  0.000000e+000
    outer loop
      vertex  1.030000e+002  3.234888e+002  1.026830e+001
      vertex  1.030000e+002  3.264371e+002  1.012626e+001
      vertex  1.030000e+002  3.237735e+002  1.023082e+001
    endloop
  endfacet
  facet normal -1.000000e+000  0.000000e+000  0.000000e+000
    outer loop
      vertex  1.030000e+002  3.265507e+002  9.653252e+000
      vertex  1.030000e+002  3.265888e+002  9.168304e+000
      vertex  1.030000e+002  3.245514e+002  9.453006e+000
    endloop
  endfacet
  facet normal -1.000000e+000  0.000000e+000  0.000000e+000
    outer loop
      vertex  1.030000e+002  3.265507e+002  9.653252e+000
      vertex  1.030000e+002  3.245514e+002  9.453006e+000
      vertex  1.030000e+002  3.244415e+002  9.718305e+000
    endloop
  endfacet
  facet normal -9.999999e-001  0.000000e+000  0.000000e+000
    outer loop
      vertex  1.030000e+002  3.265507e+002  9.653252e+000
      vertex  1.030000e+002  3.244415e+002  9.718305e+000
      vertex  1.030000e+002  3.242667e+002  9.946122e+000
    endloop
  endfacet
  facet normal -1.000000e+000  0.000000e+000  0.000000e+000
    outer loop
      vertex  1.030000e+002  3.265507e+002  9.653252e+000
      vertex  1.030000e+002  3.242667e+002  9.946122e+000
      vertex  1.030000e+002  3.240388e+002  1.012093e+001
    endloop
  endfacet
  facet normal -1.000000e+000  0.000000e+000  0.000000e+000
    outer loop
      vertex  1.030000e+002  3.265507e+002  9.653252e+000
      vertex  1.030000e+002  3.240388e+002  1.012093e+001
      vertex  1.030000e+002  3.264371e+002  1.012626e+001
    endloop
  endfacet
  facet normal -1.000000e+000  0.000000e+000  0.000000e+000
    outer loop
      vertex  1.030000e+002  3.264371e+002  8.210352e+000
      vertex  1.030000e+002  3.240388e+002  8.215676e+000
      vertex  1.030000e+002  3.242667e+002  8.390487e+000
    endloop
  endfacet
  facet normal -1.000000e+000  0.000000e+000  0.000000e+000
    outer loop
      vertex  1.030000e+002  3.264371e+002  8.210352e+000
      vertex  1.030000e+002  3.242667e+002  8.390487e+000
      vertex  1.030000e+002  3.244415e+002  8.618304e+000
    endloop
  endfacet
  facet normal -9.999999e-001  0.000000e+000  0.000000e+000
    outer loop
      vertex  1.030000e+002  3.264371e+002  8.210352e+000
      vertex  1.030000e+002  3.244415e+002  8.618304e+000
      vertex  1.030000e+002  3.265507e+002  8.683358e+000
    endloop
  endfacet
  facet normal -1.000000e+000  0.000000e+000  0.000000e+000
    outer loop
      vertex  1.030000e+002  3.234888e+002  6.068305e+000
      vertex  1.030000e+002  3.262510e+002  7.760934e+000
      vertex  1.030000e+002  3.259968e+002  7.346170e+000
    endloop
  endfacet
  facet normal -1.000000e+000  0.000000e+000  0.000000e+000
    outer loop
      vertex  1.030000e+002  3.234888e+002  6.068305e+000
      vertex  1.030000e+002  3.259968e+002  7.346170e+000
      vertex  1.030000e+002  3.256809e+002  6.976274e+000
    endloop
  endfacet
  facet normal -1.000000e+000  0.000000e+000  0.000000e+000
    outer loop
      vertex  1.030000e+002  3.234888e+002  6.068305e+000
      vertex  1.030000e+002  3.256809e+002  6.976274e+000
      vertex  1.030000e+002  3.253110e+002  6.660352e+000
    endloop
  endfacet
  facet normal -1.000000e+000  0.000000e+000  0.000000e+000
    outer loop
      vertex  1.030000e+002  3.234888e+002  6.068305e+000
      vertex  1.030000e+002  3.253110e+002  6.660352e+000
      vertex  1.030000e+002  3.248962e+002  6.406184e+000
    endloop
  endfacet
  facet normal -1.000000e+000  0.000000e+000  0.000000e+000
    outer loop
      vertex  1.030000e+002  3.234888e+002  6.068305e+000
      vertex  1.030000e+002  3.248962e+002  6.406184e+000
      vertex  1.030000e+002  3.244468e+002  6.220029e+000
    endloop
  endfacet
  facet normal -1.000000e+000  0.000000e+000  0.000000e+000
    outer loop
      vertex  1.030000e+002  3.234888e+002  6.068305e+000
      vertex  1.030000e+002  3.244468e+002  6.220029e+000
      vertex  1.030000e+002  3.239738e+002  6.106471e+000
    endloop
  endfacet
  facet normal -1.000000e+000  0.000000e+000  0.000000e+000
    outer loop
      vertex  1.030000e+002  3.234888e+002  6.068305e+000
      vertex  1.030000e+002  3.230039e+002  6.106471e+000
      vertex  1.030000e+002  3.225309e+002  6.220029e+000
    endloop
  endfacet
  facet normal -9.999999e-001  0.000000e+000  0.000000e+000
    outer loop
      vertex  1.030000e+002  3.234888e+002  6.068305e+000
      vertex  1.030000e+002  3.225309e+002  6.220029e+000
      vertex  1.030000e+002  3.220815e+002  6.406184e+000
    endloop
  endfacet
  facet normal -1.000000e+000  0.000000e+000  0.000000e+000
    outer loop
      vertex  1.030000e+002  3.234888e+002  6.068305e+000
      vertex  1.030000e+002  3.220815e+002  6.406184e+000
      vertex  1.030000e+002  3.216667e+002  6.660352e+000
    endloop
  endfacet
  facet normal -1.000000e+000  0.000000e+000  0.000000e+000
    outer loop
      vertex  1.030000e+002  3.234888e+002  6.068305e+000
      vertex  1.030000e+002  3.216667e+002  6.660352e+000
      vertex  1.030000e+002  3.212968e+002  6.976274e+000
    endloop
  endfacet
  facet normal -1.000000e+000  0.000000e+000  0.000000e+000
    outer loop
      vertex  1.030000e+002  3.234888e+002  6.068305e+000
      vertex  1.030000e+002  3.212968e+002  6.976274e+000
      vertex  1.030000e+002  3.209809e+002  7.346170e+000
    endloop
  endfacet
  facet normal -1.000000e+000  0.000000e+000  0.000000e+000
    outer loop
      vertex  1.030000e+002  3.234888e+002  6.068305e+000
      vertex  1.030000e+002  3.209809e+002  7.346170e+000
      vertex  1.030000e+002  3.207267e+002  7.760934e+000
    endloop
  endfacet
  facet normal -1.000000e+000  -0.000000e+000  0.000000e+000
    outer loop
      vertex  1.030000e+002  3.245888e+002  9.168304e+000
      vertex  1.030000e+002  3.265888e+002  9.168304e+000
      vertex  1.030000e+002  3.245514e+002  8.883604e+000
    endloop
  endfacet
  facet normal -1.000000e+000  0.000000e+000  0.000000e+000
    outer loop
      vertex  1.030000e+002  3.245514e+002  8.883604e+000
      vertex  1.030000e+002  3.265888e+002  9.168304e+000
      vertex  1.030000e+002  3.265507e+002  8.683358e+000
    endloop
  endfacet
  facet normal -1.000000e+000  -0.000000e+000  0.000000e+000
    outer loop
      vertex  1.030000e+002  3.245514e+002  8.883604e+000
      vertex  1.030000e+002  3.265507e+002  8.683358e+000
      vertex  1.030000e+002  3.244415e+002  8.618304e+000
    endloop
  endfacet
  facet normal -1.000000e+000  -0.000000e+000  0.000000e+000
    outer loop
      vertex  1.030000e+002  3.240388e+002  8.215676e+000
      vertex  1.030000e+002  3.264371e+002  8.210352e+000
      vertex  1.030000e+002  3.237735e+002  8.105786e+000
    endloop
  endfacet
  facet normal -1.000000e+000  0.000000e+000  0.000000e+000
    outer loop
      vertex  1.030000e+002  3.237735e+002  8.105786e+000
      vertex  1.030000e+002  3.264371e+002  8.210352e+000
      vertex  1.030000e+002  3.262510e+002  7.760934e+000
    endloop
  endfacet
  facet normal -1.000000e+000  0.000000e+000  0.000000e+000
    outer loop
      vertex  1.030000e+002  3.237735e+002  8.105786e+000
      vertex  1.030000e+002  3.262510e+002  7.760934e+000
      vertex  1.030000e+002  3.234888e+002  8.068305e+000
    endloop
  endfacet
  facet normal -1.000000e+000  0.000000e+000  0.000000e+000
    outer loop
      vertex  1.030000e+002  3.234888e+002  8.068305e+000
      vertex  1.030000e+002  3.262510e+002  7.760934e+000
      vertex  1.030000e+002  3.234888e+002  6.068305e+000
    endloop
  endfacet
  facet normal -1.000000e+000  0.000000e+000  0.000000e+000
    outer loop
      vertex  1.030000e+002  3.234888e+002  8.068305e+000
      vertex  1.030000e+002  3.234888e+002  6.068305e+000
      vertex  1.030000e+002  3.232041e+002  8.105786e+000
    endloop
  endfacet
  facet normal -1.000000e+000  0.000000e+000  -0.000000e+000
    outer loop
      vertex  1.030000e+002  3.232041e+002  8.105786e+000
      vertex  1.030000e+002  3.234888e+002  6.068305e+000
      vertex  1.030000e+002  3.207267e+002  7.760934e+000
    endloop
  endfacet
  facet normal -1.000000e+000  0.000000e+000  0.000000e+000
    outer loop
      vertex  1.030000e+002  3.232041e+002  8.105786e+000
      vertex  1.030000e+002  3.207267e+002  7.760934e+000
      vertex  1.030000e+002  3.229388e+002  8.215676e+000
    endloop
  endfacet
  facet normal -1.000000e+000  0.000000e+000  0.000000e+000
    outer loop
      vertex  1.030000e+002  3.229388e+002  8.215676e+000
      vertex  1.030000e+002  3.207267e+002  7.760934e+000
      vertex  1.030000e+002  3.205406e+002  8.210352e+000
    endloop
  endfacet
  facet normal -1.000000e+000  0.000000e+000  0.000000e+000
    outer loop
      vertex  1.030000e+002  3.229388e+002  8.215676e+000
      vertex  1.030000e+002  3.205406e+002  8.210352e+000
      vertex  1.030000e+002  3.227110e+002  8.390487e+000
    endloop
  endfacet
  facet normal -1.000000e+000  -0.000000e+000  0.000000e+000
    outer loop
      vertex  1.030000e+002  3.205406e+002  1.012626e+001
      vertex  1.030000e+002  3.229388e+002  1.012093e+001
      vertex  1.030000e+002  3.204270e+002  9.653252e+000
    endloop
  endfacet
  facet normal -1.000000e+000  0.000000e+000  0.000000e+000
    outer loop
      vertex  1.030000e+002  3.204270e+002  9.653252e+000
      vertex  1.030000e+002  3.229388e+002  1.012093e+001
      vertex  1.030000e+002  3.227110e+002  9.946122e+000
    endloop
  endfacet
  facet normal -9.999999e-001  0.000000e+000  0.000000e+000
    outer loop
      vertex  1.030000e+002  3.204270e+002  9.653252e+000
      vertex  1.030000e+002  3.227110e+002  9.946122e+000
      vertex  1.030000e+002  3.225362e+002  9.718305e+000
    endloop
  endfacet
  facet normal -1.000000e+000  0.000000e+000  0.000000e+000
    outer loop
      vertex  1.030000e+002  3.204270e+002  9.653252e+000
      vertex  1.030000e+002  3.225362e+002  9.718305e+000
      vertex  1.030000e+002  3.203889e+002  9.168304e+000
    endloop
  endfacet
  facet normal -1.000000e+000  0.000000e+000  0.000000e+000
    outer loop
      vertex  1.030000e+002  3.203889e+002  9.168304e+000
      vertex  1.030000e+002  3.225362e+002  9.718305e+000
      vertex  1.030000e+002  3.224263e+002  9.453006e+000
    endloop
  endfacet
  facet normal -1.000000e+000  0.000000e+000  0.000000e+000
    outer loop
      vertex  1.030000e+002  3.203889e+002  9.168304e+000
      vertex  1.030000e+002  3.224263e+002  9.453006e+000
      vertex  1.030000e+002  3.223889e+002  9.168304e+000
    endloop
  endfacet
  facet normal -1.000000e+000  -0.000000e+000  0.000000e+000
    outer loop
      vertex  1.030000e+002  3.203889e+002  9.168304e+000
      vertex  1.030000e+002  3.223889e+002  9.168304e+000
      vertex  1.030000e+002  3.204270e+002  8.683358e+000
    endloop
  endfacet
  facet normal -1.000000e+000  0.000000e+000  0.000000e+000
    outer loop
      vertex  1.030000e+002  3.204270e+002  8.683358e+000
      vertex  1.030000e+002  3.223889e+002  9.168304e+000
      vertex  1.030000e+002  3.224263e+002  8.883604e+000
    endloop
  endfacet
  facet normal -1.000000e+000  0.000000e+000  -0.000000e+000
    outer loop
      vertex  1.030000e+002  3.204270e+002  8.683358e+000
      vertex  1.030000e+002  3.224263e+002  8.883604e+000
      vertex  1.030000e+002  3.225362e+002  8.618304e+000
    endloop
  endfacet
  facet normal -1.000000e+000  0.000000e+000  0.000000e+000
    outer loop
      vertex  1.030000e+002  3.225362e+002  8.618304e+000
      vertex  1.030000e+002  3.227110e+002  8.390487e+000
      vertex  1.030000e+002  3.204270e+002  8.683358e+000
    endloop
  endfacet
  facet normal -1.000000e+000  0.000000e+000  0.000000e+000
    outer loop
      vertex  1.030000e+002  3.204270e+002  8.683358e+000
      vertex  1.030000e+002  3.227110e+002  8.390487e+000
      vertex  1.030000e+002  3.205406e+002  8.210352e+000
    endloop
  endfacet
  facet normal  1.000000e+000  0.000000e+000  0.000000e+000
    outer loop
      vertex  1.050000e+002  3.240388e+002  1.012093e+001
      vertex  1.050000e+002  3.264371e+002  1.012626e+001
      vertex  1.050000e+002  3.237735e+002  1.023082e+001
    endloop
  endfacet
  facet normal  1.000000e+000  0.000000e+000  0.000000e+000
    outer loop
      vertex  1.050000e+002  3.265888e+002  9.168304e+000
      vertex  1.050000e+002  3.245514e+002  9.453006e+000
      vertex  1.050000e+002  3.245888e+002  9.168304e+000
    endloop
  endfacet
  facet normal  1.000000e+000  0.000000e+000  -0.000000e+000
    outer loop
      vertex  1.050000e+002  3.205406e+002  1.012626e+001
      vertex  1.050000e+002  3.229388e+002  1.012093e+001
      vertex  1.050000e+002  3.232041e+002  1.023082e+001
    endloop
  endfacet
  facet normal  1.000000e+000  -0.000000e+000  -0.000000e+000
    outer loop
      vertex  1.050000e+002  3.234888e+002  1.026830e+001
      vertex  1.050000e+002  3.237735e+002  1.023082e+001
      vertex  1.050000e+002  3.264371e+002  1.012626e+001
    endloop
  endfacet
  facet normal  1.000000e+000  0.000000e+000  0.000000e+000
    outer loop
      vertex  1.050000e+002  3.234888e+002  1.026830e+001
      vertex  1.050000e+002  3.264371e+002  1.012626e+001
      vertex  1.050000e+002  3.262510e+002  1.057568e+001
    endloop
  endfacet
  facet normal  1.000000e+000  0.000000e+000  0.000000e+000
    outer loop
      vertex  1.050000e+002  3.234888e+002  1.026830e+001
      vertex  1.050000e+002  3.262510e+002  1.057568e+001
      vertex  1.050000e+002  3.259968e+002  1.099044e+001
    endloop
  endfacet
  facet normal  1.000000e+000  0.000000e+000  0.000000e+000
    outer loop
      vertex  1.050000e+002  3.234888e+002  1.026830e+001
      vertex  1.050000e+002  3.259968e+002  1.099044e+001
      vertex  1.050000e+002  3.256809e+002  1.136034e+001
    endloop
  endfacet
  facet normal  1.000000e+000  0.000000e+000  0.000000e+000
    outer loop
      vertex  1.050000e+002  3.234888e+002  1.026830e+001
      vertex  1.050000e+002  3.256809e+002  1.136034e+001
      vertex  1.050000e+002  3.253110e+002  1.167626e+001
    endloop
  endfacet
  facet normal  1.000000e+000  0.000000e+000  0.000000e+000
    outer loop
      vertex  1.050000e+002  3.234888e+002  1.026830e+001
      vertex  1.050000e+002  3.253110e+002  1.167626e+001
      vertex  1.050000e+002  3.248962e+002  1.193042e+001
    endloop
  endfacet
  facet normal  1.000000e+000  0.000000e+000  0.000000e+000
    outer loop
      vertex  1.050000e+002  3.234888e+002  1.026830e+001
      vertex  1.050000e+002  3.248962e+002  1.193042e+001
      vertex  1.050000e+002  3.244468e+002  1.211658e+001
    endloop
  endfacet
  facet normal  1.000000e+000  0.000000e+000  0.000000e+000
    outer loop
      vertex  1.050000e+002  3.234888e+002  1.026830e+001
      vertex  1.050000e+002  3.244468e+002  1.211658e+001
      vertex  1.050000e+002  3.239738e+002  1.223014e+001
    endloop
  endfacet
  facet normal  1.000000e+000  0.000000e+000  0.000000e+000
    outer loop
      vertex  1.050000e+002  3.234888e+002  1.026830e+001
      vertex  1.050000e+002  3.239738e+002  1.223014e+001
      vertex  1.050000e+002  3.234888e+002  1.226830e+001
    endloop
  endfacet
  facet normal  1.000000e+000  0.000000e+000  0.000000e+000
    outer loop
      vertex  1.050000e+002  3.234888e+002  1.026830e+001
      vertex  1.050000e+002  3.234888e+002  1.226830e+001
      vertex  1.050000e+002  3.230039e+002  1.223014e+001
    endloop
  endfacet
  facet normal  1.000000e+000  0.000000e+000  0.000000e+000
    outer loop
      vertex  1.050000e+002  3.234888e+002  1.026830e+001
      vertex  1.050000e+002  3.230039e+002  1.223014e+001
      vertex  1.050000e+002  3.225309e+002  1.211658e+001
    endloop
  endfacet
  facet normal  1.000000e+000  0.000000e+000  0.000000e+000
    outer loop
      vertex  1.050000e+002  3.234888e+002  1.026830e+001
      vertex  1.050000e+002  3.225309e+002  1.211658e+001
      vertex  1.050000e+002  3.220815e+002  1.193042e+001
    endloop
  endfacet
  facet normal  1.000000e+000  0.000000e+000  0.000000e+000
    outer loop
      vertex  1.050000e+002  3.234888e+002  1.026830e+001
      vertex  1.050000e+002  3.220815e+002  1.193042e+001
      vertex  1.050000e+002  3.216667e+002  1.167626e+001
    endloop
  endfacet
  facet normal  1.000000e+000  0.000000e+000  0.000000e+000
    outer loop
      vertex  1.050000e+002  3.234888e+002  1.026830e+001
      vertex  1.050000e+002  3.216667e+002  1.167626e+001
      vertex  1.050000e+002  3.212968e+002  1.136034e+001
    endloop
  endfacet
  facet normal  9.999999e-001  0.000000e+000  0.000000e+000
    outer loop
      vertex  1.050000e+002  3.234888e+002  1.026830e+001
      vertex  1.050000e+002  3.212968e+002  1.136034e+001
      vertex  1.050000e+002  3.209809e+002  1.099044e+001
    endloop
  endfacet
  facet normal  1.000000e+000  0.000000e+000  0.000000e+000
    outer loop
      vertex  1.050000e+002  3.234888e+002  1.026830e+001
      vertex  1.050000e+002  3.209809e+002  1.099044e+001
      vertex  1.050000e+002  3.207267e+002  1.057568e+001
    endloop
  endfacet
  facet normal  1.000000e+000  0.000000e+000  0.000000e+000
    outer loop
      vertex  1.050000e+002  3.234888e+002  1.026830e+001
      vertex  1.050000e+002  3.207267e+002  1.057568e+001
      vertex  1.050000e+002  3.205406e+002  1.012626e+001
    endloop
  endfacet
  facet normal  1.000000e+000  0.000000e+000  0.000000e+000
    outer loop
      vertex  1.050000e+002  3.234888e+002  1.026830e+001
      vertex  1.050000e+002  3.205406e+002  1.012626e+001
      vertex  1.050000e+002  3.232041e+002  1.023082e+001
    endloop
  endfacet
  facet normal  1.000000e+000  0.000000e+000  0.000000e+000
    outer loop
      vertex  1.050000e+002  3.265507e+002  9.653252e+000
      vertex  1.050000e+002  3.264371e+002  1.012626e+001
      vertex  1.050000e+002  3.240388e+002  1.012093e+001
    endloop
  endfacet
  facet normal  1.000000e+000  0.000000e+000  0.000000e+000
    outer loop
      vertex  1.050000e+002  3.265507e+002  9.653252e+000
      vertex  1.050000e+002  3.240388e+002  1.012093e+001
      vertex  1.050000e+002  3.242667e+002  9.946122e+000
    endloop
  endfacet
  facet normal  9.999999e-001  0.000000e+000  0.000000e+000
    outer loop
      vertex  1.050000e+002  3.265507e+002  9.653252e+000
      vertex  1.050000e+002  3.242667e+002  9.946122e+000
      vertex  1.050000e+002  3.244415e+002  9.718305e+000
    endloop
  endfacet
  facet normal  1.000000e+000  0.000000e+000  0.000000e+000
    outer loop
      vertex  1.050000e+002  3.265507e+002  9.653252e+000
      vertex  1.050000e+002  3.244415e+002  9.718305e+000
      vertex  1.050000e+002  3.245514e+002  9.453006e+000
    endloop
  endfacet
  facet normal  1.000000e+000  -0.000000e+000  0.000000e+000
    outer loop
      vertex  1.050000e+002  3.265507e+002  9.653252e+000
      vertex  1.050000e+002  3.245514e+002  9.453006e+000
      vertex  1.050000e+002  3.265888e+002  9.168304e+000
    endloop
  endfacet
  facet normal  9.999999e-001  0.000000e+000  0.000000e+000
    outer loop
      vertex  1.050000e+002  3.264371e+002  8.210352e+000
      vertex  1.050000e+002  3.265507e+002  8.683358e+000
      vertex  1.050000e+002  3.244415e+002  8.618304e+000
    endloop
  endfacet
  facet normal  1.000000e+000  0.000000e+000  0.000000e+000
    outer loop
      vertex  1.050000e+002  3.264371e+002  8.210352e+000
      vertex  1.050000e+002  3.244415e+002  8.618304e+000
      vertex  1.050000e+002  3.242667e+002  8.390487e+000
    endloop
  endfacet
  facet normal  1.000000e+000  0.000000e+000  0.000000e+000
    outer loop
      vertex  1.050000e+002  3.264371e+002  8.210352e+000
      vertex  1.050000e+002  3.242667e+002  8.390487e+000
      vertex  1.050000e+002  3.240388e+002  8.215676e+000
    endloop
  endfacet
  facet normal  1.000000e+000  0.000000e+000  -0.000000e+000
    outer loop
      vertex  1.050000e+002  3.234888e+002  6.068305e+000
      vertex  1.050000e+002  3.239738e+002  6.106471e+000
      vertex  1.050000e+002  3.244468e+002  6.220029e+000
    endloop
  endfacet
  facet normal  1.000000e+000  0.000000e+000  -0.000000e+000
    outer loop
      vertex  1.050000e+002  3.234888e+002  6.068305e+000
      vertex  1.050000e+002  3.244468e+002  6.220029e+000
      vertex  1.050000e+002  3.248962e+002  6.406184e+000
    endloop
  endfacet
  facet normal  1.000000e+000  0.000000e+000  -0.000000e+000
    outer loop
      vertex  1.050000e+002  3.234888e+002  6.068305e+000
      vertex  1.050000e+002  3.248962e+002  6.406184e+000
      vertex  1.050000e+002  3.253110e+002  6.660352e+000
    endloop
  endfacet
  facet normal  1.000000e+000  0.000000e+000  -0.000000e+000
    outer loop
      vertex  1.050000e+002  3.234888e+002  6.068305e+000
      vertex  1.050000e+002  3.253110e+002  6.660352e+000
      vertex  1.050000e+002  3.256809e+002  6.976274e+000
    endloop
  endfacet
  facet normal  1.000000e+000  0.000000e+000  -0.000000e+000
    outer loop
      vertex  1.050000e+002  3.234888e+002  6.068305e+000
      vertex  1.050000e+002  3.256809e+002  6.976274e+000
      vertex  1.050000e+002  3.259968e+002  7.346170e+000
    endloop
  endfacet
  facet normal  1.000000e+000  0.000000e+000  -0.000000e+000
    outer loop
      vertex  1.050000e+002  3.234888e+002  6.068305e+000
      vertex  1.050000e+002  3.259968e+002  7.346170e+000
      vertex  1.050000e+002  3.262510e+002  7.760934e+000
    endloop
  endfacet
  facet normal  1.000000e+000  0.000000e+000  0.000000e+000
    outer loop
      vertex  1.050000e+002  3.234888e+002  6.068305e+000
      vertex  1.050000e+002  3.207267e+002  7.760934e+000
      vertex  1.050000e+002  3.209809e+002  7.346170e+000
    endloop
  endfacet
  facet normal  1.000000e+000  0.000000e+000  0.000000e+000
    outer loop
      vertex  1.050000e+002  3.234888e+002  6.068305e+000
      vertex  1.050000e+002  3.209809e+002  7.346170e+000
      vertex  1.050000e+002  3.212968e+002  6.976274e+000
    endloop
  endfacet
  facet normal  1.000000e+000  0.000000e+000  0.000000e+000
    outer loop
      vertex  1.050000e+002  3.234888e+002  6.068305e+000
      vertex  1.050000e+002  3.212968e+002  6.976274e+000
      vertex  1.050000e+002  3.216667e+002  6.660352e+000
    endloop
  endfacet
  facet normal  1.000000e+000  0.000000e+000  0.000000e+000
    outer loop
      vertex  1.050000e+002  3.234888e+002  6.068305e+000
      vertex  1.050000e+002  3.216667e+002  6.660352e+000
      vertex  1.050000e+002  3.220815e+002  6.406184e+000
    endloop
  endfacet
  facet normal  9.999999e-001  0.000000e+000  0.000000e+000
    outer loop
      vertex  1.050000e+002  3.234888e+002  6.068305e+000
      vertex  1.050000e+002  3.220815e+002  6.406184e+000
      vertex  1.050000e+002  3.225309e+002  6.220029e+000
    endloop
  endfacet
  facet normal  1.000000e+000  0.000000e+000  0.000000e+000
    outer loop
      vertex  1.050000e+002  3.234888e+002  6.068305e+000
      vertex  1.050000e+002  3.225309e+002  6.220029e+000
      vertex  1.050000e+002  3.230039e+002  6.106471e+000
    endloop
  endfacet
  facet normal  1.000000e+000  0.000000e+000  0.000000e+000
    outer loop
      vertex  1.050000e+002  3.244415e+002  8.618304e+000
      vertex  1.050000e+002  3.265507e+002  8.683358e+000
      vertex  1.050000e+002  3.245514e+002  8.883604e+000
    endloop
  endfacet
  facet normal  1.000000e+000  -0.000000e+000  0.000000e+000
    outer loop
      vertex  1.050000e+002  3.245514e+002  8.883604e+000
      vertex  1.050000e+002  3.265507e+002  8.683358e+000
      vertex  1.050000e+002  3.265888e+002  9.168304e+000
    endloop
  endfacet
  facet normal  1.000000e+000  0.000000e+000  0.000000e+000
    outer loop
      vertex  1.050000e+002  3.245514e+002  8.883604e+000
      vertex  1.050000e+002  3.265888e+002  9.168304e+000
      vertex  1.050000e+002  3.245888e+002  9.168304e+000
    endloop
  endfacet
  facet normal  1.000000e+000  0.000000e+000  0.000000e+000
    outer loop
      vertex  1.050000e+002  3.227110e+002  8.390487e+000
      vertex  1.050000e+002  3.205406e+002  8.210352e+000
      vertex  1.050000e+002  3.229388e+002  8.215676e+000
    endloop
  endfacet
  facet normal  1.000000e+000  0.000000e+000  0.000000e+000
    outer loop
      vertex  1.050000e+002  3.229388e+002  8.215676e+000
      vertex  1.050000e+002  3.205406e+002  8.210352e+000
      vertex  1.050000e+002  3.207267e+002  7.760934e+000
    endloop
  endfacet
  facet normal  1.000000e+000  0.000000e+000  0.000000e+000
    outer loop
      vertex  1.050000e+002  3.229388e+002  8.215676e+000
      vertex  1.050000e+002  3.207267e+002  7.760934e+000
      vertex  1.050000e+002  3.232041e+002  8.105786e+000
    endloop
  endfacet
  facet normal  1.000000e+000  0.000000e+000  0.000000e+000
    outer loop
      vertex  1.050000e+002  3.232041e+002  8.105786e+000
      vertex  1.050000e+002  3.207267e+002  7.760934e+000
      vertex  1.050000e+002  3.234888e+002  6.068305e+000
    endloop
  endfacet
  facet normal  1.000000e+000  0.000000e+000  -0.000000e+000
    outer loop
      vertex  1.050000e+002  3.232041e+002  8.105786e+000
      vertex  1.050000e+002  3.234888e+002  6.068305e+000
      vertex  1.050000e+002  3.234888e+002  8.068305e+000
    endloop
  endfacet
  facet normal  1.000000e+000  0.000000e+000  0.000000e+000
    outer loop
      vertex  1.050000e+002  3.234888e+002  8.068305e+000
      vertex  1.050000e+002  3.234888e+002  6.068305e+000
      vertex  1.050000e+002  3.262510e+002  7.760934e+000
    endloop
  endfacet
  facet normal  1.000000e+000  0.000000e+000  0.000000e+000
    outer loop
      vertex  1.050000e+002  3.234888e+002  8.068305e+000
      vertex  1.050000e+002  3.262510e+002  7.760934e+000
      vertex  1.050000e+002  3.237735e+002  8.105786e+000
    endloop
  endfacet
  facet normal  1.000000e+000  -0.000000e+000  0.000000e+000
    outer loop
      vertex  1.050000e+002  3.237735e+002  8.105786e+000
      vertex  1.050000e+002  3.262510e+002  7.760934e+000
      vertex  1.050000e+002  3.264371e+002  8.210352e+000
    endloop
  endfacet
  facet normal  1.000000e+000  0.000000e+000  0.000000e+000
    outer loop
      vertex  1.050000e+002  3.237735e+002  8.105786e+000
      vertex  1.050000e+002  3.264371e+002  8.210352e+000
      vertex  1.050000e+002  3.240388e+002  8.215676e+000
    endloop
  endfacet
  facet normal  9.999999e-001  0.000000e+000  0.000000e+000
    outer loop
      vertex  1.050000e+002  3.225362e+002  9.718305e+000
      vertex  1.050000e+002  3.227110e+002  9.946122e+000
      vertex  1.050000e+002  3.204270e+002  9.653252e+000
    endloop
  endfacet
  facet normal  1.000000e+000  0.000000e+000  0.000000e+000
    outer loop
      vertex  1.050000e+002  3.204270e+002  9.653252e+000
      vertex  1.050000e+002  3.227110e+002  9.946122e+000
      vertex  1.050000e+002  3.229388e+002  1.012093e+001
    endloop
  endfacet
  facet normal  1.000000e+000  0.000000e+000  0.000000e+000
    outer loop
      vertex  1.050000e+002  3.204270e+002  9.653252e+000
      vertex  1.050000e+002  3.229388e+002  1.012093e+001
      vertex  1.050000e+002  3.205406e+002  1.012626e+001
    endloop
  endfacet
  facet normal  1.000000e+000  0.000000e+000  0.000000e+000
    outer loop
      vertex  1.050000e+002  3.223889e+002  9.168304e+000
      vertex  1.050000e+002  3.224263e+002  9.453006e+000
      vertex  1.050000e+002  3.203889e+002  9.168304e+000
    endloop
  endfacet
  facet normal  1.000000e+000  0.000000e+000  0.000000e+000
    outer loop
      vertex  1.050000e+002  3.203889e+002  9.168304e+000
      vertex  1.050000e+002  3.224263e+002  9.453006e+000
      vertex  1.050000e+002  3.225362e+002  9.718305e+000
    endloop
  endfacet
  facet normal  1.000000e+000  0.000000e+000  0.000000e+000
    outer loop
      vertex  1.050000e+002  3.203889e+002  9.168304e+000
      vertex  1.050000e+002  3.225362e+002  9.718305e+000
      vertex  1.050000e+002  3.204270e+002  9.653252e+000
    endloop
  endfacet
  facet normal  1.000000e+000  0.000000e+000  0.000000e+000
    outer loop
      vertex  1.050000e+002  3.225362e+002  8.618304e+000
      vertex  1.050000e+002  3.224263e+002  8.883604e+000
      vertex  1.050000e+002  3.204270e+002  8.683358e+000
    endloop
  endfacet
  facet normal  1.000000e+000  0.000000e+000  0.000000e+000
    outer loop
      vertex  1.050000e+002  3.204270e+002  8.683358e+000
      vertex  1.050000e+002  3.224263e+002  8.883604e+000
      vertex  1.050000e+002  3.223889e+002  9.168304e+000
    endloop
  endfacet
  facet normal  1.000000e+000  0.000000e+000  0.000000e+000
    outer loop
      vertex  1.050000e+002  3.204270e+002  8.683358e+000
      vertex  1.050000e+002  3.223889e+002  9.168304e+000
      vertex  1.050000e+002  3.203889e+002  9.168304e+000
    endloop
  endfacet
  facet normal  1.000000e+000  0.000000e+000  0.000000e+000
    outer loop
      vertex  1.050000e+002  3.225362e+002  8.618304e+000
      vertex  1.050000e+002  3.204270e+002  8.683358e+000
      vertex  1.050000e+002  3.227110e+002  8.390487e+000
    endloop
  endfacet
  facet normal  1.000000e+000  0.000000e+000  0.000000e+000
    outer loop
      vertex  1.050000e+002  3.227110e+002  8.390487e+000
      vertex  1.050000e+002  3.204270e+002  8.683358e+000
      vertex  1.050000e+002  3.205406e+002  8.210352e+000
    endloop
  endfacet
  facet normal  0.000000e+000 -1.305296e-001 -9.914443e-001
    outer loop
      vertex  1.050000e+002  3.234888e+002  1.026830e+001
      vertex  1.030000e+002  3.237735e+002  1.023082e+001
      vertex  1.050000e+002  3.237735e+002  1.023082e+001
    endloop
  endfacet
  facet normal  -0.000000e+000 -3.826564e-001 -9.238907e-001
    outer loop
      vertex  1.050000e+002  3.237735e+002  1.023082e+001
      vertex  1.030000e+002  3.237735e+002  1.023082e+001
      vertex  1.030000e+002  3.240388e+002  1.012093e+001
    endloop
  endfacet
  facet normal  0.000000e+000 -3.826564e-001 -9.238907e-001
    outer loop
      vertex  1.050000e+002  3.237735e+002  1.023082e+001
      vertex  1.030000e+002  3.240388e+002  1.012093e+001
      vertex  1.050000e+002  3.240388e+002  1.012093e+001
    endloop
  endfacet
  facet normal  -0.000000e+000 -6.087676e-001 -7.933487e-001
    outer loop
      vertex  1.050000e+002  3.240388e+002  1.012093e+001
      vertex  1.030000e+002  3.240388e+002  1.012093e+001
      vertex  1.030000e+002  3.242667e+002  9.946122e+000
    endloop
  endfacet
  facet normal  0.000000e+000 -6.087676e-001 -7.933487e-001
    outer loop
      vertex  1.050000e+002  3.240388e+002  1.012093e+001
      vertex  1.030000e+002  3.242667e+002  9.946122e+000
      vertex  1.050000e+002  3.242667e+002  9.946122e+000
    endloop
  endfacet
  facet normal  -0.000000e+000 -7.933632e-001 -6.087486e-001
    outer loop
      vertex  1.050000e+002  3.242667e+002  9.946122e+000
      vertex  1.030000e+002  3.242667e+002  9.946122e+000
      vertex  1.030000e+002  3.244415e+002  9.718305e+000
    endloop
  endfacet
  facet normal  0.000000e+000 -7.933632e-001 -6.087486e-001
    outer loop
      vertex  1.050000e+002  3.242667e+002  9.946122e+000
      vertex  1.030000e+002  3.244415e+002  9.718305e+000
      vertex  1.050000e+002  3.244415e+002  9.718305e+000
    endloop
  endfacet
  facet normal  -0.000000e+000 -9.238753e-001 -3.826936e-001
    outer loop
      vertex  1.050000e+002  3.244415e+002  9.718305e+000
      vertex  1.030000e+002  3.244415e+002  9.718305e+000
      vertex  1.030000e+002  3.245514e+002  9.453006e+000
    endloop
  endfacet
  facet normal  0.000000e+000 -9.238753e-001 -3.826936e-001
    outer loop
      vertex  1.050000e+002  3.244415e+002  9.718305e+000
      vertex  1.030000e+002  3.245514e+002  9.453006e+000
      vertex  1.050000e+002  3.245514e+002  9.453006e+000
    endloop
  endfacet
  facet normal  -0.000000e+000 -9.914476e-001 -1.305055e-001
    outer loop
      vertex  1.050000e+002  3.245514e+002  9.453006e+000
      vertex  1.030000e+002  3.245514e+002  9.453006e+000
      vertex  1.030000e+002  3.245888e+002  9.168304e+000
    endloop
  endfacet
  facet normal  0.000000e+000 -9.914476e-001 -1.305055e-001
    outer loop
      vertex  1.050000e+002  3.245514e+002  9.453006e+000
      vertex  1.030000e+002  3.245888e+002  9.168304e+000
      vertex  1.050000e+002  3.245888e+002  9.168304e+000
    endloop
  endfacet
  facet normal  -0.000000e+000 -1.305296e-001 -9.914443e-001
    outer loop
      vertex  1.030000e+002  3.237735e+002  1.023082e+001
      vertex  1.050000e+002  3.234888e+002  1.026830e+001
      vertex  1.030000e+002  3.234888e+002  1.026830e+001
    endloop
  endfacet
  facet normal  0.000000e+000  1.305296e-001 -9.914443e-001
    outer loop
      vertex  1.030000e+002  3.234888e+002  1.026830e+001
      vertex  1.050000e+002  3.234888e+002  1.026830e+001
      vertex  1.050000e+002  3.232041e+002  1.023082e+001
    endloop
  endfacet
  facet normal  0.000000e+000  1.305296e-001 -9.914443e-001
    outer loop
      vertex  1.030000e+002  3.234888e+002  1.026830e+001
      vertex  1.050000e+002  3.232041e+002  1.023082e+001
      vertex  1.030000e+002  3.232041e+002  1.023082e+001
    endloop
  endfacet
  facet normal  0.000000e+000  3.826940e-001 -9.238752e-001
    outer loop
      vertex  1.030000e+002  3.232041e+002  1.023082e+001
      vertex  1.050000e+002  3.232041e+002  1.023082e+001
      vertex  1.050000e+002  3.229388e+002  1.012093e+001
    endloop
  endfacet
  facet normal  0.000000e+000  3.826940e-001 -9.238752e-001
    outer loop
      vertex  1.030000e+002  3.232041e+002  1.023082e+001
      vertex  1.050000e+002  3.229388e+002  1.012093e+001
      vertex  1.030000e+002  3.229388e+002  1.012093e+001
    endloop
  endfacet
  facet normal  0.000000e+000  6.087676e-001 -7.933487e-001
    outer loop
      vertex  1.030000e+002  3.229388e+002  1.012093e+001
      vertex  1.050000e+002  3.229388e+002  1.012093e+001
      vertex  1.050000e+002  3.227110e+002  9.946122e+000
    endloop
  endfacet
  facet normal  0.000000e+000  6.087676e-001 -7.933487e-001
    outer loop
      vertex  1.030000e+002  3.229388e+002  1.012093e+001
      vertex  1.050000e+002  3.227110e+002  9.946122e+000
      vertex  1.030000e+002  3.227110e+002  9.946122e+000
    endloop
  endfacet
  facet normal  0.000000e+000  7.933632e-001 -6.087486e-001
    outer loop
      vertex  1.030000e+002  3.227110e+002  9.946122e+000
      vertex  1.050000e+002  3.227110e+002  9.946122e+000
      vertex  1.050000e+002  3.225362e+002  9.718305e+000
    endloop
  endfacet
  facet normal  0.000000e+000  7.933632e-001 -6.087486e-001
    outer loop
      vertex  1.030000e+002  3.227110e+002  9.946122e+000
      vertex  1.050000e+002  3.225362e+002  9.718305e+000
      vertex  1.030000e+002  3.225362e+002  9.718305e+000
    endloop
  endfacet
  facet normal  0.000000e+000  9.238753e-001 -3.826936e-001
    outer loop
      vertex  1.030000e+002  3.225362e+002  9.718305e+000
      vertex  1.050000e+002  3.225362e+002  9.718305e+000
      vertex  1.050000e+002  3.224263e+002  9.453006e+000
    endloop
  endfacet
  facet normal  0.000000e+000  9.238753e-001 -3.826936e-001
    outer loop
      vertex  1.030000e+002  3.225362e+002  9.718305e+000
      vertex  1.050000e+002  3.224263e+002  9.453006e+000
      vertex  1.030000e+002  3.224263e+002  9.453006e+000
    endloop
  endfacet
  facet normal  0.000000e+000  9.914476e-001 -1.305055e-001
    outer loop
      vertex  1.030000e+002  3.224263e+002  9.453006e+000
      vertex  1.050000e+002  3.224263e+002  9.453006e+000
      vertex  1.050000e+002  3.223889e+002  9.168304e+000
    endloop
  endfacet
  facet normal  0.000000e+000  9.914476e-001 -1.305055e-001
    outer loop
      vertex  1.030000e+002  3.224263e+002  9.453006e+000
      vertex  1.050000e+002  3.223889e+002  9.168304e+000
      vertex  1.030000e+002  3.223889e+002  9.168304e+000
    endloop
  endfacet
  facet normal  -0.000000e+000  1.305263e-001  9.914448e-001
    outer loop
      vertex  1.050000e+002  3.234888e+002  8.068305e+000
      vertex  1.030000e+002  3.232041e+002  8.105786e+000
      vertex  1.050000e+002  3.232041e+002  8.105786e+000
    endloop
  endfacet
  facet normal  0.000000e+000  3.826940e-001  9.238752e-001
    outer loop
      vertex  1.050000e+002  3.232041e+002  8.105786e+000
      vertex  1.030000e+002  3.232041e+002  8.105786e+000
      vertex  1.030000e+002  3.229388e+002  8.215676e+000
    endloop
  endfacet
  facet normal  -0.000000e+000  3.826940e-001  9.238752e-001
    outer loop
      vertex  1.050000e+002  3.232041e+002  8.105786e+000
      vertex  1.030000e+002  3.229388e+002  8.215676e+000
      vertex  1.050000e+002  3.229388e+002  8.215676e+000
    endloop
  endfacet
  facet normal  0.000000e+000  6.087676e-001  7.933487e-001
    outer loop
      vertex  1.050000e+002  3.229388e+002  8.215676e+000
      vertex  1.030000e+002  3.229388e+002  8.215676e+000
      vertex  1.030000e+002  3.227110e+002  8.390487e+000
    endloop
  endfacet
  facet normal  -0.000000e+000  6.087676e-001  7.933487e-001
    outer loop
      vertex  1.050000e+002  3.229388e+002  8.215676e+000
      vertex  1.030000e+002  3.227110e+002  8.390487e+000
      vertex  1.050000e+002  3.227110e+002  8.390487e+000
    endloop
  endfacet
  facet normal  0.000000e+000  7.933632e-001  6.087486e-001
    outer loop
      vertex  1.050000e+002  3.227110e+002  8.390487e+000
      vertex  1.030000e+002  3.227110e+002  8.390487e+000
      vertex  1.030000e+002  3.225362e+002  8.618304e+000
    endloop
  endfacet
  facet normal  -0.000000e+000  7.933632e-001  6.087486e-001
    outer loop
      vertex  1.050000e+002  3.227110e+002  8.390487e+000
      vertex  1.030000e+002  3.225362e+002  8.618304e+000
      vertex  1.050000e+002  3.225362e+002  8.618304e+000
    endloop
  endfacet
  facet normal  0.000000e+000  9.238758e-001  3.826924e-001
    outer loop
      vertex  1.050000e+002  3.225362e+002  8.618304e+000
      vertex  1.030000e+002  3.225362e+002  8.618304e+000
      vertex  1.030000e+002  3.224263e+002  8.883604e+000
    endloop
  endfacet
  facet normal  -0.000000e+000  9.238758e-001  3.826924e-001
    outer loop
      vertex  1.050000e+002  3.225362e+002  8.618304e+000
      vertex  1.030000e+002  3.224263e+002  8.883604e+000
      vertex  1.050000e+002  3.224263e+002  8.883604e+000
    endloop
  endfacet
  facet normal  0.000000e+000  9.914476e-001  1.305059e-001
    outer loop
      vertex  1.050000e+002  3.224263e+002  8.883604e+000
      vertex  1.030000e+002  3.224263e+002  8.883604e+000
      vertex  1.030000e+002  3.223889e+002  9.168304e+000
    endloop
  endfacet
  facet normal  -0.000000e+000  9.914476e-001  1.305059e-001
    outer loop
      vertex  1.050000e+002  3.224263e+002  8.883604e+000
      vertex  1.030000e+002  3.223889e+002  9.168304e+000
      vertex  1.050000e+002  3.223889e+002  9.168304e+000
    endloop
  endfacet
  facet normal  0.000000e+000  1.305263e-001  9.914448e-001
    outer loop
      vertex  1.030000e+002  3.232041e+002  8.105786e+000
      vertex  1.050000e+002  3.234888e+002  8.068305e+000
      vertex  1.030000e+002  3.234888e+002  8.068305e+000
    endloop
  endfacet
  facet normal  0.000000e+000 -1.305263e-001  9.914448e-001
    outer loop
      vertex  1.030000e+002  3.234888e+002  8.068305e+000
      vertex  1.050000e+002  3.234888e+002  8.068305e+000
      vertex  1.050000e+002  3.237735e+002  8.105786e+000
    endloop
  endfacet
  facet normal  0.000000e+000 -1.305263e-001  9.914448e-001
    outer loop
      vertex  1.030000e+002  3.234888e+002  8.068305e+000
      vertex  1.050000e+002  3.237735e+002  8.105786e+000
      vertex  1.030000e+002  3.237735e+002  8.105786e+000
    endloop
  endfacet
  facet normal  0.000000e+000 -3.826564e-001  9.238907e-001
    outer loop
      vertex  1.030000e+002  3.237735e+002  8.105786e+000
      vertex  1.050000e+002  3.237735e+002  8.105786e+000
      vertex  1.050000e+002  3.240388e+002  8.215676e+000
    endloop
  endfacet
  facet normal  0.000000e+000 -3.826564e-001  9.238907e-001
    outer loop
      vertex  1.030000e+002  3.237735e+002  8.105786e+000
      vertex  1.050000e+002  3.240388e+002  8.215676e+000
      vertex  1.030000e+002  3.240388e+002  8.215676e+000
    endloop
  endfacet
  facet normal  0.000000e+000 -6.087676e-001  7.933487e-001
    outer loop
      vertex  1.030000e+002  3.240388e+002  8.215676e+000
      vertex  1.050000e+002  3.240388e+002  8.215676e+000
      vertex  1.050000e+002  3.242667e+002  8.390487e+000
    endloop
  endfacet
  facet normal  0.000000e+000 -6.087676e-001  7.933487e-001
    outer loop
      vertex  1.030000e+002  3.240388e+002  8.215676e+000
      vertex  1.050000e+002  3.242667e+002  8.390487e+000
      vertex  1.030000e+002  3.242667e+002  8.390487e+000
    endloop
  endfacet
  facet normal  0.000000e+000 -7.933632e-001  6.087486e-001
    outer loop
      vertex  1.030000e+002  3.242667e+002  8.390487e+000
      vertex  1.050000e+002  3.242667e+002  8.390487e+000
      vertex  1.050000e+002  3.244415e+002  8.618304e+000
    endloop
  endfacet
  facet normal  0.000000e+000 -7.933632e-001  6.087486e-001
    outer loop
      vertex  1.030000e+002  3.242667e+002  8.390487e+000
      vertex  1.050000e+002  3.244415e+002  8.618304e+000
      vertex  1.030000e+002  3.244415e+002  8.618304e+000
    endloop
  endfacet
  facet normal  0.000000e+000 -9.238758e-001  3.826924e-001
    outer loop
      vertex  1.030000e+002  3.244415e+002  8.618304e+000
      vertex  1.050000e+002  3.244415e+002  8.618304e+000
      vertex  1.050000e+002  3.245514e+002  8.883604e+000
    endloop
  endfacet
  facet normal  0.000000e+000 -9.238758e-001  3.826924e-001
    outer loop
      vertex  1.030000e+002  3.244415e+002  8.618304e+000
      vertex  1.050000e+002  3.245514e+002  8.883604e+000
      vertex  1.030000e+002  3.245514e+002  8.883604e+000
    endloop
  endfacet
  facet normal  0.000000e+000 -9.914476e-001  1.305059e-001
    outer loop
      vertex  1.030000e+002  3.245514e+002  8.883604e+000
      vertex  1.050000e+002  3.245514e+002  8.883604e+000
      vertex  1.050000e+002  3.245888e+002  9.168304e+000
    endloop
  endfacet
  facet normal  0.000000e+000 -9.914476e-001  1.305059e-001
    outer loop
      vertex  1.030000e+002  3.245514e+002  8.883604e+000
      vertex  1.050000e+002  3.245888e+002  9.168304e+000
      vertex  1.030000e+002  3.245888e+002  9.168304e+000
    endloop
  endfacet
  facet normal  0.000000e+000 -9.969205e-001 -7.842003e-002
    outer loop
      vertex  1.050000e+002  3.203889e+002  9.168304e+000
      vertex  1.030000e+002  3.203889e+002  9.168304e+000
      vertex  1.050000e+002  3.204270e+002  8.683358e+000
    endloop
  endfacet
  facet normal  -0.000000e+000 -9.969205e-001 -7.842003e-002
    outer loop
      vertex  1.050000e+002  3.204270e+002  8.683358e+000
      vertex  1.030000e+002  3.203889e+002  9.168304e+000
      vertex  1.030000e+002  3.204270e+002  8.683358e+000
    endloop
  endfacet
  facet normal  0.000000e+000 -9.723713e-001 -2.334398e-001
    outer loop
      vertex  1.050000e+002  3.204270e+002  8.683358e+000
      vertex  1.030000e+002  3.204270e+002  8.683358e+000
      vertex  1.050000e+002  3.205406e+002  8.210352e+000
    endloop
  endfacet
  facet normal  -0.000000e+000 -9.723713e-001 -2.334398e-001
    outer loop
      vertex  1.050000e+002  3.205406e+002  8.210352e+000
      vertex  1.030000e+002  3.204270e+002  8.683358e+000
      vertex  1.030000e+002  3.205406e+002  8.210352e+000
    endloop
  endfacet
  facet normal  0.000000e+000 -9.238780e-001 -3.826872e-001
    outer loop
      vertex  1.050000e+002  3.205406e+002  8.210352e+000
      vertex  1.030000e+002  3.205406e+002  8.210352e+000
      vertex  1.050000e+002  3.207267e+002  7.760934e+000
    endloop
  endfacet
  facet normal  -0.000000e+000 -9.238780e-001 -3.826872e-001
    outer loop
      vertex  1.050000e+002  3.207267e+002  7.760934e+000
      vertex  1.030000e+002  3.205406e+002  8.210352e+000
      vertex  1.030000e+002  3.207267e+002  7.760934e+000
    endloop
  endfacet
  facet normal  0.000000e+000 -8.526278e-001 -5.225188e-001
    outer loop
      vertex  1.050000e+002  3.207267e+002  7.760934e+000
      vertex  1.030000e+002  3.207267e+002  7.760934e+000
      vertex  1.050000e+002  3.209809e+002  7.346170e+000
    endloop
  endfacet
  facet normal  -0.000000e+000 -8.526278e-001 -5.225188e-001
    outer loop
      vertex  1.050000e+002  3.209809e+002  7.346170e+000
      vertex  1.030000e+002  3.207267e+002  7.760934e+000
      vertex  1.030000e+002  3.209809e+002  7.346170e+000
    endloop
  endfacet
  facet normal  0.000000e+000 -7.604098e-001 -6.494435e-001
    outer loop
      vertex  1.050000e+002  3.209809e+002  7.346170e+000
      vertex  1.030000e+002  3.209809e+002  7.346170e+000
      vertex  1.050000e+002  3.212968e+002  6.976274e+000
    endloop
  endfacet
  facet normal  -0.000000e+000 -7.604098e-001 -6.494435e-001
    outer loop
      vertex  1.050000e+002  3.212968e+002  6.976274e+000
      vertex  1.030000e+002  3.209809e+002  7.346170e+000
      vertex  1.030000e+002  3.212968e+002  6.976274e+000
    endloop
  endfacet
  facet normal  0.000000e+000 -6.494412e-001 -7.604117e-001
    outer loop
      vertex  1.050000e+002  3.212968e+002  6.976274e+000
      vertex  1.030000e+002  3.212968e+002  6.976274e+000
      vertex  1.050000e+002  3.216667e+002  6.660352e+000
    endloop
  endfacet
  facet normal  -0.000000e+000 -6.494412e-001 -7.604117e-001
    outer loop
      vertex  1.050000e+002  3.216667e+002  6.660352e+000
      vertex  1.030000e+002  3.212968e+002  6.976274e+000
      vertex  1.030000e+002  3.216667e+002  6.660352e+000
    endloop
  endfacet
  facet normal  0.000000e+000 -5.224980e-001 -8.526405e-001
    outer loop
      vertex  1.050000e+002  3.216667e+002  6.660352e+000
      vertex  1.030000e+002  3.216667e+002  6.660352e+000
      vertex  1.050000e+002  3.220815e+002  6.406184e+000
    endloop
  endfacet
  facet normal  -0.000000e+000 -5.224980e-001 -8.526405e-001
    outer loop
      vertex  1.050000e+002  3.220815e+002  6.406184e+000
      vertex  1.030000e+002  3.216667e+002  6.660352e+000
      vertex  1.030000e+002  3.220815e+002  6.406184e+000
    endloop
  endfacet
  facet normal  0.000000e+000 -3.826948e-001 -9.238747e-001
    outer loop
      vertex  1.050000e+002  3.220815e+002  6.406184e+000
      vertex  1.030000e+002  3.220815e+002  6.406184e+000
      vertex  1.050000e+002  3.225309e+002  6.220029e+000
    endloop
  endfacet
  facet normal  -0.000000e+000 -3.826948e-001 -9.238747e-001
    outer loop
      vertex  1.050000e+002  3.225309e+002  6.220029e+000
      vertex  1.030000e+002  3.220815e+002  6.406184e+000
      vertex  1.030000e+002  3.225309e+002  6.220029e+000
    endloop
  endfacet
  facet normal  0.000000e+000 -2.334378e-001 -9.723716e-001
    outer loop
      vertex  1.050000e+002  3.225309e+002  6.220029e+000
      vertex  1.030000e+002  3.225309e+002  6.220029e+000
      vertex  1.050000e+002  3.230039e+002  6.106471e+000
    endloop
  endfacet
  facet normal  -0.000000e+000 -2.334378e-001 -9.723716e-001
    outer loop
      vertex  1.050000e+002  3.230039e+002  6.106471e+000
      vertex  1.030000e+002  3.225309e+002  6.220029e+000
      vertex  1.030000e+002  3.230039e+002  6.106471e+000
    endloop
  endfacet
  facet normal  0.000000e+000 -7.846252e-002 -9.969171e-001
    outer loop
      vertex  1.050000e+002  3.230039e+002  6.106471e+000
      vertex  1.030000e+002  3.230039e+002  6.106471e+000
      vertex  1.050000e+002  3.234888e+002  6.068305e+000
    endloop
  endfacet
  facet normal  -0.000000e+000 -7.846252e-002 -9.969171e-001
    outer loop
      vertex  1.050000e+002  3.234888e+002  6.068305e+000
      vertex  1.030000e+002  3.230039e+002  6.106471e+000
      vertex  1.030000e+002  3.234888e+002  6.068305e+000
    endloop
  endfacet
  facet normal  0.000000e+000  7.845762e-002 -9.969175e-001
    outer loop
      vertex  1.050000e+002  3.234888e+002  6.068305e+000
      vertex  1.030000e+002  3.234888e+002  6.068305e+000
      vertex  1.050000e+002  3.239738e+002  6.106471e+000
    endloop
  endfacet
  facet normal  0.000000e+000  7.845762e-002 -9.969175e-001
    outer loop
      vertex  1.050000e+002  3.239738e+002  6.106471e+000
      vertex  1.030000e+002  3.234888e+002  6.068305e+000
      vertex  1.030000e+002  3.239738e+002  6.106471e+000
    endloop
  endfacet
  facet normal  0.000000e+000  2.334378e-001 -9.723716e-001
    outer loop
      vertex  1.050000e+002  3.239738e+002  6.106471e+000
      vertex  1.030000e+002  3.239738e+002  6.106471e+000
      vertex  1.050000e+002  3.244468e+002  6.220029e+000
    endloop
  endfacet
  facet normal  0.000000e+000  2.334378e-001 -9.723716e-001
    outer loop
      vertex  1.050000e+002  3.244468e+002  6.220029e+000
      vertex  1.030000e+002  3.239738e+002  6.106471e+000
      vertex  1.030000e+002  3.244468e+002  6.220029e+000
    endloop
  endfacet
  facet normal  0.000000e+000  3.826948e-001 -9.238747e-001
    outer loop
      vertex  1.050000e+002  3.244468e+002  6.220029e+000
      vertex  1.030000e+002  3.244468e+002  6.220029e+000
      vertex  1.050000e+002  3.248962e+002  6.406184e+000
    endloop
  endfacet
  facet normal  0.000000e+000  3.826948e-001 -9.238747e-001
    outer loop
      vertex  1.050000e+002  3.248962e+002  6.406184e+000
      vertex  1.030000e+002  3.244468e+002  6.220029e+000
      vertex  1.030000e+002  3.248962e+002  6.406184e+000
    endloop
  endfacet
  facet normal  0.000000e+000  5.224980e-001 -8.526405e-001
    outer loop
      vertex  1.050000e+002  3.248962e+002  6.406184e+000
      vertex  1.030000e+002  3.248962e+002  6.406184e+000
      vertex  1.050000e+002  3.253110e+002  6.660352e+000
    endloop
  endfacet
  facet normal  0.000000e+000  5.224980e-001 -8.526405e-001
    outer loop
      vertex  1.050000e+002  3.253110e+002  6.660352e+000
      vertex  1.030000e+002  3.248962e+002  6.406184e+000
      vertex  1.030000e+002  3.253110e+002  6.660352e+000
    endloop
  endfacet
  facet normal  0.000000e+000  6.494412e-001 -7.604117e-001
    outer loop
      vertex  1.050000e+002  3.253110e+002  6.660352e+000
      vertex  1.030000e+002  3.253110e+002  6.660352e+000
      vertex  1.050000e+002  3.256809e+002  6.976274e+000
    endloop
  endfacet
  facet normal  0.000000e+000  6.494412e-001 -7.604117e-001
    outer loop
      vertex  1.050000e+002  3.256809e+002  6.976274e+000
      vertex  1.030000e+002  3.253110e+002  6.660352e+000
      vertex  1.030000e+002  3.256809e+002  6.976274e+000
    endloop
  endfacet
  facet normal  0.000000e+000  7.604098e-001 -6.494435e-001
    outer loop
      vertex  1.050000e+002  3.256809e+002  6.976274e+000
      vertex  1.030000e+002  3.256809e+002  6.976274e+000
      vertex  1.050000e+002  3.259968e+002  7.346170e+000
    endloop
  endfacet
  facet normal  0.000000e+000  7.604098e-001 -6.494435e-001
    outer loop
      vertex  1.050000e+002  3.259968e+002  7.346170e+000
      vertex  1.030000e+002  3.256809e+002  6.976274e+000
      vertex  1.030000e+002  3.259968e+002  7.346170e+000
    endloop
  endfacet
  facet normal  0.000000e+000  8.526278e-001 -5.225188e-001
    outer loop
      vertex  1.050000e+002  3.259968e+002  7.346170e+000
      vertex  1.030000e+002  3.259968e+002  7.346170e+000
      vertex  1.050000e+002  3.262510e+002  7.760934e+000
    endloop
  endfacet
  facet normal  0.000000e+000  8.526278e-001 -5.225188e-001
    outer loop
      vertex  1.050000e+002  3.262510e+002  7.760934e+000
      vertex  1.030000e+002  3.259968e+002  7.346170e+000
      vertex  1.030000e+002  3.262510e+002  7.760934e+000
    endloop
  endfacet
  facet normal  0.000000e+000  9.239001e-001 -3.826337e-001
    outer loop
      vertex  1.050000e+002  3.262510e+002  7.760934e+000
      vertex  1.030000e+002  3.262510e+002  7.760934e+000
      vertex  1.050000e+002  3.264371e+002  8.210352e+000
    endloop
  endfacet
  facet normal  0.000000e+000  9.239001e-001 -3.826337e-001
    outer loop
      vertex  1.050000e+002  3.264371e+002  8.210352e+000
      vertex  1.030000e+002  3.262510e+002  7.760934e+000
      vertex  1.030000e+002  3.264371e+002  8.210352e+000
    endloop
  endfacet
  facet normal  0.000000e+000  9.723570e-001 -2.334992e-001
    outer loop
      vertex  1.050000e+002  3.264371e+002  8.210352e+000
      vertex  1.030000e+002  3.264371e+002  8.210352e+000
      vertex  1.050000e+002  3.265507e+002  8.683358e+000
    endloop
  endfacet
  facet normal  0.000000e+000  9.723570e-001 -2.334992e-001
    outer loop
      vertex  1.050000e+002  3.265507e+002  8.683358e+000
      vertex  1.030000e+002  3.264371e+002  8.210352e+000
      vertex  1.030000e+002  3.265507e+002  8.683358e+000
    endloop
  endfacet
  facet normal  0.000000e+000  9.969205e-001 -7.842003e-002
    outer loop
      vertex  1.050000e+002  3.265507e+002  8.683358e+000
      vertex  1.030000e+002  3.265507e+002  8.683358e+000
      vertex  1.050000e+002  3.265888e+002  9.168304e+000
    endloop
  endfacet
  facet normal  0.000000e+000  9.969205e-001 -7.842003e-002
    outer loop
      vertex  1.050000e+002  3.265888e+002  9.168304e+000
      vertex  1.030000e+002  3.265507e+002  8.683358e+000
      vertex  1.030000e+002  3.265888e+002  9.168304e+000
    endloop
  endfacet
  facet normal  -0.000000e+000  9.969205e-001  7.841987e-002
    outer loop
      vertex  1.050000e+002  3.265888e+002  9.168304e+000
      vertex  1.030000e+002  3.265888e+002  9.168304e+000
      vertex  1.050000e+002  3.265507e+002  9.653252e+000
    endloop
  endfacet
  facet normal  0.000000e+000  9.969205e-001  7.841987e-002
    outer loop
      vertex  1.050000e+002  3.265507e+002  9.653252e+000
      vertex  1.030000e+002  3.265888e+002  9.168304e+000
      vertex  1.030000e+002  3.265507e+002  9.653252e+000
    endloop
  endfacet
  facet normal  -0.000000e+000  9.723569e-001  2.334996e-001
    outer loop
      vertex  1.050000e+002  3.265507e+002  9.653252e+000
      vertex  1.030000e+002  3.265507e+002  9.653252e+000
      vertex  1.050000e+002  3.264371e+002  1.012626e+001
    endloop
  endfacet
  facet normal  0.000000e+000  9.723569e-001  2.334996e-001
    outer loop
      vertex  1.050000e+002  3.264371e+002  1.012626e+001
      vertex  1.030000e+002  3.265507e+002  9.653252e+000
      vertex  1.030000e+002  3.264371e+002  1.012626e+001
    endloop
  endfacet
  facet normal  -0.000000e+000  9.239001e-001  3.826337e-001
    outer loop
      vertex  1.050000e+002  3.264371e+002  1.012626e+001
      vertex  1.030000e+002  3.264371e+002  1.012626e+001
      vertex  1.050000e+002  3.262510e+002  1.057568e+001
    endloop
  endfacet
  facet normal  0.000000e+000  9.239001e-001  3.826337e-001
    outer loop
      vertex  1.050000e+002  3.262510e+002  1.057568e+001
      vertex  1.030000e+002  3.264371e+002  1.012626e+001
      vertex  1.030000e+002  3.262510e+002  1.057568e+001
    endloop
  endfacet
  facet normal  -0.000000e+000  8.526278e-001  5.225188e-001
    outer loop
      vertex  1.050000e+002  3.262510e+002  1.057568e+001
      vertex  1.030000e+002  3.262510e+002  1.057568e+001
      vertex  1.050000e+002  3.259968e+002  1.099044e+001
    endloop
  endfacet
  facet normal  0.000000e+000  8.526278e-001  5.225188e-001
    outer loop
      vertex  1.050000e+002  3.259968e+002  1.099044e+001
      vertex  1.030000e+002  3.262510e+002  1.057568e+001
      vertex  1.030000e+002  3.259968e+002  1.099044e+001
    endloop
  endfacet
  facet normal  -0.000000e+000  7.604098e-001  6.494435e-001
    outer loop
      vertex  1.050000e+002  3.259968e+002  1.099044e+001
      vertex  1.030000e+002  3.259968e+002  1.099044e+001
      vertex  1.050000e+002  3.256809e+002  1.136034e+001
    endloop
  endfacet
  facet normal  0.000000e+000  7.604098e-001  6.494435e-001
    outer loop
      vertex  1.050000e+002  3.256809e+002  1.136034e+001
      vertex  1.030000e+002  3.259968e+002  1.099044e+001
      vertex  1.030000e+002  3.256809e+002  1.136034e+001
    endloop
  endfacet
  facet normal  -0.000000e+000  6.494412e-001  7.604117e-001
    outer loop
      vertex  1.050000e+002  3.256809e+002  1.136034e+001
      vertex  1.030000e+002  3.256809e+002  1.136034e+001
      vertex  1.050000e+002  3.253110e+002  1.167626e+001
    endloop
  endfacet
  facet normal  0.000000e+000  6.494412e-001  7.604117e-001
    outer loop
      vertex  1.050000e+002  3.253110e+002  1.167626e+001
      vertex  1.030000e+002  3.256809e+002  1.136034e+001
      vertex  1.030000e+002  3.253110e+002  1.167626e+001
    endloop
  endfacet
  facet normal  -0.000000e+000  5.224980e-001  8.526405e-001
    outer loop
      vertex  1.050000e+002  3.253110e+002  1.167626e+001
      vertex  1.030000e+002  3.253110e+002  1.167626e+001
      vertex  1.050000e+002  3.248962e+002  1.193042e+001
    endloop
  endfacet
  facet normal  0.000000e+000  5.224980e-001  8.526405e-001
    outer loop
      vertex  1.050000e+002  3.248962e+002  1.193042e+001
      vertex  1.030000e+002  3.253110e+002  1.167626e+001
      vertex  1.030000e+002  3.248962e+002  1.193042e+001
    endloop
  endfacet
  facet normal  -0.000000e+000  3.826956e-001  9.238744e-001
    outer loop
      vertex  1.050000e+002  3.248962e+002  1.193042e+001
      vertex  1.030000e+002  3.248962e+002  1.193042e+001
      vertex  1.050000e+002  3.244468e+002  1.211658e+001
    endloop
  endfacet
  facet normal  0.000000e+000  3.826956e-001  9.238744e-001
    outer loop
      vertex  1.050000e+002  3.244468e+002  1.211658e+001
      vertex  1.030000e+002  3.248962e+002  1.193042e+001
      vertex  1.030000e+002  3.244468e+002  1.211658e+001
    endloop
  endfacet
  facet normal  -0.000000e+000  2.334378e-001  9.723716e-001
    outer loop
      vertex  1.050000e+002  3.244468e+002  1.211658e+001
      vertex  1.030000e+002  3.244468e+002  1.211658e+001
      vertex  1.050000e+002  3.239738e+002  1.223014e+001
    endloop
  endfacet
  facet normal  0.000000e+000  2.334378e-001  9.723716e-001
    outer loop
      vertex  1.050000e+002  3.239738e+002  1.223014e+001
      vertex  1.030000e+002  3.244468e+002  1.211658e+001
      vertex  1.030000e+002  3.239738e+002  1.223014e+001
    endloop
  endfacet
  facet normal  -0.000000e+000  7.845762e-002  9.969175e-001
    outer loop
      vertex  1.050000e+002  3.239738e+002  1.223014e+001
      vertex  1.030000e+002  3.239738e+002  1.223014e+001
      vertex  1.050000e+002  3.234888e+002  1.226830e+001
    endloop
  endfacet
  facet normal  0.000000e+000  7.845762e-002  9.969175e-001
    outer loop
      vertex  1.050000e+002  3.234888e+002  1.226830e+001
      vertex  1.030000e+002  3.239738e+002  1.223014e+001
      vertex  1.030000e+002  3.234888e+002  1.226830e+001
    endloop
  endfacet
  facet normal  0.000000e+000 -7.846252e-002  9.969171e-001
    outer loop
      vertex  1.050000e+002  3.234888e+002  1.226830e+001
      vertex  1.030000e+002  3.234888e+002  1.226830e+001
      vertex  1.050000e+002  3.230039e+002  1.223014e+001
    endloop
  endfacet
  facet normal  0.000000e+000 -7.846252e-002  9.969171e-001
    outer loop
      vertex  1.050000e+002  3.230039e+002  1.223014e+001
      vertex  1.030000e+002  3.234888e+002  1.226830e+001
      vertex  1.030000e+002  3.230039e+002  1.223014e+001
    endloop
  endfacet
  facet normal  0.000000e+000 -2.334378e-001  9.723716e-001
    outer loop
      vertex  1.050000e+002  3.230039e+002  1.223014e+001
      vertex  1.030000e+002  3.230039e+002  1.223014e+001
      vertex  1.050000e+002  3.225309e+002  1.211658e+001
    endloop
  endfacet
  facet normal  0.000000e+000 -2.334378e-001  9.723716e-001
    outer loop
      vertex  1.050000e+002  3.225309e+002  1.211658e+001
      vertex  1.030000e+002  3.230039e+002  1.223014e+001
      vertex  1.030000e+002  3.225309e+002  1.211658e+001
    endloop
  endfacet
  facet normal  0.000000e+000 -3.826956e-001  9.238744e-001
    outer loop
      vertex  1.050000e+002  3.225309e+002  1.211658e+001
      vertex  1.030000e+002  3.225309e+002  1.211658e+001
      vertex  1.050000e+002  3.220815e+002  1.193042e+001
    endloop
  endfacet
  facet normal  0.000000e+000 -3.826956e-001  9.238744e-001
    outer loop
      vertex  1.050000e+002  3.220815e+002  1.193042e+001
      vertex  1.030000e+002  3.225309e+002  1.211658e+001
      vertex  1.030000e+002  3.220815e+002  1.193042e+001
    endloop
  endfacet
  facet normal  0.000000e+000 -5.224980e-001  8.526405e-001
    outer loop
      vertex  1.050000e+002  3.220815e+002  1.193042e+001
      vertex  1.030000e+002  3.220815e+002  1.193042e+001
      vertex  1.050000e+002  3.216667e+002  1.167626e+001
    endloop
  endfacet
  facet normal  0.000000e+000 -5.224980e-001  8.526405e-001
    outer loop
      vertex  1.050000e+002  3.216667e+002  1.167626e+001
      vertex  1.030000e+002  3.220815e+002  1.193042e+001
      vertex  1.030000e+002  3.216667e+002  1.167626e+001
    endloop
  endfacet
  facet normal  0.000000e+000 -6.494412e-001  7.604117e-001
    outer loop
      vertex  1.050000e+002  3.216667e+002  1.167626e+001
      vertex  1.030000e+002  3.216667e+002  1.167626e+001
      vertex  1.050000e+002  3.212968e+002  1.136034e+001
    endloop
  endfacet
  facet normal  0.000000e+000 -6.494412e-001  7.604117e-001
    outer loop
      vertex  1.050000e+002  3.212968e+002  1.136034e+001
      vertex  1.030000e+002  3.216667e+002  1.167626e+001
      vertex  1.030000e+002  3.212968e+002  1.136034e+001
    endloop
  endfacet
  facet normal  0.000000e+000 -7.604098e-001  6.494435e-001
    outer loop
      vertex  1.050000e+002  3.212968e+002  1.136034e+001
      vertex  1.030000e+002  3.212968e+002  1.136034e+001
      vertex  1.050000e+002  3.209809e+002  1.099044e+001
    endloop
  endfacet
  facet normal  0.000000e+000 -7.604098e-001  6.494435e-001
    outer loop
      vertex  1.050000e+002  3.209809e+002  1.099044e+001
      vertex  1.030000e+002  3.212968e+002  1.136034e+001
      vertex  1.030000e+002  3.209809e+002  1.099044e+001
    endloop
  endfacet
  facet normal  0.000000e+000 -8.526278e-001  5.225188e-001
    outer loop
      vertex  1.050000e+002  3.209809e+002  1.099044e+001
      vertex  1.030000e+002  3.209809e+002  1.099044e+001
      vertex  1.050000e+002  3.207267e+002  1.057568e+001
    endloop
  endfacet
  facet normal  0.000000e+000 -8.526278e-001  5.225188e-001
    outer loop
      vertex  1.050000e+002  3.207267e+002  1.057568e+001
      vertex  1.030000e+002  3.209809e+002  1.099044e+001
      vertex  1.030000e+002  3.207267e+002  1.057568e+001
    endloop
  endfacet
  facet normal  0.000000e+000 -9.238780e-001  3.826872e-001
    outer loop
      vertex  1.050000e+002  3.207267e+002  1.057568e+001
      vertex  1.030000e+002  3.207267e+002  1.057568e+001
      vertex  1.050000e+002  3.205406e+002  1.012626e+001
    endloop
  endfacet
  facet normal  0.000000e+000 -9.238780e-001  3.826872e-001
    outer loop
      vertex  1.050000e+002  3.205406e+002  1.012626e+001
      vertex  1.030000e+002  3.207267e+002  1.057568e+001
      vertex  1.030000e+002  3.205406e+002  1.012626e+001
    endloop
  endfacet
  facet normal  0.000000e+000 -9.723711e-001  2.334403e-001
    outer loop
      vertex  1.050000e+002  3.205406e+002  1.012626e+001
      vertex  1.030000e+002  3.205406e+002  1.012626e+001
      vertex  1.050000e+002  3.204270e+002  9.653252e+000
    endloop
  endfacet
  facet normal  0.000000e+000 -9.723711e-001  2.334403e-001
    outer loop
      vertex  1.050000e+002  3.204270e+002  9.653252e+000
      vertex  1.030000e+002  3.205406e+002  1.012626e+001
      vertex  1.030000e+002  3.204270e+002  9.653252e+000
    endloop
  endfacet
  facet normal  0.000000e+000 -9.969205e-001  7.841987e-002
    outer loop
      vertex  1.050000e+002  3.204270e+002  9.653252e+000
      vertex  1.030000e+002  3.204270e+002  9.653252e+000
      vertex  1.050000e+002  3.203889e+002  9.168304e+000
    endloop
  endfacet
  facet normal  0.000000e+000 -9.969205e-001  7.841987e-002
    outer loop
      vertex  1.050000e+002  3.203889e+002  9.168304e+000
      vertex  1.030000e+002  3.204270e+002  9.653252e+000
      vertex  1.030000e+002  3.203889e+002  9.168304e+000
    endloop
  endfacet
endsolid CATIA STL
