solid CATIA STL
  facet normal  1.000000e+000  0.000000e+000  0.000000e+000
    outer loop
      vertex  1.040000e+002 -1.300000e+000 -5.300000e+000
      vertex  1.040000e+002 -1.300000e+000  3.000000e-001
      vertex  1.040000e+002 -4.186576e+000  3.897850e-001
    endloop
  endfacet
  facet normal  1.000000e+000  0.000000e+000  0.000000e+000
    outer loop
      vertex  1.040000e+002 -1.300000e+000 -5.300000e+000
      vertex  1.040000e+002 -4.186576e+000  3.897850e-001
      vertex  1.040000e+002 -4.504376e+000 -1.359208e-001
    endloop
  endfacet
  facet normal  1.000000e+000  0.000000e+000  0.000000e+000
    outer loop
      vertex  1.040000e+002 -1.300000e+000 -5.300000e+000
      vertex  1.040000e+002 -4.504376e+000 -1.359208e-001
      vertex  1.040000e+002 -4.756493e+000 -6.961002e-001
    endloop
  endfacet
  facet normal  1.000000e+000  0.000000e+000  0.000000e+000
    outer loop
      vertex  1.040000e+002 -1.300000e+000 -5.300000e+000
      vertex  1.040000e+002 -4.756493e+000 -6.961002e-001
      vertex  1.040000e+002 -4.939249e+000 -1.282585e+000
    endloop
  endfacet
  facet normal  1.000000e+000  0.000000e+000  0.000000e+000
    outer loop
      vertex  1.040000e+002 -1.300000e+000 -5.300000e+000
      vertex  1.040000e+002 -4.939249e+000 -1.282585e+000
      vertex  1.040000e+002 -5.049979e+000 -1.886822e+000
    endloop
  endfacet
  facet normal  1.000000e+000  0.000000e+000  0.000000e+000
    outer loop
      vertex  1.040000e+002 -1.300000e+000 -5.300000e+000
      vertex  1.040000e+002 -5.049979e+000 -1.886822e+000
      vertex  1.040000e+002 -5.087070e+000 -2.500000e+000
    endloop
  endfacet
  facet normal  1.000000e+000  0.000000e+000  0.000000e+000
    outer loop
      vertex  1.040000e+002 -1.300000e+000 -5.300000e+000
      vertex  1.040000e+002 -5.087070e+000 -2.500000e+000
      vertex  1.040000e+002 -5.049979e+000 -3.113178e+000
    endloop
  endfacet
  facet normal  1.000000e+000  0.000000e+000  0.000000e+000
    outer loop
      vertex  1.040000e+002 -1.300000e+000 -5.300000e+000
      vertex  1.040000e+002 -5.049979e+000 -3.113178e+000
      vertex  1.040000e+002 -4.939249e+000 -3.717416e+000
    endloop
  endfacet
  facet normal  1.000000e+000  0.000000e+000  0.000000e+000
    outer loop
      vertex  1.040000e+002 -1.300000e+000 -5.300000e+000
      vertex  1.040000e+002 -4.939249e+000 -3.717416e+000
      vertex  1.040000e+002 -4.756493e+000 -4.303900e+000
    endloop
  endfacet
  facet normal  1.000000e+000  0.000000e+000  0.000000e+000
    outer loop
      vertex  1.040000e+002 -1.300000e+000 -5.300000e+000
      vertex  1.040000e+002 -4.756493e+000 -4.303900e+000
      vertex  1.040000e+002 -4.504376e+000 -4.864079e+000
    endloop
  endfacet
  facet normal  1.000000e+000  0.000000e+000  0.000000e+000
    outer loop
      vertex  1.040000e+002 -1.300000e+000 -5.300000e+000
      vertex  1.040000e+002 -4.504376e+000 -4.864079e+000
      vertex  1.040000e+002 -4.186576e+000 -5.389785e+000
    endloop
  endfacet
  facet normal  1.000000e+000  -0.000000e+000  0.000000e+000
    outer loop
      vertex  1.040000e+002 -1.300000e+000 -5.300000e+000
      vertex  1.040000e+002 -4.186576e+000 -5.389785e+000
      vertex  1.040000e+002 -4.627028e-017 -7.587070e+000
    endloop
  endfacet
  facet normal  9.999999e-001  0.000000e+000  -0.000000e+000
    outer loop
      vertex  1.040000e+002 -1.300000e+000 -5.300000e+000
      vertex  1.040000e+002 -4.627028e-017 -7.587070e+000
      vertex  1.040000e+002  4.186576e+000 -5.389785e+000
    endloop
  endfacet
  facet normal  1.000000e+000  0.000000e+000  0.000000e+000
    outer loop
      vertex  1.040000e+002 -1.300000e+000 -5.300000e+000
      vertex  1.040000e+002  4.186576e+000 -5.389785e+000
      vertex  1.040000e+002  1.300000e+000 -5.300000e+000
    endloop
  endfacet
  facet normal  9.999999e-001  0.000000e+000  -0.000000e+000
    outer loop
      vertex  1.040000e+002 -4.186576e+000  3.897850e-001
      vertex  1.040000e+002 -1.300000e+000  3.000000e-001
      vertex  1.040000e+002 -1.217415e+000  2.439249e+000
    endloop
  endfacet
  facet normal  1.000000e+000  0.000000e+000  0.000000e+000
    outer loop
      vertex  1.040000e+002 -4.186576e+000  3.897850e-001
      vertex  1.040000e+002 -1.217415e+000  2.439249e+000
      vertex  1.040000e+002 -1.803900e+000  2.256493e+000
    endloop
  endfacet
  facet normal  9.999999e-001  0.000000e+000  0.000000e+000
    outer loop
      vertex  1.040000e+002 -4.186576e+000  3.897850e-001
      vertex  1.040000e+002 -1.803900e+000  2.256493e+000
      vertex  1.040000e+002 -2.364079e+000  2.004377e+000
    endloop
  endfacet
  facet normal  1.000000e+000  0.000000e+000  0.000000e+000
    outer loop
      vertex  1.040000e+002 -4.186576e+000  3.897850e-001
      vertex  1.040000e+002 -2.364079e+000  2.004377e+000
      vertex  1.040000e+002 -2.889785e+000  1.686576e+000
    endloop
  endfacet
  facet normal  1.000000e+000  0.000000e+000  0.000000e+000
    outer loop
      vertex  1.040000e+002 -4.186576e+000  3.897850e-001
      vertex  1.040000e+002 -2.889785e+000  1.686576e+000
      vertex  1.040000e+002 -3.373351e+000  1.307726e+000
    endloop
  endfacet
  facet normal  9.999999e-001  0.000000e+000  0.000000e+000
    outer loop
      vertex  1.040000e+002 -4.186576e+000  3.897850e-001
      vertex  1.040000e+002 -3.373351e+000  1.307726e+000
      vertex  1.040000e+002 -3.807726e+000  8.733513e-001
    endloop
  endfacet
  facet normal  1.000000e+000  0.000000e+000  -0.000000e+000
    outer loop
      vertex  1.040000e+002 -1.300000e+000  3.000000e-001
      vertex  1.040000e+002  1.300000e+000  3.000000e-001
      vertex  1.040000e+002  1.803900e+000  2.256493e+000
    endloop
  endfacet
  facet normal  1.000000e+000  0.000000e+000  0.000000e+000
    outer loop
      vertex  1.040000e+002 -1.300000e+000  3.000000e-001
      vertex  1.040000e+002  1.803900e+000  2.256493e+000
      vertex  1.040000e+002  1.217415e+000  2.439249e+000
    endloop
  endfacet
  facet normal  1.000000e+000  0.000000e+000  0.000000e+000
    outer loop
      vertex  1.040000e+002 -1.300000e+000  3.000000e-001
      vertex  1.040000e+002  1.217415e+000  2.439249e+000
      vertex  1.040000e+002  6.131785e-001  2.549979e+000
    endloop
  endfacet
  facet normal  1.000000e+000  0.000000e+000  0.000000e+000
    outer loop
      vertex  1.040000e+002 -1.300000e+000  3.000000e-001
      vertex  1.040000e+002  6.131785e-001  2.549979e+000
      vertex  1.040000e+002 -2.391719e-015  2.587070e+000
    endloop
  endfacet
  facet normal  1.000000e+000  0.000000e+000  0.000000e+000
    outer loop
      vertex  1.040000e+002 -1.300000e+000  3.000000e-001
      vertex  1.040000e+002 -2.391719e-015  2.587070e+000
      vertex  1.040000e+002 -6.131785e-001  2.549979e+000
    endloop
  endfacet
  facet normal  9.999999e-001  0.000000e+000  0.000000e+000
    outer loop
      vertex  1.040000e+002 -1.300000e+000  3.000000e-001
      vertex  1.040000e+002 -6.131785e-001  2.549979e+000
      vertex  1.040000e+002 -1.217415e+000  2.439249e+000
    endloop
  endfacet
  facet normal  1.000000e+000  0.000000e+000  0.000000e+000
    outer loop
      vertex  1.040000e+002  1.300000e+000  3.000000e-001
      vertex  1.040000e+002  1.300000e+000 -5.300000e+000
      vertex  1.040000e+002  4.504376e+000 -1.359208e-001
    endloop
  endfacet
  facet normal  1.000000e+000  0.000000e+000  0.000000e+000
    outer loop
      vertex  1.040000e+002  1.300000e+000  3.000000e-001
      vertex  1.040000e+002  4.504376e+000 -1.359208e-001
      vertex  1.040000e+002  4.186576e+000  3.897850e-001
    endloop
  endfacet
  facet normal  1.000000e+000  0.000000e+000  0.000000e+000
    outer loop
      vertex  1.040000e+002  1.300000e+000  3.000000e-001
      vertex  1.040000e+002  4.186576e+000  3.897850e-001
      vertex  1.040000e+002  3.807726e+000  8.733513e-001
    endloop
  endfacet
  facet normal  1.000000e+000  0.000000e+000  0.000000e+000
    outer loop
      vertex  1.040000e+002  1.300000e+000  3.000000e-001
      vertex  1.040000e+002  3.807726e+000  8.733513e-001
      vertex  1.040000e+002  3.373351e+000  1.307726e+000
    endloop
  endfacet
  facet normal  1.000000e+000  0.000000e+000  0.000000e+000
    outer loop
      vertex  1.040000e+002  1.300000e+000  3.000000e-001
      vertex  1.040000e+002  3.373351e+000  1.307726e+000
      vertex  1.040000e+002  2.889785e+000  1.686576e+000
    endloop
  endfacet
  facet normal  1.000000e+000  0.000000e+000  0.000000e+000
    outer loop
      vertex  1.040000e+002  1.300000e+000  3.000000e-001
      vertex  1.040000e+002  2.889785e+000  1.686576e+000
      vertex  1.040000e+002  2.364079e+000  2.004377e+000
    endloop
  endfacet
  facet normal  1.000000e+000  0.000000e+000  0.000000e+000
    outer loop
      vertex  1.040000e+002  1.300000e+000  3.000000e-001
      vertex  1.040000e+002  2.364079e+000  2.004377e+000
      vertex  1.040000e+002  1.803900e+000  2.256493e+000
    endloop
  endfacet
  facet normal  1.000000e+000  0.000000e+000  0.000000e+000
    outer loop
      vertex  1.040000e+002 -4.627028e-017 -7.587070e+000
      vertex  1.040000e+002 -4.186576e+000 -5.389785e+000
      vertex  1.040000e+002 -3.807726e+000 -5.873351e+000
    endloop
  endfacet
  facet normal  1.000000e+000  0.000000e+000  0.000000e+000
    outer loop
      vertex  1.040000e+002 -4.627028e-017 -7.587070e+000
      vertex  1.040000e+002 -3.807726e+000 -5.873351e+000
      vertex  1.040000e+002 -3.373351e+000 -6.307726e+000
    endloop
  endfacet
  facet normal  1.000000e+000  0.000000e+000  0.000000e+000
    outer loop
      vertex  1.040000e+002 -4.627028e-017 -7.587070e+000
      vertex  1.040000e+002 -3.373351e+000 -6.307726e+000
      vertex  1.040000e+002 -2.889785e+000 -6.686576e+000
    endloop
  endfacet
  facet normal  1.000000e+000  0.000000e+000  0.000000e+000
    outer loop
      vertex  1.040000e+002 -4.627028e-017 -7.587070e+000
      vertex  1.040000e+002 -2.889785e+000 -6.686576e+000
      vertex  1.040000e+002 -2.364079e+000 -7.004376e+000
    endloop
  endfacet
  facet normal  1.000000e+000  0.000000e+000  0.000000e+000
    outer loop
      vertex  1.040000e+002 -4.627028e-017 -7.587070e+000
      vertex  1.040000e+002 -2.364079e+000 -7.004376e+000
      vertex  1.040000e+002 -1.803900e+000 -7.256493e+000
    endloop
  endfacet
  facet normal  1.000000e+000  0.000000e+000  0.000000e+000
    outer loop
      vertex  1.040000e+002 -4.627028e-017 -7.587070e+000
      vertex  1.040000e+002 -1.803900e+000 -7.256493e+000
      vertex  1.040000e+002 -1.217415e+000 -7.439249e+000
    endloop
  endfacet
  facet normal  1.000000e+000  0.000000e+000  0.000000e+000
    outer loop
      vertex  1.040000e+002 -4.627028e-017 -7.587070e+000
      vertex  1.040000e+002 -1.217415e+000 -7.439249e+000
      vertex  1.040000e+002 -6.131785e-001 -7.549979e+000
    endloop
  endfacet
  facet normal  1.000000e+000  0.000000e+000  -0.000000e+000
    outer loop
      vertex  1.040000e+002  1.300000e+000 -5.300000e+000
      vertex  1.040000e+002  4.186576e+000 -5.389785e+000
      vertex  1.040000e+002  4.504376e+000 -4.864079e+000
    endloop
  endfacet
  facet normal  1.000000e+000  0.000000e+000  -0.000000e+000
    outer loop
      vertex  1.040000e+002  1.300000e+000 -5.300000e+000
      vertex  1.040000e+002  4.504376e+000 -4.864079e+000
      vertex  1.040000e+002  4.756493e+000 -4.303900e+000
    endloop
  endfacet
  facet normal  1.000000e+000  0.000000e+000  -0.000000e+000
    outer loop
      vertex  1.040000e+002  1.300000e+000 -5.300000e+000
      vertex  1.040000e+002  4.756493e+000 -4.303900e+000
      vertex  1.040000e+002  4.939249e+000 -3.717416e+000
    endloop
  endfacet
  facet normal  1.000000e+000  0.000000e+000  -0.000000e+000
    outer loop
      vertex  1.040000e+002  1.300000e+000 -5.300000e+000
      vertex  1.040000e+002  4.939249e+000 -3.717416e+000
      vertex  1.040000e+002  5.049979e+000 -3.113178e+000
    endloop
  endfacet
  facet normal  1.000000e+000  0.000000e+000  -0.000000e+000
    outer loop
      vertex  1.040000e+002  1.300000e+000 -5.300000e+000
      vertex  1.040000e+002  5.049979e+000 -3.113178e+000
      vertex  1.040000e+002  5.087070e+000 -2.500000e+000
    endloop
  endfacet
  facet normal  1.000000e+000  0.000000e+000  0.000000e+000
    outer loop
      vertex  1.040000e+002  1.300000e+000 -5.300000e+000
      vertex  1.040000e+002  5.087070e+000 -2.500000e+000
      vertex  1.040000e+002  5.049979e+000 -1.886822e+000
    endloop
  endfacet
  facet normal  1.000000e+000  0.000000e+000  0.000000e+000
    outer loop
      vertex  1.040000e+002  1.300000e+000 -5.300000e+000
      vertex  1.040000e+002  5.049979e+000 -1.886822e+000
      vertex  1.040000e+002  4.939249e+000 -1.282585e+000
    endloop
  endfacet
  facet normal  1.000000e+000  0.000000e+000  0.000000e+000
    outer loop
      vertex  1.040000e+002  1.300000e+000 -5.300000e+000
      vertex  1.040000e+002  4.939249e+000 -1.282585e+000
      vertex  1.040000e+002  4.756493e+000 -6.961002e-001
    endloop
  endfacet
  facet normal  1.000000e+000  0.000000e+000  0.000000e+000
    outer loop
      vertex  1.040000e+002  1.300000e+000 -5.300000e+000
      vertex  1.040000e+002  4.756493e+000 -6.961002e-001
      vertex  1.040000e+002  4.504376e+000 -1.359208e-001
    endloop
  endfacet
  facet normal  1.000000e+000  0.000000e+000  -0.000000e+000
    outer loop
      vertex  1.040000e+002 -4.627028e-017 -7.587070e+000
      vertex  1.040000e+002  6.131785e-001 -7.549979e+000
      vertex  1.040000e+002  1.217415e+000 -7.439249e+000
    endloop
  endfacet
  facet normal  1.000000e+000  0.000000e+000  -0.000000e+000
    outer loop
      vertex  1.040000e+002 -4.627028e-017 -7.587070e+000
      vertex  1.040000e+002  1.217415e+000 -7.439249e+000
      vertex  1.040000e+002  1.803900e+000 -7.256493e+000
    endloop
  endfacet
  facet normal  1.000000e+000  0.000000e+000  -0.000000e+000
    outer loop
      vertex  1.040000e+002 -4.627028e-017 -7.587070e+000
      vertex  1.040000e+002  1.803900e+000 -7.256493e+000
      vertex  1.040000e+002  2.364079e+000 -7.004376e+000
    endloop
  endfacet
  facet normal  1.000000e+000  0.000000e+000  -0.000000e+000
    outer loop
      vertex  1.040000e+002 -4.627028e-017 -7.587070e+000
      vertex  1.040000e+002  2.364079e+000 -7.004376e+000
      vertex  1.040000e+002  2.889785e+000 -6.686576e+000
    endloop
  endfacet
  facet normal  1.000000e+000  0.000000e+000  -0.000000e+000
    outer loop
      vertex  1.040000e+002 -4.627028e-017 -7.587070e+000
      vertex  1.040000e+002  2.889785e+000 -6.686576e+000
      vertex  1.040000e+002  3.373351e+000 -6.307726e+000
    endloop
  endfacet
  facet normal  1.000000e+000  0.000000e+000  -0.000000e+000
    outer loop
      vertex  1.040000e+002 -4.627028e-017 -7.587070e+000
      vertex  1.040000e+002  3.373351e+000 -6.307726e+000
      vertex  1.040000e+002  3.807726e+000 -5.873351e+000
    endloop
  endfacet
  facet normal  1.000000e+000  0.000000e+000  -0.000000e+000
    outer loop
      vertex  1.040000e+002 -4.627028e-017 -7.587070e+000
      vertex  1.040000e+002  3.807726e+000 -5.873351e+000
      vertex  1.040000e+002  4.186576e+000 -5.389785e+000
    endloop
  endfacet
  facet normal  0.000000e+000  9.981756e-001 -6.037901e-002
    outer loop
      vertex  9.800000e+001  5.087070e+000 -2.500000e+000
      vertex  1.040000e+002  5.087070e+000 -2.500000e+000
      vertex  9.800000e+001  5.049979e+000 -3.113178e+000
    endloop
  endfacet
  facet normal  0.000000e+000  9.981756e-001 -6.037901e-002
    outer loop
      vertex  9.800000e+001  5.049979e+000 -3.113178e+000
      vertex  1.040000e+002  5.087070e+000 -2.500000e+000
      vertex  1.040000e+002  5.049979e+000 -3.113178e+000
    endloop
  endfacet
  facet normal  0.000000e+000  9.836200e-001 -1.802544e-001
    outer loop
      vertex  9.800000e+001  5.049979e+000 -3.113178e+000
      vertex  1.040000e+002  5.049979e+000 -3.113178e+000
      vertex  9.800000e+001  4.939249e+000 -3.717416e+000
    endloop
  endfacet
  facet normal  0.000000e+000  9.836200e-001 -1.802544e-001
    outer loop
      vertex  9.800000e+001  4.939249e+000 -3.717416e+000
      vertex  1.040000e+002  5.049979e+000 -3.113178e+000
      vertex  1.040000e+002  4.939249e+000 -3.717416e+000
    endloop
  endfacet
  facet normal  0.000000e+000  9.547209e-001 -2.975032e-001
    outer loop
      vertex  9.800000e+001  4.939249e+000 -3.717416e+000
      vertex  1.040000e+002  4.939249e+000 -3.717416e+000
      vertex  9.800000e+001  4.756493e+000 -4.303900e+000
    endloop
  endfacet
  facet normal  0.000000e+000  9.547209e-001 -2.975032e-001
    outer loop
      vertex  9.800000e+001  4.756493e+000 -4.303900e+000
      vertex  1.040000e+002  4.939249e+000 -3.717416e+000
      vertex  1.040000e+002  4.756493e+000 -4.303900e+000
    endloop
  endfacet
  facet normal  0.000000e+000  9.118995e-001 -4.104134e-001
    outer loop
      vertex  9.800000e+001  4.756493e+000 -4.303900e+000
      vertex  1.040000e+002  4.756493e+000 -4.303900e+000
      vertex  9.800000e+001  4.504376e+000 -4.864079e+000
    endloop
  endfacet
  facet normal  0.000000e+000  9.118995e-001 -4.104134e-001
    outer loop
      vertex  9.800000e+001  4.504376e+000 -4.864079e+000
      vertex  1.040000e+002  4.756493e+000 -4.303900e+000
      vertex  1.040000e+002  4.504376e+000 -4.864079e+000
    endloop
  endfacet
  facet normal  0.000000e+000  8.557814e-001 -5.173376e-001
    outer loop
      vertex  9.800000e+001  4.504376e+000 -4.864079e+000
      vertex  1.040000e+002  4.504376e+000 -4.864079e+000
      vertex  9.800000e+001  4.186576e+000 -5.389785e+000
    endloop
  endfacet
  facet normal  0.000000e+000  8.557814e-001 -5.173376e-001
    outer loop
      vertex  9.800000e+001  4.186576e+000 -5.389785e+000
      vertex  1.040000e+002  4.504376e+000 -4.864079e+000
      vertex  1.040000e+002  4.186576e+000 -5.389785e+000
    endloop
  endfacet
  facet normal  0.000000e+000  7.871835e-001 -6.167189e-001
    outer loop
      vertex  9.800000e+001  4.186576e+000 -5.389785e+000
      vertex  1.040000e+002  4.186576e+000 -5.389785e+000
      vertex  9.800000e+001  3.807726e+000 -5.873351e+000
    endloop
  endfacet
  facet normal  0.000000e+000  7.871835e-001 -6.167189e-001
    outer loop
      vertex  9.800000e+001  3.807726e+000 -5.873351e+000
      vertex  1.040000e+002  4.186576e+000 -5.389785e+000
      vertex  1.040000e+002  3.807726e+000 -5.873351e+000
    endloop
  endfacet
  facet normal  0.000000e+000  7.071069e-001 -7.071066e-001
    outer loop
      vertex  9.800000e+001  3.807726e+000 -5.873351e+000
      vertex  1.040000e+002  3.807726e+000 -5.873351e+000
      vertex  9.800000e+001  3.373351e+000 -6.307726e+000
    endloop
  endfacet
  facet normal  0.000000e+000  7.071069e-001 -7.071066e-001
    outer loop
      vertex  9.800000e+001  3.373351e+000 -6.307726e+000
      vertex  1.040000e+002  3.807726e+000 -5.873351e+000
      vertex  1.040000e+002  3.373351e+000 -6.307726e+000
    endloop
  endfacet
  facet normal  0.000000e+000  6.167189e-001 -7.871835e-001
    outer loop
      vertex  9.800000e+001  3.373351e+000 -6.307726e+000
      vertex  1.040000e+002  3.373351e+000 -6.307726e+000
      vertex  9.800000e+001  2.889785e+000 -6.686576e+000
    endloop
  endfacet
  facet normal  0.000000e+000  6.167189e-001 -7.871835e-001
    outer loop
      vertex  9.800000e+001  2.889785e+000 -6.686576e+000
      vertex  1.040000e+002  3.373351e+000 -6.307726e+000
      vertex  1.040000e+002  2.889785e+000 -6.686576e+000
    endloop
  endfacet
  facet normal  0.000000e+000  5.173376e-001 -8.557814e-001
    outer loop
      vertex  9.800000e+001  2.889785e+000 -6.686576e+000
      vertex  1.040000e+002  2.889785e+000 -6.686576e+000
      vertex  9.800000e+001  2.364079e+000 -7.004376e+000
    endloop
  endfacet
  facet normal  0.000000e+000  5.173376e-001 -8.557814e-001
    outer loop
      vertex  9.800000e+001  2.364079e+000 -7.004376e+000
      vertex  1.040000e+002  2.889785e+000 -6.686576e+000
      vertex  1.040000e+002  2.364079e+000 -7.004376e+000
    endloop
  endfacet
  facet normal  0.000000e+000  4.104133e-001 -9.118996e-001
    outer loop
      vertex  9.800000e+001  2.364079e+000 -7.004376e+000
      vertex  1.040000e+002  2.364079e+000 -7.004376e+000
      vertex  9.800000e+001  1.803900e+000 -7.256493e+000
    endloop
  endfacet
  facet normal  0.000000e+000  4.104133e-001 -9.118996e-001
    outer loop
      vertex  9.800000e+001  1.803900e+000 -7.256493e+000
      vertex  1.040000e+002  2.364079e+000 -7.004376e+000
      vertex  1.040000e+002  1.803900e+000 -7.256493e+000
    endloop
  endfacet
  facet normal  0.000000e+000  2.975031e-001 -9.547209e-001
    outer loop
      vertex  9.800000e+001  1.803900e+000 -7.256493e+000
      vertex  1.040000e+002  1.803900e+000 -7.256493e+000
      vertex  9.800000e+001  1.217415e+000 -7.439249e+000
    endloop
  endfacet
  facet normal  0.000000e+000  2.975031e-001 -9.547209e-001
    outer loop
      vertex  9.800000e+001  1.217415e+000 -7.439249e+000
      vertex  1.040000e+002  1.803900e+000 -7.256493e+000
      vertex  1.040000e+002  1.217415e+000 -7.439249e+000
    endloop
  endfacet
  facet normal  0.000000e+000  1.802545e-001 -9.836200e-001
    outer loop
      vertex  9.800000e+001  1.217415e+000 -7.439249e+000
      vertex  1.040000e+002  1.217415e+000 -7.439249e+000
      vertex  9.800000e+001  6.131785e-001 -7.549979e+000
    endloop
  endfacet
  facet normal  0.000000e+000  1.802545e-001 -9.836200e-001
    outer loop
      vertex  9.800000e+001  6.131785e-001 -7.549979e+000
      vertex  1.040000e+002  1.217415e+000 -7.439249e+000
      vertex  1.040000e+002  6.131785e-001 -7.549979e+000
    endloop
  endfacet
  facet normal  0.000000e+000  6.037901e-002 -9.981756e-001
    outer loop
      vertex  9.800000e+001  6.131785e-001 -7.549979e+000
      vertex  1.040000e+002  6.131785e-001 -7.549979e+000
      vertex  9.800000e+001  3.583777e-015 -7.587070e+000
    endloop
  endfacet
  facet normal  3.652978e-017  6.037901e-002 -9.981756e-001
    outer loop
      vertex  9.800000e+001  3.583777e-015 -7.587070e+000
      vertex  1.040000e+002  6.131785e-001 -7.549979e+000
      vertex  1.040000e+002 -4.627028e-017 -7.587070e+000
    endloop
  endfacet
  facet normal -3.652978e-017 -6.037901e-002 -9.981756e-001
    outer loop
      vertex  9.800000e+001  3.583777e-015 -7.587070e+000
      vertex  1.040000e+002 -4.627028e-017 -7.587070e+000
      vertex  9.800000e+001 -6.131785e-001 -7.549979e+000
    endloop
  endfacet
  facet normal  0.000000e+000 -6.037901e-002 -9.981756e-001
    outer loop
      vertex  9.800000e+001 -6.131785e-001 -7.549979e+000
      vertex  1.040000e+002 -4.627028e-017 -7.587070e+000
      vertex  1.040000e+002 -6.131785e-001 -7.549979e+000
    endloop
  endfacet
  facet normal  -0.000000e+000 -1.802545e-001 -9.836200e-001
    outer loop
      vertex  9.800000e+001 -6.131785e-001 -7.549979e+000
      vertex  1.040000e+002 -6.131785e-001 -7.549979e+000
      vertex  9.800000e+001 -1.217415e+000 -7.439249e+000
    endloop
  endfacet
  facet normal  0.000000e+000 -1.802545e-001 -9.836200e-001
    outer loop
      vertex  9.800000e+001 -1.217415e+000 -7.439249e+000
      vertex  1.040000e+002 -6.131785e-001 -7.549979e+000
      vertex  1.040000e+002 -1.217415e+000 -7.439249e+000
    endloop
  endfacet
  facet normal  -0.000000e+000 -2.975031e-001 -9.547209e-001
    outer loop
      vertex  9.800000e+001 -1.217415e+000 -7.439249e+000
      vertex  1.040000e+002 -1.217415e+000 -7.439249e+000
      vertex  9.800000e+001 -1.803900e+000 -7.256493e+000
    endloop
  endfacet
  facet normal  0.000000e+000 -2.975031e-001 -9.547209e-001
    outer loop
      vertex  9.800000e+001 -1.803900e+000 -7.256493e+000
      vertex  1.040000e+002 -1.217415e+000 -7.439249e+000
      vertex  1.040000e+002 -1.803900e+000 -7.256493e+000
    endloop
  endfacet
  facet normal  -0.000000e+000 -4.104133e-001 -9.118996e-001
    outer loop
      vertex  9.800000e+001 -1.803900e+000 -7.256493e+000
      vertex  1.040000e+002 -1.803900e+000 -7.256493e+000
      vertex  9.800000e+001 -2.364079e+000 -7.004376e+000
    endloop
  endfacet
  facet normal  0.000000e+000 -4.104133e-001 -9.118996e-001
    outer loop
      vertex  9.800000e+001 -2.364079e+000 -7.004376e+000
      vertex  1.040000e+002 -1.803900e+000 -7.256493e+000
      vertex  1.040000e+002 -2.364079e+000 -7.004376e+000
    endloop
  endfacet
  facet normal  -0.000000e+000 -5.173376e-001 -8.557814e-001
    outer loop
      vertex  9.800000e+001 -2.364079e+000 -7.004376e+000
      vertex  1.040000e+002 -2.364079e+000 -7.004376e+000
      vertex  9.800000e+001 -2.889785e+000 -6.686576e+000
    endloop
  endfacet
  facet normal  0.000000e+000 -5.173376e-001 -8.557814e-001
    outer loop
      vertex  9.800000e+001 -2.889785e+000 -6.686576e+000
      vertex  1.040000e+002 -2.364079e+000 -7.004376e+000
      vertex  1.040000e+002 -2.889785e+000 -6.686576e+000
    endloop
  endfacet
  facet normal  -0.000000e+000 -6.167189e-001 -7.871835e-001
    outer loop
      vertex  9.800000e+001 -2.889785e+000 -6.686576e+000
      vertex  1.040000e+002 -2.889785e+000 -6.686576e+000
      vertex  9.800000e+001 -3.373351e+000 -6.307726e+000
    endloop
  endfacet
  facet normal  0.000000e+000 -6.167189e-001 -7.871835e-001
    outer loop
      vertex  9.800000e+001 -3.373351e+000 -6.307726e+000
      vertex  1.040000e+002 -2.889785e+000 -6.686576e+000
      vertex  1.040000e+002 -3.373351e+000 -6.307726e+000
    endloop
  endfacet
  facet normal  -0.000000e+000 -7.071069e-001 -7.071066e-001
    outer loop
      vertex  9.800000e+001 -3.373351e+000 -6.307726e+000
      vertex  1.040000e+002 -3.373351e+000 -6.307726e+000
      vertex  9.800000e+001 -3.807726e+000 -5.873351e+000
    endloop
  endfacet
  facet normal  0.000000e+000 -7.071069e-001 -7.071066e-001
    outer loop
      vertex  9.800000e+001 -3.807726e+000 -5.873351e+000
      vertex  1.040000e+002 -3.373351e+000 -6.307726e+000
      vertex  1.040000e+002 -3.807726e+000 -5.873351e+000
    endloop
  endfacet
  facet normal  -0.000000e+000 -7.871835e-001 -6.167189e-001
    outer loop
      vertex  9.800000e+001 -3.807726e+000 -5.873351e+000
      vertex  1.040000e+002 -3.807726e+000 -5.873351e+000
      vertex  9.800000e+001 -4.186576e+000 -5.389785e+000
    endloop
  endfacet
  facet normal  0.000000e+000 -7.871835e-001 -6.167189e-001
    outer loop
      vertex  9.800000e+001 -4.186576e+000 -5.389785e+000
      vertex  1.040000e+002 -3.807726e+000 -5.873351e+000
      vertex  1.040000e+002 -4.186576e+000 -5.389785e+000
    endloop
  endfacet
  facet normal  -0.000000e+000 -8.557814e-001 -5.173376e-001
    outer loop
      vertex  9.800000e+001 -4.186576e+000 -5.389785e+000
      vertex  1.040000e+002 -4.186576e+000 -5.389785e+000
      vertex  9.800000e+001 -4.504376e+000 -4.864079e+000
    endloop
  endfacet
  facet normal  0.000000e+000 -8.557814e-001 -5.173376e-001
    outer loop
      vertex  9.800000e+001 -4.504376e+000 -4.864079e+000
      vertex  1.040000e+002 -4.186576e+000 -5.389785e+000
      vertex  1.040000e+002 -4.504376e+000 -4.864079e+000
    endloop
  endfacet
  facet normal  -0.000000e+000 -9.118995e-001 -4.104134e-001
    outer loop
      vertex  9.800000e+001 -4.504376e+000 -4.864079e+000
      vertex  1.040000e+002 -4.504376e+000 -4.864079e+000
      vertex  9.800000e+001 -4.756493e+000 -4.303900e+000
    endloop
  endfacet
  facet normal  0.000000e+000 -9.118995e-001 -4.104134e-001
    outer loop
      vertex  9.800000e+001 -4.756493e+000 -4.303900e+000
      vertex  1.040000e+002 -4.504376e+000 -4.864079e+000
      vertex  1.040000e+002 -4.756493e+000 -4.303900e+000
    endloop
  endfacet
  facet normal  -0.000000e+000 -9.547209e-001 -2.975032e-001
    outer loop
      vertex  9.800000e+001 -4.756493e+000 -4.303900e+000
      vertex  1.040000e+002 -4.756493e+000 -4.303900e+000
      vertex  9.800000e+001 -4.939249e+000 -3.717416e+000
    endloop
  endfacet
  facet normal  0.000000e+000 -9.547209e-001 -2.975032e-001
    outer loop
      vertex  9.800000e+001 -4.939249e+000 -3.717416e+000
      vertex  1.040000e+002 -4.756493e+000 -4.303900e+000
      vertex  1.040000e+002 -4.939249e+000 -3.717416e+000
    endloop
  endfacet
  facet normal  -0.000000e+000 -9.836200e-001 -1.802544e-001
    outer loop
      vertex  9.800000e+001 -4.939249e+000 -3.717416e+000
      vertex  1.040000e+002 -4.939249e+000 -3.717416e+000
      vertex  9.800000e+001 -5.049979e+000 -3.113178e+000
    endloop
  endfacet
  facet normal  0.000000e+000 -9.836200e-001 -1.802544e-001
    outer loop
      vertex  9.800000e+001 -5.049979e+000 -3.113178e+000
      vertex  1.040000e+002 -4.939249e+000 -3.717416e+000
      vertex  1.040000e+002 -5.049979e+000 -3.113178e+000
    endloop
  endfacet
  facet normal  -0.000000e+000 -9.981756e-001 -6.037901e-002
    outer loop
      vertex  9.800000e+001 -5.049979e+000 -3.113178e+000
      vertex  1.040000e+002 -5.049979e+000 -3.113178e+000
      vertex  9.800000e+001 -5.087070e+000 -2.500000e+000
    endloop
  endfacet
  facet normal  0.000000e+000 -9.981756e-001 -6.037901e-002
    outer loop
      vertex  9.800000e+001 -5.087070e+000 -2.500000e+000
      vertex  1.040000e+002 -5.049979e+000 -3.113178e+000
      vertex  1.040000e+002 -5.087070e+000 -2.500000e+000
    endloop
  endfacet
  facet normal  0.000000e+000 -9.981756e-001  6.037901e-002
    outer loop
      vertex  9.800000e+001 -5.087070e+000 -2.500000e+000
      vertex  1.040000e+002 -5.087070e+000 -2.500000e+000
      vertex  9.800000e+001 -5.049979e+000 -1.886822e+000
    endloop
  endfacet
  facet normal  0.000000e+000 -9.981756e-001  6.037901e-002
    outer loop
      vertex  9.800000e+001 -5.049979e+000 -1.886822e+000
      vertex  1.040000e+002 -5.087070e+000 -2.500000e+000
      vertex  1.040000e+002 -5.049979e+000 -1.886822e+000
    endloop
  endfacet
  facet normal  0.000000e+000 -9.836200e-001  1.802545e-001
    outer loop
      vertex  9.800000e+001 -5.049979e+000 -1.886822e+000
      vertex  1.040000e+002 -5.049979e+000 -1.886822e+000
      vertex  9.800000e+001 -4.939249e+000 -1.282585e+000
    endloop
  endfacet
  facet normal  0.000000e+000 -9.836200e-001  1.802545e-001
    outer loop
      vertex  9.800000e+001 -4.939249e+000 -1.282585e+000
      vertex  1.040000e+002 -5.049979e+000 -1.886822e+000
      vertex  1.040000e+002 -4.939249e+000 -1.282585e+000
    endloop
  endfacet
  facet normal  0.000000e+000 -9.547208e-001  2.975031e-001
    outer loop
      vertex  9.800000e+001 -4.939249e+000 -1.282585e+000
      vertex  1.040000e+002 -4.939249e+000 -1.282585e+000
      vertex  9.800000e+001 -4.756493e+000 -6.961002e-001
    endloop
  endfacet
  facet normal  0.000000e+000 -9.547208e-001  2.975031e-001
    outer loop
      vertex  9.800000e+001 -4.756493e+000 -6.961002e-001
      vertex  1.040000e+002 -4.939249e+000 -1.282585e+000
      vertex  1.040000e+002 -4.756493e+000 -6.961002e-001
    endloop
  endfacet
  facet normal  0.000000e+000 -9.118996e-001  4.104134e-001
    outer loop
      vertex  9.800000e+001 -4.756493e+000 -6.961002e-001
      vertex  1.040000e+002 -4.756493e+000 -6.961002e-001
      vertex  9.800000e+001 -4.504376e+000 -1.359208e-001
    endloop
  endfacet
  facet normal  0.000000e+000 -9.118996e-001  4.104134e-001
    outer loop
      vertex  9.800000e+001 -4.504376e+000 -1.359208e-001
      vertex  1.040000e+002 -4.756493e+000 -6.961002e-001
      vertex  1.040000e+002 -4.504376e+000 -1.359208e-001
    endloop
  endfacet
  facet normal  0.000000e+000 -8.557814e-001  5.173376e-001
    outer loop
      vertex  9.800000e+001 -4.504376e+000 -1.359208e-001
      vertex  1.040000e+002 -4.504376e+000 -1.359208e-001
      vertex  9.800000e+001 -4.186576e+000  3.897850e-001
    endloop
  endfacet
  facet normal  0.000000e+000 -8.557814e-001  5.173376e-001
    outer loop
      vertex  9.800000e+001 -4.186576e+000  3.897850e-001
      vertex  1.040000e+002 -4.504376e+000 -1.359208e-001
      vertex  1.040000e+002 -4.186576e+000  3.897850e-001
    endloop
  endfacet
  facet normal  0.000000e+000 -7.871834e-001  6.167189e-001
    outer loop
      vertex  9.800000e+001 -4.186576e+000  3.897850e-001
      vertex  1.040000e+002 -4.186576e+000  3.897850e-001
      vertex  9.800000e+001 -3.807726e+000  8.733513e-001
    endloop
  endfacet
  facet normal  0.000000e+000 -7.871834e-001  6.167189e-001
    outer loop
      vertex  9.800000e+001 -3.807726e+000  8.733513e-001
      vertex  1.040000e+002 -4.186576e+000  3.897850e-001
      vertex  1.040000e+002 -3.807726e+000  8.733513e-001
    endloop
  endfacet
  facet normal  0.000000e+000 -7.071069e-001  7.071068e-001
    outer loop
      vertex  9.800000e+001 -3.807726e+000  8.733513e-001
      vertex  1.040000e+002 -3.807726e+000  8.733513e-001
      vertex  9.800000e+001 -3.373351e+000  1.307726e+000
    endloop
  endfacet
  facet normal  0.000000e+000 -7.071069e-001  7.071068e-001
    outer loop
      vertex  9.800000e+001 -3.373351e+000  1.307726e+000
      vertex  1.040000e+002 -3.807726e+000  8.733513e-001
      vertex  1.040000e+002 -3.373351e+000  1.307726e+000
    endloop
  endfacet
  facet normal  0.000000e+000 -6.167189e-001  7.871835e-001
    outer loop
      vertex  9.800000e+001 -3.373351e+000  1.307726e+000
      vertex  1.040000e+002 -3.373351e+000  1.307726e+000
      vertex  9.800000e+001 -2.889785e+000  1.686576e+000
    endloop
  endfacet
  facet normal  0.000000e+000 -6.167189e-001  7.871835e-001
    outer loop
      vertex  9.800000e+001 -2.889785e+000  1.686576e+000
      vertex  1.040000e+002 -3.373351e+000  1.307726e+000
      vertex  1.040000e+002 -2.889785e+000  1.686576e+000
    endloop
  endfacet
  facet normal  0.000000e+000 -5.173379e-001  8.557812e-001
    outer loop
      vertex  9.800000e+001 -2.889785e+000  1.686576e+000
      vertex  1.040000e+002 -2.889785e+000  1.686576e+000
      vertex  9.800000e+001 -2.364079e+000  2.004377e+000
    endloop
  endfacet
  facet normal  0.000000e+000 -5.173379e-001  8.557812e-001
    outer loop
      vertex  9.800000e+001 -2.364079e+000  2.004377e+000
      vertex  1.040000e+002 -2.889785e+000  1.686576e+000
      vertex  1.040000e+002 -2.364079e+000  2.004377e+000
    endloop
  endfacet
  facet normal  0.000000e+000 -4.104126e-001  9.118999e-001
    outer loop
      vertex  9.800000e+001 -2.364079e+000  2.004377e+000
      vertex  1.040000e+002 -2.364079e+000  2.004377e+000
      vertex  9.800000e+001 -1.803900e+000  2.256493e+000
    endloop
  endfacet
  facet normal  0.000000e+000 -4.104126e-001  9.118999e-001
    outer loop
      vertex  9.800000e+001 -1.803900e+000  2.256493e+000
      vertex  1.040000e+002 -2.364079e+000  2.004377e+000
      vertex  1.040000e+002 -1.803900e+000  2.256493e+000
    endloop
  endfacet
  facet normal  0.000000e+000 -2.975031e-001  9.547209e-001
    outer loop
      vertex  9.800000e+001 -1.803900e+000  2.256493e+000
      vertex  1.040000e+002 -1.803900e+000  2.256493e+000
      vertex  9.800000e+001 -1.217415e+000  2.439249e+000
    endloop
  endfacet
  facet normal  0.000000e+000 -2.975031e-001  9.547209e-001
    outer loop
      vertex  9.800000e+001 -1.217415e+000  2.439249e+000
      vertex  1.040000e+002 -1.803900e+000  2.256493e+000
      vertex  1.040000e+002 -1.217415e+000  2.439249e+000
    endloop
  endfacet
  facet normal  0.000000e+000 -1.802552e-001  9.836199e-001
    outer loop
      vertex  9.800000e+001 -1.217415e+000  2.439249e+000
      vertex  1.040000e+002 -1.217415e+000  2.439249e+000
      vertex  9.800000e+001 -6.131785e-001  2.549979e+000
    endloop
  endfacet
  facet normal  0.000000e+000 -1.802552e-001  9.836199e-001
    outer loop
      vertex  9.800000e+001 -6.131785e-001  2.549979e+000
      vertex  1.040000e+002 -1.217415e+000  2.439249e+000
      vertex  1.040000e+002 -6.131785e-001  2.549979e+000
    endloop
  endfacet
  facet normal  0.000000e+000 -6.037823e-002  9.981757e-001
    outer loop
      vertex  9.800000e+001 -6.131785e-001  2.549979e+000
      vertex  1.040000e+002 -6.131785e-001  2.549979e+000
      vertex  9.800000e+001  1.557414e-015  2.587070e+000
    endloop
  endfacet
  facet normal -3.974028e-017 -6.037823e-002  9.981757e-001
    outer loop
      vertex  9.800000e+001  1.557414e-015  2.587070e+000
      vertex  1.040000e+002 -6.131785e-001  2.549979e+000
      vertex  1.040000e+002 -2.391719e-015  2.587070e+000
    endloop
  endfacet
  facet normal  3.974028e-017  6.037823e-002  9.981757e-001
    outer loop
      vertex  9.800000e+001  1.557414e-015  2.587070e+000
      vertex  1.040000e+002 -2.391719e-015  2.587070e+000
      vertex  9.800000e+001  6.131785e-001  2.549979e+000
    endloop
  endfacet
  facet normal  -0.000000e+000  6.037823e-002  9.981757e-001
    outer loop
      vertex  9.800000e+001  6.131785e-001  2.549979e+000
      vertex  1.040000e+002 -2.391719e-015  2.587070e+000
      vertex  1.040000e+002  6.131785e-001  2.549979e+000
    endloop
  endfacet
  facet normal  0.000000e+000  1.802552e-001  9.836199e-001
    outer loop
      vertex  9.800000e+001  6.131785e-001  2.549979e+000
      vertex  1.040000e+002  6.131785e-001  2.549979e+000
      vertex  9.800000e+001  1.217415e+000  2.439249e+000
    endloop
  endfacet
  facet normal  -0.000000e+000  1.802552e-001  9.836199e-001
    outer loop
      vertex  9.800000e+001  1.217415e+000  2.439249e+000
      vertex  1.040000e+002  6.131785e-001  2.549979e+000
      vertex  1.040000e+002  1.217415e+000  2.439249e+000
    endloop
  endfacet
  facet normal  0.000000e+000  2.975031e-001  9.547209e-001
    outer loop
      vertex  9.800000e+001  1.217415e+000  2.439249e+000
      vertex  1.040000e+002  1.217415e+000  2.439249e+000
      vertex  9.800000e+001  1.803900e+000  2.256493e+000
    endloop
  endfacet
  facet normal  -0.000000e+000  2.975031e-001  9.547209e-001
    outer loop
      vertex  9.800000e+001  1.803900e+000  2.256493e+000
      vertex  1.040000e+002  1.217415e+000  2.439249e+000
      vertex  1.040000e+002  1.803900e+000  2.256493e+000
    endloop
  endfacet
  facet normal  0.000000e+000  4.104126e-001  9.118999e-001
    outer loop
      vertex  9.800000e+001  1.803900e+000  2.256493e+000
      vertex  1.040000e+002  1.803900e+000  2.256493e+000
      vertex  9.800000e+001  2.364079e+000  2.004377e+000
    endloop
  endfacet
  facet normal  -0.000000e+000  4.104126e-001  9.118999e-001
    outer loop
      vertex  9.800000e+001  2.364079e+000  2.004377e+000
      vertex  1.040000e+002  1.803900e+000  2.256493e+000
      vertex  1.040000e+002  2.364079e+000  2.004377e+000
    endloop
  endfacet
  facet normal  0.000000e+000  5.173379e-001  8.557812e-001
    outer loop
      vertex  9.800000e+001  2.364079e+000  2.004377e+000
      vertex  1.040000e+002  2.364079e+000  2.004377e+000
      vertex  9.800000e+001  2.889785e+000  1.686576e+000
    endloop
  endfacet
  facet normal  -0.000000e+000  5.173379e-001  8.557812e-001
    outer loop
      vertex  9.800000e+001  2.889785e+000  1.686576e+000
      vertex  1.040000e+002  2.364079e+000  2.004377e+000
      vertex  1.040000e+002  2.889785e+000  1.686576e+000
    endloop
  endfacet
  facet normal  0.000000e+000  6.167189e-001  7.871835e-001
    outer loop
      vertex  9.800000e+001  2.889785e+000  1.686576e+000
      vertex  1.040000e+002  2.889785e+000  1.686576e+000
      vertex  9.800000e+001  3.373351e+000  1.307726e+000
    endloop
  endfacet
  facet normal  -0.000000e+000  6.167189e-001  7.871835e-001
    outer loop
      vertex  9.800000e+001  3.373351e+000  1.307726e+000
      vertex  1.040000e+002  2.889785e+000  1.686576e+000
      vertex  1.040000e+002  3.373351e+000  1.307726e+000
    endloop
  endfacet
  facet normal  0.000000e+000  7.071069e-001  7.071068e-001
    outer loop
      vertex  9.800000e+001  3.373351e+000  1.307726e+000
      vertex  1.040000e+002  3.373351e+000  1.307726e+000
      vertex  9.800000e+001  3.807726e+000  8.733513e-001
    endloop
  endfacet
  facet normal  -0.000000e+000  7.071069e-001  7.071068e-001
    outer loop
      vertex  9.800000e+001  3.807726e+000  8.733513e-001
      vertex  1.040000e+002  3.373351e+000  1.307726e+000
      vertex  1.040000e+002  3.807726e+000  8.733513e-001
    endloop
  endfacet
  facet normal  0.000000e+000  7.871834e-001  6.167189e-001
    outer loop
      vertex  9.800000e+001  3.807726e+000  8.733513e-001
      vertex  1.040000e+002  3.807726e+000  8.733513e-001
      vertex  9.800000e+001  4.186576e+000  3.897850e-001
    endloop
  endfacet
  facet normal  -0.000000e+000  7.871834e-001  6.167189e-001
    outer loop
      vertex  9.800000e+001  4.186576e+000  3.897850e-001
      vertex  1.040000e+002  3.807726e+000  8.733513e-001
      vertex  1.040000e+002  4.186576e+000  3.897850e-001
    endloop
  endfacet
  facet normal  0.000000e+000  8.557814e-001  5.173376e-001
    outer loop
      vertex  9.800000e+001  4.186576e+000  3.897850e-001
      vertex  1.040000e+002  4.186576e+000  3.897850e-001
      vertex  9.800000e+001  4.504376e+000 -1.359208e-001
    endloop
  endfacet
  facet normal  -0.000000e+000  8.557814e-001  5.173376e-001
    outer loop
      vertex  9.800000e+001  4.504376e+000 -1.359208e-001
      vertex  1.040000e+002  4.186576e+000  3.897850e-001
      vertex  1.040000e+002  4.504376e+000 -1.359208e-001
    endloop
  endfacet
  facet normal  0.000000e+000  9.118996e-001  4.104134e-001
    outer loop
      vertex  9.800000e+001  4.504376e+000 -1.359208e-001
      vertex  1.040000e+002  4.504376e+000 -1.359208e-001
      vertex  9.800000e+001  4.756493e+000 -6.961002e-001
    endloop
  endfacet
  facet normal  -0.000000e+000  9.118996e-001  4.104134e-001
    outer loop
      vertex  9.800000e+001  4.756493e+000 -6.961002e-001
      vertex  1.040000e+002  4.504376e+000 -1.359208e-001
      vertex  1.040000e+002  4.756493e+000 -6.961002e-001
    endloop
  endfacet
  facet normal  0.000000e+000  9.547208e-001  2.975031e-001
    outer loop
      vertex  9.800000e+001  4.756493e+000 -6.961002e-001
      vertex  1.040000e+002  4.756493e+000 -6.961002e-001
      vertex  9.800000e+001  4.939249e+000 -1.282585e+000
    endloop
  endfacet
  facet normal  -0.000000e+000  9.547208e-001  2.975031e-001
    outer loop
      vertex  9.800000e+001  4.939249e+000 -1.282585e+000
      vertex  1.040000e+002  4.756493e+000 -6.961002e-001
      vertex  1.040000e+002  4.939249e+000 -1.282585e+000
    endloop
  endfacet
  facet normal  0.000000e+000  9.836200e-001  1.802545e-001
    outer loop
      vertex  9.800000e+001  4.939249e+000 -1.282585e+000
      vertex  1.040000e+002  4.939249e+000 -1.282585e+000
      vertex  9.800000e+001  5.049979e+000 -1.886822e+000
    endloop
  endfacet
  facet normal  -0.000000e+000  9.836200e-001  1.802545e-001
    outer loop
      vertex  9.800000e+001  5.049979e+000 -1.886822e+000
      vertex  1.040000e+002  4.939249e+000 -1.282585e+000
      vertex  1.040000e+002  5.049979e+000 -1.886822e+000
    endloop
  endfacet
  facet normal  0.000000e+000  9.981756e-001  6.037901e-002
    outer loop
      vertex  9.800000e+001  5.049979e+000 -1.886822e+000
      vertex  1.040000e+002  5.049979e+000 -1.886822e+000
      vertex  9.800000e+001  5.087070e+000 -2.500000e+000
    endloop
  endfacet
  facet normal  -0.000000e+000  9.981756e-001  6.037901e-002
    outer loop
      vertex  9.800000e+001  5.087070e+000 -2.500000e+000
      vertex  1.040000e+002  5.049979e+000 -1.886822e+000
      vertex  1.040000e+002  5.087070e+000 -2.500000e+000
    endloop
  endfacet
  facet normal  0.000000e+000  1.000000e+000  0.000000e+000
    outer loop
      vertex  9.800000e+001 -1.300000e+000 -5.300000e+000
      vertex  9.800000e+001 -1.300000e+000  3.000000e-001
      vertex  1.040000e+002 -1.300000e+000 -5.300000e+000
    endloop
  endfacet
  facet normal  0.000000e+000  1.000000e+000  -0.000000e+000
    outer loop
      vertex  1.040000e+002 -1.300000e+000 -5.300000e+000
      vertex  9.800000e+001 -1.300000e+000  3.000000e-001
      vertex  1.040000e+002 -1.300000e+000  3.000000e-001
    endloop
  endfacet
  facet normal  0.000000e+000  0.000000e+000 -1.000000e+000
    outer loop
      vertex  9.800000e+001 -1.300000e+000  3.000000e-001
      vertex  9.800000e+001  1.300000e+000  3.000000e-001
      vertex  1.040000e+002 -1.300000e+000  3.000000e-001
    endloop
  endfacet
  facet normal  0.000000e+000  0.000000e+000 -1.000000e+000
    outer loop
      vertex  1.040000e+002 -1.300000e+000  3.000000e-001
      vertex  9.800000e+001  1.300000e+000  3.000000e-001
      vertex  1.040000e+002  1.300000e+000  3.000000e-001
    endloop
  endfacet
  facet normal  0.000000e+000 -1.000000e+000  0.000000e+000
    outer loop
      vertex  9.800000e+001  1.300000e+000  3.000000e-001
      vertex  9.800000e+001  1.300000e+000 -5.300000e+000
      vertex  1.040000e+002  1.300000e+000  3.000000e-001
    endloop
  endfacet
  facet normal  0.000000e+000 -1.000000e+000  -0.000000e+000
    outer loop
      vertex  1.040000e+002  1.300000e+000  3.000000e-001
      vertex  9.800000e+001  1.300000e+000 -5.300000e+000
      vertex  1.040000e+002  1.300000e+000 -5.300000e+000
    endloop
  endfacet
  facet normal  0.000000e+000  0.000000e+000  1.000000e+000
    outer loop
      vertex  9.800000e+001  1.300000e+000 -5.300000e+000
      vertex  9.800000e+001 -1.300000e+000 -5.300000e+000
      vertex  1.040000e+002  1.300000e+000 -5.300000e+000
    endloop
  endfacet
  facet normal  0.000000e+000  0.000000e+000  1.000000e+000
    outer loop
      vertex  1.040000e+002  1.300000e+000 -5.300000e+000
      vertex  9.800000e+001 -1.300000e+000 -5.300000e+000
      vertex  1.040000e+002 -1.300000e+000 -5.300000e+000
    endloop
  endfacet
  facet normal -1.000000e+000  -0.000000e+000  -0.000000e+000
    outer loop
      vertex  9.800000e+001 -1.300000e+000 -5.300000e+000
      vertex  9.800000e+001  1.300000e+000 -5.300000e+000
      vertex  9.800000e+001  4.186576e+000 -5.389785e+000
    endloop
  endfacet
  facet normal -1.000000e+000  -0.000000e+000  0.000000e+000
    outer loop
      vertex  9.800000e+001 -1.300000e+000 -5.300000e+000
      vertex  9.800000e+001  4.186576e+000 -5.389785e+000
      vertex  9.800000e+001  3.583777e-015 -7.587070e+000
    endloop
  endfacet
  facet normal -1.000000e+000  0.000000e+000  0.000000e+000
    outer loop
      vertex  9.800000e+001 -1.300000e+000 -5.300000e+000
      vertex  9.800000e+001  3.583777e-015 -7.587070e+000
      vertex  9.800000e+001 -4.186576e+000 -5.389785e+000
    endloop
  endfacet
  facet normal -1.000000e+000  0.000000e+000  0.000000e+000
    outer loop
      vertex  9.800000e+001 -1.300000e+000 -5.300000e+000
      vertex  9.800000e+001 -4.186576e+000 -5.389785e+000
      vertex  9.800000e+001 -4.504376e+000 -4.864079e+000
    endloop
  endfacet
  facet normal -1.000000e+000  0.000000e+000  0.000000e+000
    outer loop
      vertex  9.800000e+001 -1.300000e+000 -5.300000e+000
      vertex  9.800000e+001 -4.504376e+000 -4.864079e+000
      vertex  9.800000e+001 -4.756493e+000 -4.303900e+000
    endloop
  endfacet
  facet normal -1.000000e+000  0.000000e+000  0.000000e+000
    outer loop
      vertex  9.800000e+001 -1.300000e+000 -5.300000e+000
      vertex  9.800000e+001 -4.756493e+000 -4.303900e+000
      vertex  9.800000e+001 -4.939249e+000 -3.717416e+000
    endloop
  endfacet
  facet normal -1.000000e+000  0.000000e+000  0.000000e+000
    outer loop
      vertex  9.800000e+001 -1.300000e+000 -5.300000e+000
      vertex  9.800000e+001 -4.939249e+000 -3.717416e+000
      vertex  9.800000e+001 -5.049979e+000 -3.113178e+000
    endloop
  endfacet
  facet normal -1.000000e+000  0.000000e+000  0.000000e+000
    outer loop
      vertex  9.800000e+001 -1.300000e+000 -5.300000e+000
      vertex  9.800000e+001 -5.049979e+000 -3.113178e+000
      vertex  9.800000e+001 -5.087070e+000 -2.500000e+000
    endloop
  endfacet
  facet normal -1.000000e+000  0.000000e+000  0.000000e+000
    outer loop
      vertex  9.800000e+001 -1.300000e+000 -5.300000e+000
      vertex  9.800000e+001 -5.087070e+000 -2.500000e+000
      vertex  9.800000e+001 -5.049979e+000 -1.886822e+000
    endloop
  endfacet
  facet normal -1.000000e+000  0.000000e+000  0.000000e+000
    outer loop
      vertex  9.800000e+001 -1.300000e+000 -5.300000e+000
      vertex  9.800000e+001 -5.049979e+000 -1.886822e+000
      vertex  9.800000e+001 -4.939249e+000 -1.282585e+000
    endloop
  endfacet
  facet normal -1.000000e+000  0.000000e+000  0.000000e+000
    outer loop
      vertex  9.800000e+001 -1.300000e+000 -5.300000e+000
      vertex  9.800000e+001 -4.939249e+000 -1.282585e+000
      vertex  9.800000e+001 -4.756493e+000 -6.961002e-001
    endloop
  endfacet
  facet normal -1.000000e+000  0.000000e+000  0.000000e+000
    outer loop
      vertex  9.800000e+001 -1.300000e+000 -5.300000e+000
      vertex  9.800000e+001 -4.756493e+000 -6.961002e-001
      vertex  9.800000e+001 -4.504376e+000 -1.359208e-001
    endloop
  endfacet
  facet normal -1.000000e+000  0.000000e+000  0.000000e+000
    outer loop
      vertex  9.800000e+001 -1.300000e+000 -5.300000e+000
      vertex  9.800000e+001 -4.504376e+000 -1.359208e-001
      vertex  9.800000e+001 -4.186576e+000  3.897850e-001
    endloop
  endfacet
  facet normal -1.000000e+000  0.000000e+000  0.000000e+000
    outer loop
      vertex  9.800000e+001 -1.300000e+000 -5.300000e+000
      vertex  9.800000e+001 -4.186576e+000  3.897850e-001
      vertex  9.800000e+001 -1.300000e+000  3.000000e-001
    endloop
  endfacet
  facet normal -1.000000e+000  0.000000e+000  -0.000000e+000
    outer loop
      vertex  9.800000e+001 -4.186576e+000  3.897850e-001
      vertex  9.800000e+001 -3.807726e+000  8.733513e-001
      vertex  9.800000e+001 -3.373351e+000  1.307726e+000
    endloop
  endfacet
  facet normal -1.000000e+000  0.000000e+000  -0.000000e+000
    outer loop
      vertex  9.800000e+001 -4.186576e+000  3.897850e-001
      vertex  9.800000e+001 -3.373351e+000  1.307726e+000
      vertex  9.800000e+001 -2.889785e+000  1.686576e+000
    endloop
  endfacet
  facet normal -1.000000e+000  0.000000e+000  -0.000000e+000
    outer loop
      vertex  9.800000e+001 -4.186576e+000  3.897850e-001
      vertex  9.800000e+001 -2.889785e+000  1.686576e+000
      vertex  9.800000e+001 -2.364079e+000  2.004377e+000
    endloop
  endfacet
  facet normal -9.999999e-001  0.000000e+000  -0.000000e+000
    outer loop
      vertex  9.800000e+001 -4.186576e+000  3.897850e-001
      vertex  9.800000e+001 -2.364079e+000  2.004377e+000
      vertex  9.800000e+001 -1.803900e+000  2.256493e+000
    endloop
  endfacet
  facet normal -1.000000e+000  0.000000e+000  -0.000000e+000
    outer loop
      vertex  9.800000e+001 -4.186576e+000  3.897850e-001
      vertex  9.800000e+001 -1.803900e+000  2.256493e+000
      vertex  9.800000e+001 -1.217415e+000  2.439249e+000
    endloop
  endfacet
  facet normal -1.000000e+000  0.000000e+000  0.000000e+000
    outer loop
      vertex  9.800000e+001 -4.186576e+000  3.897850e-001
      vertex  9.800000e+001 -1.217415e+000  2.439249e+000
      vertex  9.800000e+001 -1.300000e+000  3.000000e-001
    endloop
  endfacet
  facet normal -9.999999e-001  0.000000e+000  -0.000000e+000
    outer loop
      vertex  9.800000e+001 -1.300000e+000  3.000000e-001
      vertex  9.800000e+001 -1.217415e+000  2.439249e+000
      vertex  9.800000e+001 -6.131785e-001  2.549979e+000
    endloop
  endfacet
  facet normal -1.000000e+000  0.000000e+000  -0.000000e+000
    outer loop
      vertex  9.800000e+001 -1.300000e+000  3.000000e-001
      vertex  9.800000e+001 -6.131785e-001  2.549979e+000
      vertex  9.800000e+001  1.557414e-015  2.587070e+000
    endloop
  endfacet
  facet normal -1.000000e+000  0.000000e+000  -0.000000e+000
    outer loop
      vertex  9.800000e+001 -1.300000e+000  3.000000e-001
      vertex  9.800000e+001  1.557414e-015  2.587070e+000
      vertex  9.800000e+001  6.131785e-001  2.549979e+000
    endloop
  endfacet
  facet normal -1.000000e+000  0.000000e+000  -0.000000e+000
    outer loop
      vertex  9.800000e+001 -1.300000e+000  3.000000e-001
      vertex  9.800000e+001  6.131785e-001  2.549979e+000
      vertex  9.800000e+001  1.217415e+000  2.439249e+000
    endloop
  endfacet
  facet normal -1.000000e+000  0.000000e+000  -0.000000e+000
    outer loop
      vertex  9.800000e+001 -1.300000e+000  3.000000e-001
      vertex  9.800000e+001  1.217415e+000  2.439249e+000
      vertex  9.800000e+001  1.803900e+000  2.256493e+000
    endloop
  endfacet
  facet normal -1.000000e+000  0.000000e+000  0.000000e+000
    outer loop
      vertex  9.800000e+001 -1.300000e+000  3.000000e-001
      vertex  9.800000e+001  1.803900e+000  2.256493e+000
      vertex  9.800000e+001  1.300000e+000  3.000000e-001
    endloop
  endfacet
  facet normal -1.000000e+000  0.000000e+000  -0.000000e+000
    outer loop
      vertex  9.800000e+001  1.300000e+000  3.000000e-001
      vertex  9.800000e+001  1.803900e+000  2.256493e+000
      vertex  9.800000e+001  2.364079e+000  2.004377e+000
    endloop
  endfacet
  facet normal -1.000000e+000  0.000000e+000  -0.000000e+000
    outer loop
      vertex  9.800000e+001  1.300000e+000  3.000000e-001
      vertex  9.800000e+001  2.364079e+000  2.004377e+000
      vertex  9.800000e+001  2.889785e+000  1.686576e+000
    endloop
  endfacet
  facet normal -1.000000e+000  0.000000e+000  -0.000000e+000
    outer loop
      vertex  9.800000e+001  1.300000e+000  3.000000e-001
      vertex  9.800000e+001  2.889785e+000  1.686576e+000
      vertex  9.800000e+001  3.373351e+000  1.307726e+000
    endloop
  endfacet
  facet normal -1.000000e+000  0.000000e+000  -0.000000e+000
    outer loop
      vertex  9.800000e+001  1.300000e+000  3.000000e-001
      vertex  9.800000e+001  3.373351e+000  1.307726e+000
      vertex  9.800000e+001  3.807726e+000  8.733513e-001
    endloop
  endfacet
  facet normal -1.000000e+000  0.000000e+000  -0.000000e+000
    outer loop
      vertex  9.800000e+001  1.300000e+000  3.000000e-001
      vertex  9.800000e+001  3.807726e+000  8.733513e-001
      vertex  9.800000e+001  4.186576e+000  3.897850e-001
    endloop
  endfacet
  facet normal -1.000000e+000  0.000000e+000  -0.000000e+000
    outer loop
      vertex  9.800000e+001  1.300000e+000  3.000000e-001
      vertex  9.800000e+001  4.186576e+000  3.897850e-001
      vertex  9.800000e+001  4.504376e+000 -1.359208e-001
    endloop
  endfacet
  facet normal -1.000000e+000  -0.000000e+000  0.000000e+000
    outer loop
      vertex  9.800000e+001  1.300000e+000  3.000000e-001
      vertex  9.800000e+001  4.504376e+000 -1.359208e-001
      vertex  9.800000e+001  1.300000e+000 -5.300000e+000
    endloop
  endfacet
  facet normal -1.000000e+000  0.000000e+000  0.000000e+000
    outer loop
      vertex  9.800000e+001  3.583777e-015 -7.587070e+000
      vertex  9.800000e+001 -6.131785e-001 -7.549979e+000
      vertex  9.800000e+001 -1.217415e+000 -7.439249e+000
    endloop
  endfacet
  facet normal -1.000000e+000  0.000000e+000  0.000000e+000
    outer loop
      vertex  9.800000e+001  3.583777e-015 -7.587070e+000
      vertex  9.800000e+001 -1.217415e+000 -7.439249e+000
      vertex  9.800000e+001 -1.803900e+000 -7.256493e+000
    endloop
  endfacet
  facet normal -1.000000e+000  0.000000e+000  0.000000e+000
    outer loop
      vertex  9.800000e+001  3.583777e-015 -7.587070e+000
      vertex  9.800000e+001 -1.803900e+000 -7.256493e+000
      vertex  9.800000e+001 -2.364079e+000 -7.004376e+000
    endloop
  endfacet
  facet normal -1.000000e+000  0.000000e+000  0.000000e+000
    outer loop
      vertex  9.800000e+001  3.583777e-015 -7.587070e+000
      vertex  9.800000e+001 -2.364079e+000 -7.004376e+000
      vertex  9.800000e+001 -2.889785e+000 -6.686576e+000
    endloop
  endfacet
  facet normal -1.000000e+000  0.000000e+000  0.000000e+000
    outer loop
      vertex  9.800000e+001  3.583777e-015 -7.587070e+000
      vertex  9.800000e+001 -2.889785e+000 -6.686576e+000
      vertex  9.800000e+001 -3.373351e+000 -6.307726e+000
    endloop
  endfacet
  facet normal -1.000000e+000  0.000000e+000  0.000000e+000
    outer loop
      vertex  9.800000e+001  3.583777e-015 -7.587070e+000
      vertex  9.800000e+001 -3.373351e+000 -6.307726e+000
      vertex  9.800000e+001 -3.807726e+000 -5.873351e+000
    endloop
  endfacet
  facet normal -1.000000e+000  0.000000e+000  0.000000e+000
    outer loop
      vertex  9.800000e+001  3.583777e-015 -7.587070e+000
      vertex  9.800000e+001 -3.807726e+000 -5.873351e+000
      vertex  9.800000e+001 -4.186576e+000 -5.389785e+000
    endloop
  endfacet
  facet normal -1.000000e+000  0.000000e+000  -0.000000e+000
    outer loop
      vertex  9.800000e+001  1.300000e+000 -5.300000e+000
      vertex  9.800000e+001  4.504376e+000 -1.359208e-001
      vertex  9.800000e+001  4.756493e+000 -6.961002e-001
    endloop
  endfacet
  facet normal -1.000000e+000  0.000000e+000  -0.000000e+000
    outer loop
      vertex  9.800000e+001  1.300000e+000 -5.300000e+000
      vertex  9.800000e+001  4.756493e+000 -6.961002e-001
      vertex  9.800000e+001  4.939249e+000 -1.282585e+000
    endloop
  endfacet
  facet normal -1.000000e+000  0.000000e+000  -0.000000e+000
    outer loop
      vertex  9.800000e+001  1.300000e+000 -5.300000e+000
      vertex  9.800000e+001  4.939249e+000 -1.282585e+000
      vertex  9.800000e+001  5.049979e+000 -1.886822e+000
    endloop
  endfacet
  facet normal -1.000000e+000  0.000000e+000  -0.000000e+000
    outer loop
      vertex  9.800000e+001  1.300000e+000 -5.300000e+000
      vertex  9.800000e+001  5.049979e+000 -1.886822e+000
      vertex  9.800000e+001  5.087070e+000 -2.500000e+000
    endloop
  endfacet
  facet normal -1.000000e+000  0.000000e+000  0.000000e+000
    outer loop
      vertex  9.800000e+001  1.300000e+000 -5.300000e+000
      vertex  9.800000e+001  5.087070e+000 -2.500000e+000
      vertex  9.800000e+001  5.049979e+000 -3.113178e+000
    endloop
  endfacet
  facet normal -1.000000e+000  0.000000e+000  0.000000e+000
    outer loop
      vertex  9.800000e+001  1.300000e+000 -5.300000e+000
      vertex  9.800000e+001  5.049979e+000 -3.113178e+000
      vertex  9.800000e+001  4.939249e+000 -3.717416e+000
    endloop
  endfacet
  facet normal -1.000000e+000  0.000000e+000  0.000000e+000
    outer loop
      vertex  9.800000e+001  1.300000e+000 -5.300000e+000
      vertex  9.800000e+001  4.939249e+000 -3.717416e+000
      vertex  9.800000e+001  4.756493e+000 -4.303900e+000
    endloop
  endfacet
  facet normal -1.000000e+000  0.000000e+000  0.000000e+000
    outer loop
      vertex  9.800000e+001  1.300000e+000 -5.300000e+000
      vertex  9.800000e+001  4.756493e+000 -4.303900e+000
      vertex  9.800000e+001  4.504376e+000 -4.864079e+000
    endloop
  endfacet
  facet normal -1.000000e+000  0.000000e+000  0.000000e+000
    outer loop
      vertex  9.800000e+001  1.300000e+000 -5.300000e+000
      vertex  9.800000e+001  4.504376e+000 -4.864079e+000
      vertex  9.800000e+001  4.186576e+000 -5.389785e+000
    endloop
  endfacet
  facet normal -1.000000e+000  0.000000e+000  0.000000e+000
    outer loop
      vertex  9.800000e+001  3.583777e-015 -7.587070e+000
      vertex  9.800000e+001  4.186576e+000 -5.389785e+000
      vertex  9.800000e+001  3.807726e+000 -5.873351e+000
    endloop
  endfacet
  facet normal -1.000000e+000  0.000000e+000  0.000000e+000
    outer loop
      vertex  9.800000e+001  3.583777e-015 -7.587070e+000
      vertex  9.800000e+001  3.807726e+000 -5.873351e+000
      vertex  9.800000e+001  3.373351e+000 -6.307726e+000
    endloop
  endfacet
  facet normal -1.000000e+000  0.000000e+000  0.000000e+000
    outer loop
      vertex  9.800000e+001  3.583777e-015 -7.587070e+000
      vertex  9.800000e+001  3.373351e+000 -6.307726e+000
      vertex  9.800000e+001  2.889785e+000 -6.686576e+000
    endloop
  endfacet
  facet normal -1.000000e+000  0.000000e+000  0.000000e+000
    outer loop
      vertex  9.800000e+001  3.583777e-015 -7.587070e+000
      vertex  9.800000e+001  2.889785e+000 -6.686576e+000
      vertex  9.800000e+001  2.364079e+000 -7.004376e+000
    endloop
  endfacet
  facet normal -1.000000e+000  0.000000e+000  0.000000e+000
    outer loop
      vertex  9.800000e+001  3.583777e-015 -7.587070e+000
      vertex  9.800000e+001  2.364079e+000 -7.004376e+000
      vertex  9.800000e+001  1.803900e+000 -7.256493e+000
    endloop
  endfacet
  facet normal -1.000000e+000  0.000000e+000  0.000000e+000
    outer loop
      vertex  9.800000e+001  3.583777e-015 -7.587070e+000
      vertex  9.800000e+001  1.803900e+000 -7.256493e+000
      vertex  9.800000e+001  1.217415e+000 -7.439249e+000
    endloop
  endfacet
  facet normal -1.000000e+000  0.000000e+000  0.000000e+000
    outer loop
      vertex  9.800000e+001  3.583777e-015 -7.587070e+000
      vertex  9.800000e+001  1.217415e+000 -7.439249e+000
      vertex  9.800000e+001  6.131785e-001 -7.549979e+000
    endloop
  endfacet
endsolid CATIA STL
